<?xml version="1.0" encoding="utf-8"?>
<!-- Generator: Adobe Illustrator 24.0.0, SVG Export Plug-In . SVG Version: 6.00 Build 0)  -->
<svg version="1.1" id="Layer_1" xmlns="http://www.w3.org/2000/svg" xmlns:xlink="http://www.w3.org/1999/xlink" x="0px" y="0px"
	 viewBox="0 0 1024 1024" style="enable-background:new 0 0 1024 1024;" xml:space="preserve">
<style type="text/css">
	.st0{fill:#FBFBFA;}
	.st1{fill:#610666;}
	.st2{fill:#370330;}
	.st3{fill:#4F0550;}
	.st4{fill:#450642;}
</style>
<path class="st0" d="M330,593c-0.3,0-0.6,0-1,0.1c-2.1,0.1-3.6,1.8-5.3,3l11.2-0.3C333.1,595.1,330.3,596.2,330,593z"/>
<path class="st0" d="M683,591C683,591,683,590.9,683,591C683,590.9,683,590.9,683,591L683,591z"/>
<path class="st0" d="M734.9,598.9c0-0.6,0.3-1.1,1-1.1c6.3-6.3,7.6-14,6.3-22.5c-0.2-1.5-0.4-2.9-0.6-4.4c-4.1-1.8-7-5.1-10.2-8
	c-0.5,0.9-1,1.4-1.5,0c-5.6-0.2-11-2.5-16.8-1.3c-5.9,1.2-11.5,3-15.5,7.8c-1.1,1.2-2.9,2.6-0.8,4.5c3.2-5.4,7.6-8.5,14.2-7.5
	c4.2-1.1,6.8,0,8.4,3.4c1.4,2.2,2.9,0.6,4.3,0.1c7-2.7,9.8-1,11.7,6.3c2,7.9-2.4,13.1-7.1,18c-5.7,5.8-18.2,7.1-25.6,3.4
	c-4.8-0.2-11.1-5.5-12.1-10.5c-2.2-10.4,3-21.6,12.6-27.5c1.5-0.9,3.6-1.2,3.7-3.5c-1-0.3-1.8-0.8-2.3-1.7c-6.4-3.8-12.3-8.1-17-14
	h-0.1c-6-3.6-9.6-9.8-14.8-14.3c-15-14.5-28-30.8-41.8-46.4c-2.4-2.7-4.4-5.8-5.7-9.2c-5.8-10.5-9.2-22-13.4-33.1
	c-3.5-9.5-6.8-19.1-11.1-28.3c-3.9-8.5-11.2-14.4-19.4-18.5c-9.8-4.9-20.1-8.7-30.1-13.1c-3.6-1.6-7-3.8-10.4-5.6
	c-0.3-0.2-0.6-0.5-0.9-0.7c-0.3-0.2-0.7-0.3-1.1-0.5c-1.1,0-1-0.7-1-1.5c-0.5-0.6-0.9-1.2-0.5-2c-1.6-2.5-3.3-4.8-6.6-2.2
	c1.1,5.2-0.2,10.2-1.5,15.2c-1,6.7-2.4,13.4-4.4,19.9c-2.1,8.5-4.3,17-6.2,25.6c-2.6,11.5-2.5,23.4-4.4,35.1
	c-1.7-18-7.9-35-11.3-52.7c-1.4-5.7-2.9-11.3-4.3-17c-1-4-1.9-8-2.8-12c-1.8-3.9-1.6-8.2-2-12.3c-2.7-0.3-5,2.5-7.9,1.3
	c-0.2,5.2-5.4,4.9-8.2,7.2c-4.6,3.8-10.7,5.2-16,7.7c-10.3,4.9-20.4,10.3-30.6,15.3c-1.3,0.6-1.5,1.7-2,2.7
	c-1.4,2.8-2.7,5.6-4.1,8.4c-9.3,18.8-13.9,39.5-22.9,58.4c-3.7,7.8-9.5,14-15,20.3c-6,7-12,13.8-17.5,21.2c-1.1,1.4-2.6,2.5-3.9,3.8
	c-0.3,0.3-0.5,0.7-0.8,1c-0.3,1-0.8,1.8-1.8,2.2c-11.6,13-24.5,24.6-37.4,36.2c-3.3,3-9.6,5.9-14.2,6.7c-3.7,0.6-7.4,1.2-11.1,1.8
	c-4.5,3.4-7.8,8.5-13.6,10c-0.2,2.9-0.7,4.7-2.8,4.6c0,1.1-0.1,2.2-0.2,3.3c0.8,0.8,1.1,1.9,1,3.2c-0.1,1.7-0.5,2.2-1.2,2.2
	c0,0.5,0.1,1.1,0.1,1.7c0.5-0.3,1.1-0.7,1.7-0.9c1.6,5,3.5,9.4,7.4,12.6c2.6,2.1,0.2,4-0.9,5.6l11.4-6.6c0.7-2.4,4.3-1.6,6.8-1.5
	c0.8,0,1.7-0.2,1.1-1.4c-7,0-14.1,0.7-19-6c-2-2.8-2.2-5.5-1.3-8.6c1.2-6.5,6.6-11.4,12.8-12.2c6.5-0.9,13.1-0.6,19.5-2.7
	c1.8-0.6,2.5-4,5.3-2c2.4,1.7,2.3,4.3,2.5,6.7c0.3,2.9,1.3,5,3,7.5c2.5,3.6,3,8.1,0.8,12.5c0.4,0.5,0.8,1.1,1.2,1.6
	c1.3,0.2,2.6,0.5,4,0.7c14.7-9.7,28.9-20.1,41.3-32.4c11.3-11.2,25.7-18.7,36.1-30.7c2.5-2.8,4.3-6.4,8.2-7.8
	c5.3-7.7,10.1-15.6,14.5-23.9c1.8-7.9,3.6-15.7,5.5-23.6c0.4,0,0.9,0,1.3,0c-0.6,20.2,1.3,40.4-1.7,60.6c-0.2,11.7-0.4,23.3-0.6,35
	c-0.1,5.6-0.3,11.2-0.3,16.8c0,3.8,0.4,7.6,2.4,11c21.5,16,43,32,64.4,48c1.8,1.3,2.7,1.6,4.6,0.2c13.7-10.5,27.5-20.9,41.2-31.3
	c7.9-6,15.7-12,23.6-18c1.9-5.6,0.1-11.3,0.7-16.9c-0.4-13.7-0.6-27.3-0.1-41c-0.1-17.4-0.2-34.9-0.2-52.3c0-4,0-8,0.5-12.2
	c0.9,3.8,1.8,7.5,2.6,11.3c2.1,9.8,4.4,19.3,10.8,27.5c2,2.5,3.5,5.6,4.3,8.9c1.6,0.9,3.6,1.4,4.7,2.7c7.4,8.4,16.5,14.6,24.8,21.9
	c13.1,11.5,26.5,22.7,40.1,33.8c4.9,4,10.8,7,14.4,12.5c0.6,0.5,1.3,0.9,1.8,1.5c4.4,4.7,5.3,5.7,2,7.6c15.8,3.8,32.9,8.1,49.6,5.1
	c-0.2-0.3-0.4-0.5-0.5-0.8C735,603.3,731.8,601.4,734.9,598.9z M574.1,451.2c-7.7-1-15.4,1.5-23.1-0.1c-1-0.1-2-0.1-3-0.2
	c-2.5,1.8-5.4,0.6-8.1,0.8c-2.2,0.1-2.1-1.6-2.1-3.2c0.1-4.5,0.5-8.9,0.3-13.4c-0.2-4.7,1.8-6.4,6.2-5.9c1.9,0.2,4-0.6,5.8,0.7
	c0.7,0.1,1.3,0.3,1.9,0.4c5.3-0.2,10.7-1,16-0.4c2.3-0.2,4.9-1.4,6,2c2.3,5.6,0.9,11.5,1.7,17.2
	C575.8,450.5,575.3,451.3,574.1,451.2z"/>
<path class="st0" d="M735.9,597.8L735.9,597.8C735.8,597.9,735.8,597.9,735.9,597.8L735.9,597.8z"/>
<path class="st0" d="M704.7,554.3L704.7,554.3C704.8,554.3,704.8,554.3,704.7,554.3L704.7,554.3z"/>
<path class="st0" d="M307.6,600.8l11.1-1.7c0.2-0.6,0.3-1.4,0.2-2.2c2,0.8,3.5,0.1,4.8-0.8l-20.3,0.5
	C302.6,599,306.1,599.4,307.6,600.8z"/>
<path class="st0" d="M729.9,563L729.9,563C730,563,730,563,729.9,563L729.9,563z"/>
<path class="st1" d="M537.5,367.1c-1.6-2.5-3.3-4.8-6.6-2.2c-2.1-0.8-2.8-2.8-3.8-4.6c1.3-0.8,1-1.7-0.2-2.1c-5.4-1.6-3.5-4-0.7-6.4
	c1.1-1,2.4-1.8,3.6-2.7c7.9-5.6,16-11,23.7-16.9c13.3-10.2,27.7-18.7,41.3-28.5c2.5,7.2,3.7,14.5,4.1,22.1
	c-14.7,10.1-30.3,18.8-45.6,28.1c-1.5,0.9-3.9,1.3-3.7,3.5c0.2,2.1,2.3,3.1,4.2,4c5.3,2.5,10.5,5.4,16,7.3c5.2,1.8,8.7,6.2,13.7,7.9
	c4.6,1.6,9,3.6,13.1,6c5.3,3.1,10,7,12.4,13c1.5,3.9,3.3,7.6,5,11.3c0.7,1.5,2,3.2,3.7,2.6c1.6-0.5,0.4-2.3,0.3-3.5
	c-0.8-5.9-1.8-11.8-2.7-17.7c-1.3-8.5-4.3-16.7-4.9-25.4c4.1-2.4,5.7,0.8,7.3,3.5c2.8,4.9,7.7,6.7,12.8,4.2c1.3-0.6,2.5-0.9,3.8-1
	c3.4,13.7,4.8,27.7,6.3,41.7c0.5,5.2,2.6,7.4,7.4,8.7c22.8,6.2,44.9,14.1,66.7,23.3c3,1.3,6,3.6,9.1,3.9c4,0.3,4-5.1,7.1-6.8
	c2.1,1.9,3,4.1,1,6.5c-2.7,3.1-1.7,5.5,1.1,7.5c2.7,1.9,7.5,0.2,8.7-3c2-5.3,5.6-8,11.4-7.6c-0.6,1.1-1.2,2.3-1.9,3.4
	c-2.1,3.4-8.7,4.8-7.3,8.4c1.2,2.9,7.2,3.8,11,5.6c0.3,0.1,0.7,0.1,1,0.1c8,4.7,16.8,7.9,25.2,11.9c13.1,6.3,26.4,12.3,38.8,20
	c1,0.6,2,1.2,2.8,2c0.7,0.6,0.5,1.6-0.1,2.3c-0.5,0.7-1,0.5-2,0.1c-13.6-5.8-27.2-11.8-40.9-17.2c-13.6-5.3-27.3-10.5-40.4-16.9
	c-3-1.5-4.2,0.6-5.7,2.4c-8,9.6-15.7,19.4-24,28.6c-6.8,7.5-12.7,15.7-20.2,22.5c-2,1.8-1.8,3.4-0.1,5c7.1,6.4,13,13.9,20.5,19.9
	c7,5.6,13.2,12.2,19.7,18.4c0.5,0.5,1.7,1.3,0.6,2.4c-5.6-0.2-11-2.5-16.8-1.3c-5.9,1.2-11.5,3-15.5,7.8c-1.1,1.2-2.9,2.6-0.8,4.5
	c-1.8,2-2.6,4.1-3,6.9c-1.1,8,3.3,12.5,9,16.7c-4.8-0.2-11.1-5.5-12.1-10.5c-2.2-10.4,3-21.6,12.6-27.5c1.5-0.9,3.6-1.2,3.7-3.5
	c0.2-1.7,0-1.9-2.3-1.8h0.1c-2.3-4.9-7.2-7-11-10.3c-1.7-1.5-2.9-4.4-6-3.7h-0.1c-2.9-6.9-8.2-11.2-14.8-14.3
	c-15-14.5-28-30.8-41.8-46.4c-2.4-2.7-4.4-5.8-5.7-9.2c3.8-2.5,4.4-5.8,2.4-9.8c-1.7-3.5-3.5-7.1-4.9-10.8
	c-6.4-15.9-10.5-32.5-18.9-47.7c-3.7-6.6-8-12.2-13.1-17.9c-0.1,5.3-1,5.9-5.2,3.5c-2.8-1.6-6.4-2.1-8.5-5c-1.6-2.2-4-2.3-6.5-2.8
	c-6.5-1.4-13.1-3.1-17.3-9.2C550.5,366.8,541.1,364.7,537.5,367.1z M645.1,425.8c-3.6-0.7-2.9,1.9-2.8,3.7
	c0.5,10.6,1.3,21.2,1.7,31.8c0.1,2.3,1.5,5.1-2.2,6.7c-1.7,0.8-0.9,3.3,0.4,4.8c9,10.3,17.8,20.9,27.7,30.4c1.9,1.9,3.5,2.6,5.6,0
	c2.5-3,5.5-5.7,8.2-8.6c11.7-12.6,22.2-26.4,34.7-38.4c1.7-1.6,1-2.5-0.8-3.1c-1.4-0.5-2.7-1.2-4.1-1.8c-12.6-5-25.2-10.2-38-15
	C665.5,432.5,655.2,429.2,645.1,425.8z"/>
<path class="st2" d="M244,680c-6.5,13.9-12.1,28.2-12.9,43.6c-0.8,15.1,2.4,29,16.5,37.6c10.4,6.3,22,7,33.8,5.9
	c15.6-1.5,30.5-6.3,45.2-11.6c1.1-0.4,2.2-0.5,3.4-0.7c1.3,4,1.3,9.2,4.7,11.7c4.3,3.3,4.4,6.8,3.4,11.2
	c-17,8.1-34.6,14.5-52.7,19.5c-12.8,3.5-25.7,4.9-38.6,3.5c-10.4-1.2-20.3-5.2-29.1-11.8c-12.6-9.5-19.6-21.9-22.2-37.2
	c-3-17.4-0.3-34,6.3-50.2c0.7-1.8,1.2-3.6,1.8-5.4c0.2-0.3,0.5-0.6,0.7-0.8c0.5-2.1,0.9-4.3,2.2-6.2c0.3-0.3,0.5-0.6,0.8-0.9
	c3.7-8.4,8.2-16.4,13.2-24.1c0.3-0.3,0.5-0.6,0.8-0.9c0.7-2.7,2.5-4.8,4.1-7.1c5.2,1.4,9.3,5.2,14.2,7.2c1.7,0.7,2.3,2.4,2.8,4.3
	C243.1,671.6,242.3,676,244,680z"/>
<path class="st2" d="M707,247.1c20-8.4,40.4-15,62.4-14.9c21.3,0.1,39.1,8.2,52.2,25.2c5.2,6.8,7.8,14.9,9.1,23.2
	c3.2,20.1,0.8,39.8-7.8,58.2c-7.7,16.4-15.5,32.8-26.8,47.3c-8.9-0.7-12.2-3.4-14.2-12c-0.8-3.2-1.5-6.1-5.2-7.1
	c8.8-18.4,17.5-36.9,19-57.7c1.4-19.8-7.5-34.1-25.5-40.9c-9.5-3.6-19.3-3-29-2.3c-10,0.8-19.3,4.7-29.1,6.5
	c-0.9-5.3-1-10.8-7.6-13.1c-2.5-0.9-2-3.7-0.1-5.3C706.6,252.3,707.3,249.9,707,247.1z"/>
<path class="st2" d="M211.1,355c-3.4-2.5-2.8-7-5.1-10.1c-0.2-0.3-0.4-0.6-0.7-0.9c-0.8-2.1-1.5-4.1-2.3-6.2
	c-0.2-0.3-0.5-0.5-0.7-0.8c-0.1-0.7-0.2-1.4-0.3-2.1c-0.2-0.3-0.4-0.6-0.7-0.9c-0.1-0.7-0.2-1.4-0.3-2.1c-0.2-0.3-0.5-0.6-0.7-0.9
	c-0.4-1.4-0.9-2.7-1.3-4.1c-0.2-0.3-0.5-0.6-0.7-0.9c-0.1-1-0.2-2.1-0.3-3.1c-0.2-0.3-0.4-0.6-0.6-0.9c-0.1-1.4-0.3-2.7-0.4-4.1
	c-0.2-0.3-0.4-0.6-0.7-0.9c-0.1-1-0.2-2.1-0.3-3.1c-0.2-0.3-0.4-0.6-0.6-0.9c-2.1-8.8-1.7-17.8-1.1-26.6c0.6-9.2,3.6-18.2,8.2-26.3
	c4.6-8.1,11.6-14.6,19.2-19.3c6.7-4.1,14.7-6.7,22.9-7.7c19.5-2.4,38,1.1,56.4,7.4c10.8,3.7,21.4,7.6,32,11.7
	c-0.3,3.2,0.5,6.3,1.5,9.2c2.3,6.5,2.4,6.2-4.8,7.7c-3.3,0.7-8.1,0-8.9,5.4c-1.3-0.3-2.6-0.6-3.8-1c-15.7-5-31.5-9.3-48.2-7.8
	c-18.6,1.6-33.7,10.9-36.9,30.2c-1.4,8.7-1.2,17.4,0.6,26.1c1.9,9.5,5.3,18.5,8.8,27.4c-6.3,1.1-6.3,5.4-5.4,10.4
	c0.3,1.7,0.5,3.8-1.6,4.8s-3.9-0.1-5.4-1.4C223.7,359,218.1,355.6,211.1,355z"/>
<path class="st2" d="M712.1,760.1c13.5,3.5,26.9,7.3,41.1,7.4c11.5,0.1,22.3-2.1,30.8-10.3c9.9-9.7,13-21.9,11.6-35.5
	c-0.9-8.8-3.7-17.2-6-25.6c4.6-2.3,3.9-5.8,2.4-9.6c-1.9-4.7-3.7-9.5-5.4-14.3c-1-2.9,1.4-8.3,3.5-8c3.3,0.5,7.1-0.2,9.8,2.3
	c2.5,2.3,5.1,2.7,8.1,1.5c13.9,22.1,24.3,45.3,24,72.2c-0.3,25.3-11.7,43.1-34.2,54.3c-10.1,5.1-20.7,6.2-31.8,6.4
	c-11.9,0.2-23.2-2.8-34.5-6c-8-2.3-15.7-5.7-23.5-8.4c0-2-0.2-3.8-1.4-5.6c-5.1-8-3.8-13.6,4.1-18.8
	C711.3,761.6,711.6,760.8,712.1,760.1z"/>
<path class="st2" d="M579.6,185.1c0.3,4.1,3.7,6.9,4,11c-3.4-0.4-6.1,0.6-6.5,4.3c-0.4,4.8-3.4,5-7,4.7c-2.7-0.2-4.3-2.1-6.4-3.5
	c-2.6-1.8-5.2-5.4-8.9-1.4c-0.8-1.1-1.6-2.1-2.3-3.2c-7.3-12.6-16.3-23.7-28.8-31.6c-6.5-4.1-12.9-4.9-20.1-1.3
	c-10,4.9-16.6,13.3-23.9,21c-8.5,3.1-14.7,8.5-17.7,17.2c-0.5,1.6-0.5,3.2-2.6,3.8c-7.8,2.2-12.8-2.2-11.1-9.9
	c0.9-4.1,0.9-7.9-2.3-11c0-2.9,3.7-4,3.3-7.1c0.2-0.3,0.4-0.6,0.6-0.8c4.3-9.4,10.4-17.7,15.9-26.5c5-8,11.4-14.5,18.4-20.3
	c16.6-13.8,40.4-12.9,56.9,0.5c10.3,8.3,17.1,19.1,24.4,29.6c4.8,6.8,8.4,14.3,12.4,21.6C577.9,183.4,577.8,184.8,579.6,185.1z"/>
<path class="st2" d="M485.2,901.9c-5.4-2.4-8.7-7.3-12.4-11.4c-1.8-1.9-4.3-3.7-4.7-6.7c-0.1-4.8-1.3-8.9-4.2-13
	c-3.7-5.2-6-11.3-8.9-17c-1.4-2.7-1.2-5.2,0.5-7.5c1.6-2.2,3.8-1.5,5.9-0.8c1.5,0.5,3,0.4,4.3-0.5c3.2-2.1,6.8-2.4,10.5-2.2
	c1.9,1.4,3.1,3.4,4.4,5.3c5.4,8.2,12.2,14.9,21.1,19.3c8,3.9,15.8,3.9,23.7-0.9c11.9-7.1,20.1-17.5,27.2-29.1
	c5.9-9.6,10-20.2,16.2-29.7c2.3,1.2,4.7,1.5,7.2,0.7c6.5-2.1,7.8-1.1,8.2,6c0.3,4-1.2,7.8-1.1,11.8c0,2.8,0.9,4,3.7,3.7
	c-3.6,12.6-9.9,23.8-16.6,34.9c-6,10-12.3,19.8-20.1,28.6c-5.1,5.8-11.6,9.8-18.4,13.5c-7.9,4.2-16.3,5-25,4.9
	c-2.1,0-3.5-1.9-5.6-1.4c-0.1-0.3-0.4-0.5-0.8-0.6c-0.7-0.1-1.5-0.3-2.2-0.4c-0.1-1-0.4-1.9-1.7-1.3c-0.8,0.3-1.7,0.8-2.3-0.5
	c-0.3-0.3-0.6-0.6-0.9-0.9c-1.4-0.7-2.8-1.3-4.1-2c0-1.8-1.2-2.1-2.6-2.2l-0.3-0.1C485.8,902.4,485.5,902.2,485.2,901.9z"/>
<path class="st3" d="M363,266.2c8.2,2.7,15.2,7.6,22.7,11.6c7.3,3.9,14.8,7.2,21.5,12.2c2.5,1.9,3.2,0.9,3.7-1.7
	c2.2-11,6.1-21.6,8-32.8c0.2-1.1,0.6-2.9,2.3-3.4c2.2,0.1,3.5-0.5,4.1-3.1c0.6-2.4,2.7-4.1,5.6-4c1.3,0.1,2.8,0,3,1.8
	c0.5,5.1,3.7,3.3,6,2.1c2.7-1.4,4.5-3.6,5.5-6.7c0.9-2.7,1.8-6.1,6.1-5c-0.8,2.2-1.5,4.4-2.3,6.6c-7,18.8-13.3,37.8-19.2,57
	c-2.3,7.8-5.2,15.5-5.2,23.9c-2.1,1-1.7,3.1-2,4.8c-2.9,13.5-5.6,27-8.5,40.5c-3.8-0.4-7.1,0.6-9.7,3.7c-0.9,1.1-2.4,2-3.4,0.9
	c-3-3.1-6.4-1.5-9.7-1.5c0.1-1.3,0-2.7,0.3-4c4-17.2,5.9-34.9,10.7-52c1-3.4,0-5-3.1-6.6c-14.6-7.3-28.6-15.9-43.6-22.5
	c10.9-8.3,10.9-8.3,7.1-20.4C363,267.2,363,266.7,363,266.2z"/>
<path class="st3" d="M355.9,743.7c13.9-7,27.9-13.9,41.4-21.6c4.4-2.5,5.2-4.9,4-9.4c-4.6-17.7-6.7-35.9-10.5-53.7
	c-0.1-0.6,0-1.3,0.1-2c3,0.3,3-4,5.8-4c4.3,0,7.5,1.7,9.7,5.6c1.9,3.4,3.9,6.9,8.5,7.4c1.4,4.6,2,9.3,3.1,13.9
	c2.1,8.8,2,18.2,6,26.5c3.5,6.5,4.3,13.8,6.1,20.7c-0.7,1.5-0.3,2.9,0.1,4.4c1.9,6.3,4,12.6,5.8,19c1.9,6.8,4.9,13.3,6.1,20.4
	c-4.9,0.6-7.2-3.4-10.1-6.1c-1.1-1-1.6-2.8-3.4-2.4c-1.6,0.4-2,2.1-2.5,3.5c-0.5,1.6-1.2,3.2-1.1,4.8c0.3,4.5-1.6,5.7-5.6,4.2
	c-2.1-6.9-4.4-13.8-6.4-20.7c-1.3-4.5-1.9-9.1-3.9-13.3c-0.1-0.3-0.3-0.5-0.4-0.8c-0.3,0.3-0.6,0.5-0.9,0.8
	c-7.7,4.6-15.5,9.2-23.2,13.7c-6.8,3.9-13.3,8.2-20.7,11.1c0.8-5.4-0.5-9.8-5.5-12.7c-2-1.1-2.8-3-2.1-5.1
	C356.7,746.4,356.7,745.1,355.9,743.7z"/>
<path class="st3" d="M599,326c-0.3-7.5-1.6-15-4.1-22.1c0.9-2.1,0.3-4.2-0.3-6.3c-1.4-5.1-2.8-10.2-4.2-15.3
	c4.6-0.7,7.3-5.1,11.7-6.1c0.3-0.1,0.7-0.8,0.7-1.2c0.5-4.5,3.7-4.9,7.1-4.9c2.8,5.4,3.7,11.5,5.9,17.1c0.5,1.2,0,4.2,3.1,2.9
	c5.5-3.3,11.4-5.9,16.4-9.9c11.8-4.8,22.2-12.1,33.7-17.5c1.6-0.7,3-1.9,4.9-1.6c-0.2,3.3,1.2,6.9-3.4,8.9c-2.6,1.1-7.3,1.5-6.3,5.7
	c1.1,4.5,5.6,2.2,8.6,2.4c4.3,0.2,7,1.8,7.2,6.4c-18.4,7.5-35.9,17-53.3,26.6c-2.8,1.6-3.6,2.8-2.8,6.5c4,17.4,8.2,34.8,10.3,52.6
	c-1.3,0.1-2.5,0.4-3.8,1c-5.2,2.5-10,0.8-12.8-4.2c-1.5-2.7-3.2-5.9-7.3-3.5c-2.3-11.5-4.6-23-7-34.5C603,326.3,602.5,323.6,599,326
	z"/>
<path class="st3" d="M628.7,694c-1.3,7-2.5,14-3.9,21c-0.6,2.9,0,4.7,2.7,6.4c13.5,8.8,28.6,14.5,42.5,22.3c-0.2,2.5-1.7,3.4-4,3.3
	c-2.5-0.1-5,0-7.4-0.3c-1.2-0.1-2.3-0.7-3.1,0.5s-1,2.8,0.1,3.7c4.1,3.4,5.3,9.3,10.2,12c2.8,1.5,3.5,3.7,3.2,6.6
	c-12.5-4.9-23.7-12.2-35.4-18.5c-4.7-2.5-8.7-6.1-13.4-8.8c-3.7-2.2-4.7-0.5-5.3,2.5c-2.3,11.1-5.9,21.9-9.2,32.8
	c-1.3,4.2-3,8.3-3.8,12.6c-1.6-2.5-2.5-5-1.3-7.9c0.8-1.9,0-3.3-1.4-4.3c-2.8-2.2-3.3-5-3.2-8.3c0.1-5.6-1.2-6.4-6.7-4.6
	c-1.1,0.3-2.3,0.2-3.4,0.2c3.5-12,6.9-24,10.4-35.9c2-2.7,0.1-5.1-0.5-7.5c-0.6-2.3-1.5-4.8,1.1-6.2c4.1-2.2,4.7-5.7,4.3-9.7
	c2.8,0.2,2.4-2.2,2.7-3.7c1-4.3,1.8-8.6,2.7-12.9c6.9,0.3,14.6-3,19.9,4.6C626.7,694,627.9,693.8,628.7,694z"/>
<path class="st1" d="M363.4,516.2c-11.6,13-24.5,24.7-37.4,36.2c-3.3,3-9.6,6-14.2,6.7c-3.7,0.6-7.4,1.2-11.1,1.8
	c1-8,7.4-11.9,12.9-16.3c8.8-7.1,15.8-16.1,24.6-23.2c2.2-1.8,0.3-3.3-0.9-4.5c-7.2-7.4-13.3-15.7-20.4-23.1
	c-6.2-6.4-11.4-13.8-17-20.8c6.6-1,8.4-7.9,13.2-11.1c2.6,1.3,4.6,3.2,6.4,5.4c10.4,12.5,21.6,24.3,32.5,36.4c1.6,1.8,2.8,1.8,4,0.2
	c3.4-5,8.7-8.1,12.3-12.9c5-6.6,10.6-12.8,15.9-19.1c0.4,3.2,3.8,6,2,9.5c-2,3.9-3.6,8.2-7.2,11.1c-5.7,4.6-7.8,11.8-12.8,16.8
	c-1.3,1.3-0.6,2.4-0.1,3.6c-0.3,0.3-0.5,0.7-0.8,1c-0.9,0-2.1-0.3-2.6,0.7C362.2,515.4,362.9,515.9,363.4,516.2z"/>
<path class="st4" d="M419.5,775c4,1.5,5.9,0.3,5.6-4.2c-0.1-1.6,0.6-3.3,1.1-4.8c0.5-1.4,0.8-3.2,2.5-3.5c1.8-0.4,2.3,1.5,3.4,2.4
	c3,2.7,5.2,6.6,10.1,6.1c0.3,0.6,0.6,1.2,0.9,1.8c5.7,15.5,11.4,31,19.5,45.5c4.6,8.2,9.1,16.5,13.6,24.7c-3.7-0.2-7.3,0.1-10.5,2.2
	c-1.3,0.9-2.8,1-4.3,0.5c-2.1-0.8-4.3-1.4-5.9,0.8c-1.7,2.3-1.9,4.8-0.5,7.5c3,5.7,5.3,11.8,8.9,17c2.9,4.1,4.1,8.2,4.2,13
	c-7.7-9.7-14.3-20-19.5-31.4c-7.6-16.5-14.4-33.4-20.6-50.5C424.6,793.1,421.4,784.2,419.5,775z"/>
<path class="st2" d="M686.7,837.1c-1.5,15.8-11,24.8-26.2,25.2c-12.7,0.3-24.3-9.8-24.5-26.7c-0.2-14.5,11.8-25.3,27.5-24.1
	C675.3,812.5,686.7,821.3,686.7,837.1z"/>
<path class="st2" d="M173.4,542.9c-0.4-0.2-0.9-0.4-1.3-0.5c-0.4-1.6-1.7-1.4-2.9-1.4c-1-0.4-1.7-1.1-2.1-2.1
	c2.2-5.2-1.2-5.6-4.9-5.9c-5.7-8.1-5.9-18.9-0.2-27.4c5.8-8.7,14.3-11.9,24.6-10.9c4.4,0.4,8.1,2.7,12.2,3.9
	c0.5,0.9,1.2,1.5,2.2,1.7c3.1,4.3,6.6,8.5,7.3,13.9c2.4,18.3-7.6,30.6-27.1,30.6c-1.3,0-2.7-0.2-4-0.3
	C176.5,542.6,174.9,543,173.4,542.9z"/>
<path class="st2" d="M636,199.7c1-15.1,7.9-24.6,26.9-24.6c10,0,24.3,8.5,23.9,25c-0.3,13.2-12,25-25,25
	C647.1,225.1,635.9,214.1,636,199.7z"/>
<path class="st2" d="M842.6,544.8c-14.1,0.8-24.3-12.4-23.6-24.6c0.9-16.5,7.3-25,22.8-25.7c14-0.6,26.6,10.5,27.3,23.8
	C869.8,533.3,857,545.2,842.6,544.8z"/>
<path class="st2" d="M362.9,811.9c14.3-1.3,26.3,11.5,25.8,25.2c-0.5,14.2-9.4,24.9-29.4,24.8c-9.8,0-22-13.9-21.1-25.5
	C339.2,823.4,345.4,811.9,362.9,811.9z"/>
<path class="st2" d="M363.6,224.1c-18,0.1-24.6-11.2-25.1-23.8c-0.7-15.7,10.8-25.7,26.5-25.4c11.9,0.2,25.7,13.5,24.5,24.4
	C387.8,214,379.5,224.4,363.6,224.1z"/>
<path class="st4" d="M609.9,270c-3.5,0-6.7,0.4-7.1,4.9c0,0.4-0.4,1.1-0.7,1.2c-4.4,1-7.1,5.4-11.7,6.1c-2.4-6.9-4.7-13.8-7.1-20.8
	c-7.4-21.4-18.3-41.2-28.4-61.4c3.6-3.9,6.3-0.4,8.9,1.4c2,1.4,3.7,3.3,6.4,3.5c3.6,0.3,6.6,0.1,7-4.7c0.3-3.7,3-4.8,6.5-4.3
	c5.5,10.9,9,22.5,13.4,33.8c2.7,7,5.2,14.2,7.7,21.3c-1.2,1-0.5,1.5,0.4,2c0.3,0,0.5,0.1,0.8,0.2v-0.1c0,1.3,0,2.5,0,3.8
	c-3.1,4-1.5,8.5,3.6,10C609.7,268.1,609.8,269.1,609.9,270z"/>
<path class="st4" d="M211.1,355c6.9,0.6,12.6,4,17.8,8.3c1.6,1.3,3.4,2.4,5.4,1.4c2.1-1,1.9-3.1,1.6-4.8c-0.9-5-1-9.3,5.4-10.4
	c0.4,0.5,0.8,1,1.1,1.6c5.8,13.8,13.1,26.7,20.6,39.6c3.8,6.6,8.7,12.4,12,19.3c-1.2,1.4-2.3,2.8-3.6,4.1c-6.3,6.4-9.1,6.8-15.8,0.8
	c-2.8-2.5-5.7-4.2-9.4-4.9c-12.9-16.7-24.4-34.2-34.5-52.7C211.4,356.5,211.1,355.8,211.1,355z"/>
<path class="st4" d="M451.6,237.3c-4.3-1.1-5.1,2.3-6.1,5c-1.1,3-2.9,5.3-5.5,6.7c-2.4,1.2-5.6,3.1-6-2.1c-0.2-1.9-1.6-1.8-3-1.8
	c-2.9-0.1-5,1.6-5.6,4c-0.6,2.6-1.9,3.2-4.1,3.1c0.8-7.2,4.2-13.6,6.4-20.4c3.1-9.7,6.7-19.2,10.7-28.5c2.6-6.1,5.5-12,7.9-18.1
	c3.3,3.1,3.3,6.9,2.3,11c-1.8,7.7,3.3,12.1,11.1,9.9c2.1-0.6,2.1-2.2,2.6-3.8c3-8.7,9.2-14.1,17.7-17.2c-0.5,3.7-3.6,5.8-5.3,8.8
	C466.7,208.3,458.6,222.5,451.6,237.3z"/>
<path class="st3" d="M246.3,410c3.6,0.7,6.5,2.4,9.4,4.9c6.6,6,9.5,5.6,15.8-0.8c1.3-1.3,2.4-2.7,3.6-4.1
	c8.2,11.5,16.5,23,24.5,34.7c1.6,2.3,3.1,2.6,5.3,1.9c0.5,1.3,1,2.5,0.5,4.1c-0.7,2.2,0.6,3.2,2.7,3.4c0.7,3.3,3.4,5.3,4.9,8
	c-4.8,3.2-6.6,10.1-13.2,11.1c-3-3.3-6-6.6-9.1-9.9c-2.1-3.2-4.7-5.5-8.7-5.7c1.3-1.1,2.4-2,0.5-3.7c-3-2.8-5.7-5.9-8.5-8.8
	c-0.3-0.4-0.5-0.7-0.8-1c-0.6-1.5-1.5-2.7-3.1-3.3c-4.3-5.1-8.9-10-12.9-15.3C253.5,420.3,249.1,415.7,246.3,410z"/>
<path class="st4" d="M669,769.4c0.3-2.8-0.4-5-3.2-6.6c-4.8-2.7-6.1-8.5-10.2-12c-1.1-0.9-0.9-2.5-0.1-3.7c0.8-1.2,1.9-0.7,3.1-0.5
	c2.5,0.3,4.9,0.2,7.4,0.3c2.3,0.1,3.8-0.8,4-3.3c11.1,3.8,21.5,9.6,32.7,13c3.2,1,6.2,2.3,9.3,3.4c-0.5,0.6-0.8,1.5-1.5,1.9
	c-7.8,5.2-9.2,10.9-4.1,18.8c1.2,1.8,1.4,3.6,1.4,5.6C694.9,781,681.1,777,669,769.4z"/>
<path class="st4" d="M808,668c-3,1.2-5.6,0.8-8.1-1.5c-2.7-2.5-6.5-1.8-9.8-2.3c-2.1-0.3-4.4,5.1-3.5,8c1.6,4.8,3.5,9.6,5.4,14.3
	c1.5,3.8,2.2,7.4-2.4,9.6c-6.2-15.6-14.2-30.3-22.2-45c1.8-0.1,2.6-1,2.6-2.9c0-2-0.3-3.9-1.2-5.7c-4.5-9.7-1.4-14.6,9.3-14.6
	c1,0,2,0,3,0C791.3,640.4,800.5,653.6,808,668z"/>
<path class="st3" d="M735.8,597.9L735.8,597.9C735.8,597.8,735.9,597.8,735.8,597.9L735.8,597.9z"/>
<path class="st3" d="M778,628c1,0,2,0,3,0c-8.9-13.1-18.4-25.8-30.3-36.3c-1.6-1.4-3.3-2.8-5.8-2.4c-2.1,3.9-3.5,8.4-9.1,8.6
	c-0.3,0.4-0.7,0.7-1,1.1c-3.1,2.5,0.1,4.4,1.1,5.8c0.2,0.3,0.4,0.5,0.6,0.8c2.2-0.4,4.4-0.9,6.5-1.5c-2.2,0.7-4.3,1.2-6.5,1.5
	c10.7,14.9,20.8,30.2,30.9,45.6c1.8-0.1,2.6-1,2.6-2.9c0-2-0.3-3.9-1.2-5.7C764.3,632.8,767.4,628,778,628z"/>
<path class="st3" d="M292.9,597.6c2.6,2.1,0.2,4-0.9,5.6"/>
<path class="st3" d="M292,603.2c-8.6,12.3-17.4,24.5-26,36.8c-1.6-0.6-1.6-2.8-2.8-3.3c-3.3-1.5-3.2-8.2-8.9-5.8
	c-1.5,0.6-3.2,2-4.6,0.5c-1.5-1.5,0.7-3,0.8-4.5c0.1-1.7,3.3-4-0.8-5c4.8-7.4,10.2-14.3,16.2-20.8c1.8-1.9,3.5-3.8,5.3-5.7
	c5.2-2.5,8.6-7.6,14.3-10.4c1.6,5,3.5,9.4,7.4,12.6"/>
<path class="st3" d="M752.9,444c-5.7-0.4-9.3,2.3-11.4,7.6c-1.2,3.1-5.9,4.8-8.7,3c-2.8-1.9-3.8-4.4-1.1-7.5c2-2.3,1.1-4.6-1-6.5
	c4.7-7.1,9.4-14.2,14.2-21.2c4.2-6.2,8.5-12.4,12.8-18.5c2.4,0,4.2,0.7,4.2,3.5c0,1.4,0.6,2.4,1.6,3.4c3.9,3.9,8.3,6.3,14,5.1
	c-4.1,7.6-9.9,14-15.3,20.6c-1.6,1.9-3.4,3.6-4.4,5.9C756.2,441,754.5,442.5,752.9,444z"/>
<path class="st4" d="M585.8,764.9c1.2-0.1,2.4,0.1,3.4-0.2c5.5-1.8,6.9-1,6.7,4.6c-0.1,3.3,0.4,6.2,3.2,8.3c1.4,1,2.2,2.4,1.4,4.3
	c-1.2,2.9-0.2,5.5,1.3,7.9c-4,10.7-8.7,21.1-11.1,32.3c-0.6,2.8-2.7,5.2-4.2,7.7c-2.8,0.3-3.7-1-3.7-3.7c-0.1-4,1.4-7.7,1.1-11.8
	c-0.5-7-1.8-8.1-8.2-6c-2.5,0.8-4.9,0.5-7.2-0.7c2.2-6.5,5.1-12.8,8.3-18.9c3.3,0.4,5.9-0.2,6.6-4.2c0.7-3.8,3.8-7.8-1.2-11
	C582.8,770.5,584.2,767.7,585.8,764.9z"/>
<path class="st4" d="M249.7,621.8c4.1,1,0.9,3.3,0.8,5c-0.1,1.5-2.3,3-0.8,4.5c1.4,1.5,3.1,0.1,4.6-0.5c5.7-2.4,5.6,4.3,8.9,5.8
	c1.1,0.5,1.2,2.7,2.8,3.3c-8,13-15.2,26.4-22,40c-1.7-4-0.9-8.3-1.9-12.4c-0.4-1.9-1-3.6-2.8-4.3c-4.9-2-9-5.8-14.2-7.2
	C232.4,644,240.1,632.2,249.7,621.8z"/>
<path class="st4" d="M680,284.3c-0.2-4.6-2.8-6.1-7.2-6.4c-3-0.2-7.5,2.2-8.6-2.4c-1-4.2,3.7-4.6,6.3-5.7c4.5-2,3.2-5.6,3.4-8.9
	c10.8-5.3,21.5-10.4,33-13.8c0.3,2.8-0.4,5.1-2.6,7.1c-1.9,1.6-2.4,4.5,0.1,5.3c6.6,2.3,6.8,7.8,7.6,13.1
	C701.4,276.5,690.7,280.4,680,284.3z"/>
<path class="st4" d="M777.6,413c-5.7,1.1-10.1-1.3-14-5.1c-1-1-1.7-2-1.6-3.4c0-2.9-1.8-3.6-4.2-3.5c6-11.5,13.5-22.2,19-34
	c3.7,1,4.5,3.9,5.2,7.1c2,8.6,5.3,11.3,14.2,12C790.8,395.7,784.7,404.7,777.6,413z"/>
<path class="st4" d="M363,266.2c0,0.5,0,1,0.1,1.5c3.7,12.1,3.7,12.1-7.1,20.4c-11.7-4.5-23.4-8.9-35.1-13.4
	c0.7-5.4,5.5-4.7,8.9-5.4c7.2-1.6,7-1.2,4.8-7.7c-1-2.9-1.8-6-1.5-9.2C343,257,353.5,260.5,363,266.2z"/>
<path class="st1" d="M282,457.5c4,0.2,6.7,2.5,8.7,5.7c-23.8,8.8-46.6,20.1-70.4,28.9c-6,2.2-12.2,3.9-18.3,5.8
	c-0.6-0.3-1.1-0.6-1.7-0.9c6.2-5.2,13.7-8.1,20.7-11.9c3.3-1.8,7.1-2.6,10.1-4.9C248.3,473.2,264.5,463.9,282,457.5z"/>
<path class="st4" d="M355.9,743.7c0.8,1.4,0.8,2.7,0.3,4.3c-0.6,2.1,0.2,4,2.1,5.1c5.1,2.8,6.3,7.3,5.5,12.7
	c-8.6,4.2-16.7,9.2-26,11.9c1-4.4,0.9-7.9-3.4-11.2c-3.4-2.6-3.4-7.7-4.7-11.7C338.6,751,347.3,747.4,355.9,743.7z"/>
<path class="st1" d="M744.9,589.3c-2.1,3.9-3.5,8.4-9.1,8.6c6.4-6.3,7.6-14,6.4-22.5c-0.2-1.5-0.4-2.9-0.6-4.4
	c26.5-10.4,53.7-18.9,79.9-30.2c0.2,0.4,0.4,0.9,0.7,1.3c-5.8,3.1-11.5,6.2-17.3,9.3c-9.7,5.3-19.9,9.5-29.9,13.9
	c-8.4,3.8-17,7-25.3,11c-1.2,0.6-2.3,1.3-3.1,2.3c-3.3,1.7-1.5,4.7-1.8,7.2C744,587.1,743.9,588.2,744.9,589.3z"/>
<path class="st1" d="M287,571c-0.2,3.9-1.1,5.9-5.8,3.7c-4-1.9-8.7-2.5-13.1-3.7c-9.1-2.7-17.3-7.9-26.5-10.2
	c-2.9-1.8-5.9-3.4-9.4-4.1c-0.7-1-1.9-1-2.9-1.2c-4.6-2.4-9.2-4.8-14.2-6.5c-2-2.2-5.1-2.3-7.4-4c0-0.6,0-1.3,0-1.9
	c17.5,5.8,35,11.6,52.4,17.6C269.2,563.8,278.7,566,287,571z"/>
<path class="st0" d="M215.1,549c4.9,1.7,9.6,4.1,14.2,6.5c-0.1,0.1-0.1,0.4-0.3,0.4"/>
<path class="st3" d="M609.6,267.1c-5-1.5-6.7-6.1-3.6-10C608.3,260,608.6,263.6,609.6,267.1z"/>
<path class="st3" d="M162.2,533c3.7,0.2,7.1,0.7,4.9,5.9C163.9,538.2,163,535.7,162.2,533z"/>
<path class="st3" d="M173.4,542.9c1.5,0,3.1-0.3,3.8,1.6C175.3,545.5,174.3,544.2,173.4,542.9z"/>
<path class="st3" d="M169.2,541c1.2,0,2.5-0.2,2.9,1.4C170.5,543.1,169.7,542.4,169.2,541z"/>
<path class="st4" d="M579.6,185.1c-1.8-0.3-1.6-1.7-1.6-2.9C579.2,182.8,580,183.6,579.6,185.1z"/>
<path class="st4" d="M486.4,902.8c1.4,0,2.6,0.4,2.6,2.2C487.6,904.8,486.6,904.3,486.4,902.8z"/>
<path class="st3" d="M605.2,253.2c-0.9-0.5-1.6-1.1-0.4-2C605.9,251.6,605.7,252.4,605.2,253.2z"/>
<path class="st4" d="M496.3,908.3c1.3-0.6,1.6,0.2,1.7,1.3C496.8,910,496.3,909.4,496.3,908.3z"/>
<path class="st4" d="M195.5,313.1c0.2,0.3,0.4,0.6,0.6,0.9C195.5,313.9,195,313.8,195.5,313.1z"/>
<path class="st4" d="M221.1,663.1c-0.3,0.3-0.5,0.6-0.8,0.9C220.1,663.3,220.5,663,221.1,663.1z"/>
<path class="st4" d="M205.4,344.1c0.2,0.3,0.4,0.6,0.7,0.9C205.5,344.9,205,344.8,205.4,344.1z"/>
<path class="st4" d="M207.1,688c-0.3,0.3-0.5,0.6-0.8,0.9C206.1,688.2,206.4,688,207.1,688z"/>
<path class="st3" d="M606,253.3v0.1l0.1,0.3L606,253.3z"/>
<path class="st4" d="M204.1,695.1c-0.2,0.3-0.5,0.6-0.7,0.8C203.1,695.2,203.5,695.1,204.1,695.1z"/>
<path class="st0" d="M407.8,740.9c0.3-0.3,0.6-0.5,0.9-0.8c0.1,0.3,0.3,0.5,0.4,0.8C408.7,740.9,408.3,740.9,407.8,740.9z"/>
<path class="st4" d="M202.4,337.1c0.2,0.3,0.5,0.5,0.7,0.8C202.5,337.9,202.1,337.8,202.4,337.1z"/>
<path class="st4" d="M450,177.2c-0.2,0.3-0.4,0.6-0.6,0.8C449,177.3,449.5,177.2,450,177.2z"/>
<path class="st4" d="M201.4,334.1c0.2,0.3,0.4,0.6,0.7,0.9C201.5,334.9,201,334.8,201.4,334.1z"/>
<path class="st4" d="M200.4,331.1c0.2,0.3,0.5,0.6,0.7,0.9C200.5,331.9,200.1,331.8,200.4,331.1z"/>
<path class="st4" d="M485.2,901.9c0.3,0.3,0.6,0.5,0.9,0.8C485.4,902.9,485.1,902.6,485.2,901.9z"/>
<path class="st1" d="M731.5,563c-0.5,0.9-1,1.5-1.5,0C730.4,562.5,730.9,562.5,731.5,563z"/>
<path class="st4" d="M493.1,906.9c0.3,0.3,0.6,0.6,0.9,0.9C493.3,907.9,493.1,907.6,493.1,906.9z"/>
<path class="st4" d="M197.5,322.1c0.2,0.3,0.4,0.6,0.6,0.9C197.5,322.9,197,322.8,197.5,322.1z"/>
<path class="st4" d="M500.2,909.9c0.4,0.1,0.6,0.3,0.8,0.6C500.2,910.9,500.2,910.4,500.2,909.9z"/>
<path class="st4" d="M196.4,317.1c0.2,0.3,0.4,0.6,0.7,0.9C196.5,317.9,196,317.8,196.4,317.1z"/>
<path class="st4" d="M198.4,326.1c0.2,0.3,0.5,0.6,0.7,0.9C198.5,326.9,198,326.8,198.4,326.1z"/>
<path class="st1" d="M416,554.9C416,555,416,555,416,554.9C416,555.1,416,555,416,554.9L416,554.9z"/>
<path class="st1" d="M370.2,592.2c-0.1,0.1-0.1,0.3-0.2,0.4C370.1,592.5,370.2,592.4,370.2,592.2L370.2,592.2z"/>
<path class="st1" d="M683,591L683,591C683,591,683,590.9,683,591C683,590.9,683,590.9,683,591z"/>
<path class="st1" d="M684.8,592.5c-0.5-0.6-1.2-1-1.8-1.5h-0.1c-0.2,1.7,0.4,3.6-2.2,4.6c-12.9,5.1-25.6,10.9-39,17.7
	c0.6-7.4,1.1-13.8,1.6-20.3c0.5-6.3,0.8-12.6,1.3-18.9c0.1-1.4,0.2-2.7-1.2-3.5c-1.6-0.9-3.2-0.6-4.7,0.4
	c-6.7,4.4-11.3,10.2-13,18.2c-2,9.2-4.2,18.4-6,27.7c-0.7,3.7-2.4,5.7-5.9,7.1c-21.5,8.9-43.7,15.9-65.6,23.5
	c-1.8,0.6-3.8,1.8-6.9,0.3c12.8-6.9,23.3-16,34.1-24.5c12.3-9.8,25-19.1,36.7-29.8c2.1-2,4.5-6.6,8.6-1.8c1.1,1.3,2.5-0.5,2.7-1.8
	c2-11.1,12.5-16.9,16.6-26.7c0.9-2.2,2.4-1.5,3.9-0.3c9.7,7.5,19.5,15,29.3,22.3c3,2.2,5.4,5.5,9.5,5.9c0,0,0,0,0-0.1
	c0,0,0.1,0,0.1,0.1l0,0c-3.7-5.5-9.5-8.5-14.5-12.6c-13.5-11-27-22.2-40.1-33.8c-8.3-7.3-17.5-13.5-24.8-21.9
	c-1.1-1.3-3.1-1.8-4.7-2.7c0,1.3,0,2.5,0,3.8c1.4-0.9,2.3,0.2,3,1c7.6,8.7,16.7,15.8,25,23.7c1.1,1.1,3.1,1.9,1,3.8
	c-6.9,6.4-13.7,12.9-20.6,19.4c-0.3,0.3-0.9,0.2-1.4,0.3c-2.1,5.1-5.2,9.2-9.8,12.5c-3.8,2.8-8.1,5.1-11.3,8.9
	c-1.2,1.4-2.8,1.6-4.5,1.4c-7.8,6-15.7,12-23.6,18c-13.7,10.4-27.5,20.8-41.2,31.3c-1.8,1.4-2.8,1.1-4.6-0.2
	c-21.4-16.1-42.9-32.1-64.4-48c-7.5-0.5-24.3-14.8-26-22.2c-4-0.8-6.1-4.3-9-6.6c-1.2-0.9-0.2-1.5,0.4-2.3c1.8-3,4-5.9,3.9-9.7
	c-2.1,2.9-4.1,5.8-6.3,8.9c-3.5-3.3-7-6.3-9.8-10c-3-3.9-3-6.6,1.4-8.7c8.5-4.1,14.7-10.8,20.6-17.8c0.6-0.8,1.1-1.7,2.3-1.6
	c1.9-0.8,2-2.8,3-4.2c2.2-3-1.1-1.2-1.7-1.9c-3.8,1.4-5.7,5-8.2,7.8c-10.5,12.1-24.8,19.5-36.1,30.7c-12.4,12.3-26.6,22.8-41.3,32.4
	c1.2,1.1,1.5,2.3-0.3,3c-1.3,0.5-2.3,1.1-2.8,2.5c8.6,5.5,18.3,8.9,26.8,14.8c5.3,3.7,12.1,5.3,18.3,7.7c2.9,1.1,4.1,2.8,4.4,5.8
	c1,10.9,2.4,21.7,4.6,32.4c3,0.3,3-4,5.8-4c4.3,0,7.5,1.7,9.7,5.6c1.9,3.4,3.9,6.9,8.5,7.4c-0.6-11.2-4.5-21.8-5.8-32.9
	c-0.1-0.9-1.1-2-0.2-2.8c1.1-1.1,2.1,0.1,3.1,0.5c17.5,6.9,35.4,12.6,53.3,18c8.2,2.5,16.5,4.9,25.3,5.4c2.8,0.1,5.3,1.4,7.4,3.5
	c-18.8,13.1-38.2,24.9-56.7,37.9c-5.5,3.9-11,8-17.3,10.8c3.5,6.5,4.3,13.8,6.1,20.7c16.8-10,32.4-21.7,48.3-33.2
	c10.7-7.7,21.5-15.2,31.2-24.2c2.8-2.6,5-1.3,6.9,0.5c13,12.2,28.2,21.6,42.3,32.2c12.2,9.2,24.8,17.6,37.3,26.4
	c2-2.7,0.1-5.1-0.5-7.5c-0.6-2.3-1.5-4.8,1.1-6.2c4.1-2.2,4.7-5.7,4.3-9.7c-10.5-5.5-20.1-12.2-30.1-18.5
	c-5.8-3.7-11.4-7.8-17.1-11.7c-6.5-4.5-13.7-7.9-20-12.8c-2.1-1.7-3.3-4-6.1-5.4c3.1-2.6,6.4-3.3,9.9-3.5c15.3-0.7,29.7-5.3,44-10.3
	c11.7-4,23.3-8.4,35.7-12.8c-3.7,19.9-7.3,39.2-10.9,58.5c6.9,0.3,14.6-3,19.9,4.6c0.3,0.5,1.5,0.3,2.3,0.5
	c1.7-8.4,3.3-16.9,5.1-25.3c3.1-14.5,4.1-29.2,6.6-43.8c0.6-3.2,2.2-4.6,4.7-5.7c12.5-5.7,25-11.5,37.5-17.2c1.8-0.8,3.2-1.4,4.1-2
	c-1.3-0.3-2.5-0.7-3.8-1c1.3,0.3,2.5,0.7,3.8,1C690.2,598.2,689.2,597.1,684.8,592.5z M384.2,596.2c0,5,0,9.9,0,15.3
	c-6.4-1.1-12-3.7-17.6-6.5c-2.1-1-1-2.5-0.5-3.8c1.2-2.9,2.6-5.7,3.9-8.6c-2.4,2.5-3.3,5.8-4.7,8.7c-0.9,1.7-1.5,2.7-3.7,1.5
	c-6.4-3.5-12.9-6.8-19.7-10.3c9.6-7.1,19-14,28.3-21c3.6-2.7,7-5.6,10.5-8.4c3-2.4,4.3-1.6,4.5,2.2
	C385.8,575.6,384.2,585.9,384.2,596.2z M461.4,642c-13.9-5-27.8-10.3-41.6-15.5c-1.2-0.5-2.6-0.5-3.9-0.8c-5.2-1.1-8.7-4.9-9.8-10.1
	c-2.1-9.5-3.9-19.1-3.7-30.1c28,20.1,53.5,43.2,81.7,62.8C476.1,647.3,468.7,644.7,461.4,642z"/>
<path class="st1" d="M425,324.7c0-8.3,2.8-16,5.2-23.9c2.4,3.7,5.9,6.1,9.5,8.5c9.9,6.6,19.6,13.5,29.6,20
	c12.1,7.9,21.8,19.1,34.3,26.5c1.5,0.9,2,2.6,2.5,4.2c-3.7,2.9-8.8,3.2-12.1,6.8c-2.8-0.3-5,2.5-7.9,1.3c-0.2,5.2-5.4,4.9-8.2,7.2
	c-4.6,3.8-10.6,5.2-16,7.7c-10.3,4.9-20.4,10.2-30.6,15.3c-1.2,0.6-1.5,1.6-2,2.7c-1.4,2.8-2.7,5.6-4.1,8.4c-0.5-0.7-1.1-1.3-2-0.5
	c-4.4,4.2-9.8,4.5-15.3,4.2c2.7-4.9,5.3-9.9,8.3-14.7c1.8-2.9,1.7-6.9,4.9-9.1c4.4-3,8.7-6,13.7-8c3.8-1.5,7.7-3.2,11-5.7
	c9.8-7.4,21.3-11,32.5-16.3C461.6,346.2,442.9,336.1,425,324.7z"/>
<path class="st4" d="M702.8,597.5c7.4,3.8,19.9,2.5,25.6-3.4c4.7-4.8,9.1-10.1,7.1-18c-1.8-7.3-4.6-9-11.7-6.3
	c-1.4,0.5-2.9,2.2-4.3-0.1c-2.4-2.2-6.2-0.8-8.4-3.4c-6.6-1-11,2.1-14.2,7.5c-1.8,2-2.6,4.1-3,6.9
	C692.8,588.8,697.2,593.4,702.8,597.5z"/>
<path class="st3" d="M407.9,413c5.6,0.3,11,0,15.3-4.2c0.9-0.8,1.5-0.2,2,0.5c-9.3,18.8-13.9,39.5-22.9,58.4
	c-3.7,7.8-9.5,14-15,20.3c-6,7-12,13.8-17.5,21.2c-1.1,1.4-2.6,2.5-3.9,3.8c-0.6-1.2-1.2-2.3,0.1-3.6c5-5,7.2-12.2,12.8-16.8
	c3.6-2.9,5.2-7.2,7.2-11.1c1.8-3.5-1.6-6.3-2-9.5c0.3-2.5-0.2-4.9-0.5-7.4c-1.4-9.5-1.4-19.1,0.4-28.6c4.6,1.2,4.3,4.4,2.9,7.8
	c-2.6,6.7-3.3,13.4,1.4,19.3c1.3,1.7,1.8,5.8,4.9,4.5c2.8-1.1,3.7-4.5,3.7-7.6c1.3-6.1,2.5-12.2,3.9-18.3
	C403.2,432.1,405.6,422.6,407.9,413z"/>
<path class="st4" d="M424.2,526c1.9-0.8,2-2.8,3-4.2c2.2-3-1.1-1.2-1.6-1.9c5.3-7.7,10.1-15.6,14.5-23.9c2.3,2.1-0.6,4.4,0.3,6.5
	c0.9,7.3-1.7,14.3-1.4,21.6c-1.5,2.9-3,5.8-0.9,9c-3.2,2.3-3.4,5.4-2.8,9.1c3.7-4.4,3.7-4.4,3.7-9.1c-0.5-3.2,1.6-6.2,0.8-9.4
	c0-0.9,0.1-1.8,0.2-2.7c2.1,0.2,2.2,1.7,2.1,3.2c-0.4,3.5,1.2,6.2,3.1,8.9c-0.2,11.7-0.4,23.3-0.6,35c-4-2.2-6.5-5.6-7.5-10
	c0.5-0.3,1.5-0.5,1.6-0.9c1-4.5,1.9-9,3-13.8c-3.4,1.2-2.6,3.6-2.6,5.7c-3.5-0.3-3.9,1.9-4,4.7c-0.3,6.1-1.9,6.9-6.9,4
	c-1.8-1.1-3.9-1.8-6.1-1.7C422.4,546,423,535.9,424.2,526z"/>
<path class="st3" d="M537.5,367.1c3.5-2.4,13-0.3,15.7,3.6c4.2,6,10.8,7.7,17.3,9.2c2.5,0.5,4.9,0.6,6.5,2.8c2.1,2.9,5.6,3.4,8.5,5
	c4.3,2.4,5.1,1.7,5.2-3.5c5.1,5.7,9.4,11.3,13.1,17.9c8.4,15.2,12.5,31.9,18.9,47.7c1.5,3.6,3.2,7.2,4.9,10.8c2,4,1.4,7.3-2.4,9.8
	c-5.8-10.5-9.2-22-13.4-33.1c-3.5-9.5-6.8-19.1-11.1-28.3c-3.9-8.5-11.2-14.4-19.4-18.5c-9.8-4.9-20.1-8.7-30.1-13.1
	c-3.6-1.6-7-3.7-10.4-5.6c-0.3-0.2-0.6-0.5-0.9-0.7c-0.3-0.1-0.7-0.3-1.1-0.5c0-0.7-0.2-1.3-1-1.5
	C537.5,368.5,537.2,367.9,537.5,367.1z"/>
<path class="st4" d="M581.1,578c-0.4-13.7-0.6-27.3-0.1-41c3.2-0.8,4.2-2.9,5.3-6c1.5-4,2.7-7.9,3-12.2c0.1-1.5,1.1-2.9,3-2.7
	c1.8,0.2,2.6,1.3,2.6,3c0,2.3,0,4.5,0,6.9c1.3-0.3,1.7-3.1,3.2-0.8c2.9,0.5,3.6,2.6,4.4,5.1c3.3,11.1,2.9,22.4,3,33.8
	c-0.8-0.1-1.3,0.3-1.7,1c-3.5,0.7-6.7-0.9-9.6-2.1c-2.8-1.2-5.5-0.3-6,1c-1.1,2.5-4,4.9-3,7.5C586.8,575.9,585.2,577.5,581.1,578z
	 M600.9,562L600.9,562c2.4-0.8,2.9-3.9,1.1-7c0.2-0.4,0.5-0.7,0.7-1.1c0,0-0.2-0.2-0.3-0.3c-0.2,0.4-0.3,0.8-0.5,1.2
	c-1.3,0.3-2.6,0.7-3.9,1c1-4.2-0.2-7.7-3.2-10.8c-0.5-0.5-0.8-1.1-1.5-0.9c-0.8,0.2-1.2,0.8-0.8,1.4c1.9,2.6,0.7,2.8-1.8,3.6
	c-2.7,0.9-2.2,5-4.4,7c-0.7,0.7,0.9,0.9,1.7,1.3c3.2,1.5,7.2,0.8,9.9,3.4c0.4,0.3,0.8,0.6,1.2,0.9c0.2,0,0.5,0,0.7,0.1
	C600.2,562.5,600.5,563,600.9,562z M596.9,530c-3.7,0.9,0.6,4.5-1.4,6.2c-0.7,0.6,0.3,1.9,1,1.5c2.4-1.2,0.6-4.6,3.1-6.2
	C600.5,531,598.7,530,596.9,530z M599.9,541.3c0.2-0.3,0.7-0.7,0.8-1.1c0.1-0.8-0.5-1.2-1.2-1.2c-0.5,0-1,0.2-0.8,0.8
	C598.8,540.6,599,541.2,599.9,541.3z M584.6,543.7c-0.3-0.1-0.6-0.2-0.8-0.4c-0.1,0.3-0.4,0.6-0.3,0.8c0.1,0.2,0.6,0.4,0.8,0.3
	C584.4,544.4,584.4,544,584.6,543.7z M597.6,527.7c-0.1,0-0.3,0-0.3,0.1c-0.1,0.1-0.1,0.3-0.1,0.4c0.2,0,0.3-0.1,0.5-0.1
	C597.7,527.9,597.7,527.8,597.6,527.7z"/>
<path class="st2" d="M494,366.8c3.3-3.6,8.4-3.9,12.1-6.8c4.2-3.3,8.8-1.8,13.3-1c2.6,0.4,5.2,0.9,7.8,1.4c1,1.8,1.7,3.7,3.8,4.6
	c1.2,5.2-0.2,10.2-1.5,15.2c-2-0.1-3.4,1.1-5,2c-6.5,3.6-12.5,1.1-14.2-5.9c-0.5-2.3-0.8-4.6-2.1-6.8c-1.4,1.2-1.3,2.6-1,3.5
	c1.8,4.8-1.2,8.9-1.4,13.4c0,1.3-0.8,3.4-2.6,3.1c-1.7-0.3-0.9-2.2-1.1-3.4c-0.5-4.5-0.9-9-1.4-13.8c-3.4,1.6-1.1,6.1-4.7,6.8
	C494.2,375.1,494.4,370.9,494,366.8z"/>
<path class="st4" d="M574,432c2.3,5.6,0.9,11.5,1.7,17.2c0.2,1.3-0.4,2.1-1.6,1.9c-7.7-1-15.4,1.5-23.1-0.1
	c-0.2-1.3,0.6-2.9-1.1-3.8c-1.4,0.8-1.9,2.1-1.9,3.6c-2.5,1.8-5.4,0.6-8.1,0.8c-2.2,0.1-2.1-1.6-2.1-3.1c0.1-4.5,0.5-8.9,0.3-13.4
	c-0.2-4.6,1.8-6.4,6.2-5.9c1.9,0.2,4-0.6,5.8,0.7c0.2,1.2-0.6,3.1,0.8,3.3c1.7,0.2,0.9-1.8,1.2-2.8c5.3-0.2,10.7-1,16-0.4
	c-0.1,1.5,1.7,3.5,0.6,4c-3.3,1.6-1.3,4.1-1.7,6.1c-1.8,1.4-3,3.1-3.5,5.5c1.9-0.1,3.7,0.3,4.4-1.8c2.6-0.3,2.7-2.3,3.2-4.2
	C571.7,437.1,571.1,433.9,574,432z"/>
<path class="st2" d="M437,558c1.1,4.4,3.5,7.8,7.5,10c-0.1,5.6-0.3,11.2-0.3,16.8c0,3.8,0.4,7.6,2.4,11c-7.5-0.5-24.3-14.8-26-22.2
	c0.3-5.9-0.1-11.9,1.2-17.7c2.2-0.1,4.3,0.7,6.1,1.7c5,2.9,6.6,2.1,6.9-4c0.1-2.8,0.5-5,4-4.7C438,551.9,436.9,554.8,437,558z"/>
<path class="st4" d="M496,379c3.6-0.7,1.3-5.2,4.7-6.8c0.5,4.9,0.9,9.3,1.4,13.8c0.1,1.2-0.7,3.1,1.1,3.4c1.8,0.3,2.5-1.8,2.6-3.1
	c0.2-4.5,3.2-8.7,1.4-13.4c-0.3-0.9-0.4-2.3,1-3.5c1.3,2.1,1.6,4.5,2.1,6.8c1.7,7,7.7,9.5,14.2,5.9c1.6-0.9,3-2,5-2
	c-1,6.8-2.4,13.4-4.4,19.9c-3,0.3-4.9,4.8-8.8,2.1c-3.6-2.4-6.6-1.2-8.3,2.7c-0.9,2.1-2,3.7-4.7,3.1c-1.4-5.7-2.9-11.4-4.3-17
	C497.8,387,496.9,383,496,379z"/>
<path class="st3" d="M503.1,408c2.6,0.6,3.8-1,4.7-3.1c1.7-3.9,4.7-5.1,8.3-2.7c4,2.7,5.8-1.8,8.8-2.1c-2.1,8.5-4.3,17-6.2,25.6
	c-2.6,11.5-2.5,23.4-4.4,35.1C512.7,442.7,506.4,425.7,503.1,408z"/>
<path class="st4" d="M311.3,593.6c-7,0-14.1,0.7-19-6c-2-2.8-2.2-5.5-1.3-8.6c2.1-0.4,2.7,2.2,4.7,2.5c0.2-0.9,0.4-1.6,0.6-2.4
	c2.5-8.6,9.2-10.7,16.3-5.2c1.4,1.1,2.9,2.4,4.5,3c4.3,1.7,5.4,5,5,9.1c0,1,0,1.9,0,2.9c0,0.7,0,1.3,0,2L322,591
	c-0.3,0.3-0.6,0.6-0.9,0.9L321,592C317.8,592.6,314.5,593.1,311.3,593.6z"/>
<path class="st3" d="M322,586c0.4-4.2-0.7-7.4-5-9.1c-1.6-0.7-3.1-1.9-4.5-3c-7.1-5.5-13.8-3.4-16.3,5.2c-0.2,0.8-0.4,1.5-0.6,2.4
	c-2.1-0.3-2.6-2.9-4.7-2.5c1.2-6.5,6.6-11.4,12.8-12.2c6.5-0.9,13.1-0.6,19.5-2.7c1.8-0.6,2.5-4,5.3-2c2.4,1.7,2.3,4.3,2.5,6.7
	c0.3,2.9,1.3,5,3,7.5c2.5,3.6,3,8.1,0.8,12.5c-1.4,2.5-4.2-0.6-5.8,1.4C326.6,588.8,325.7,584.9,322,586z"/>
<path class="st3" d="M598.1,525.2c-1.5-2.3-1.8,0.5-3.2,0.8c0-2.4,0-4.7,0-6.9c0-1.7-0.8-2.9-2.6-3c-1.9-0.2-2.9,1.2-3,2.7
	c-0.3,4.3-1.5,8.1-3,12.2c-1.2,3.2-2.1,5.2-5.3,6c-0.1-17.5-0.2-34.9-0.2-52.4c0-4,0-8,0.5-12.2c0.9,3.8,1.8,7.5,2.6,11.3
	c2.1,9.8,4.4,19.3,10.8,27.5c2,2.5,3.5,5.6,4.3,8.9c0,1.3,0,2.5,0,3.8C599.1,524.6,598.8,525,598.1,525.2z"/>
<path class="st2" d="M581.1,578c4.1-0.5,5.7-2.1,4.1-6.6c-1-2.7,1.9-5.1,3-7.5c0.6-1.3,3.3-2.1,6-1c2.9,1.2,6.1,2.8,9.6,2.1
	c0.4,0.6,0.9,1.1,1.7,0.9c0,0.7,0,1.4,0,2.1c-1.3-0.2-3.1-2.3-3.5,0.9c-2.8-0.4-3.8,1.9-5.7,3.7c2.6,0.5,4.7,0.6,7.1-0.2
	c-4.1-0.3-1.2-2.3-1.4-3.5c1.1,0.5,2.2,1.3,3.5,0.9c0.2,0.7,0.3,1.4,0.5,2.1c-2.1,5.1-5.2,9.2-9.8,12.5c-3.8,2.8-8.1,5.2-11.3,8.9
	c-1.2,1.4-2.8,1.6-4.5,1.4C582.2,589.3,580.4,583.6,581.1,578z M587,578.6c-1,3.2-1.8,6.4-1.1,9.8
	C587.6,585.3,586.7,581.9,587,578.6z"/>
<path class="st1" d="M445.2,533c-1.9-2.7-3.5-5.4-3.1-8.9c0.1-1.5,0-3-2.1-3.2c0.4-3.8,0.8-7.6,1.3-11.4c0.3-2.4,1.5-5-0.9-7
	c-0.9-2.1,2-4.4-0.3-6.5c1.8-7.9,3.6-15.7,5.5-23.6c0.4,0,0.9,0,1.3,0C446.2,492.6,448.1,512.9,445.2,533z"/>
<path class="st1" d="M311.3,593.6c3.3-0.5,6.5-1,9.8-1.5c-0.5,2.5-3.5,1.3-4.5,3.3c0.8,0.5,1.6,1,2.3,1.5c0.3,2.3-0.7,4-3,4.3
	c-2.5,0.3-4.9,4.9-7.9,0.1c-1.1-1.8-5.5-2-4.7-4.7c0.7-2.4,4.3-1.6,6.8-1.5C311,595,311.8,594.8,311.3,593.6z"/>
<path class="st2" d="M318.9,596.8c-0.8-0.5-1.5-1-2.3-1.5c0.9-1.9,4-0.8,4.5-3.3l0.1-0.1c0.3-0.3,0.6-0.6,0.9-0.9l0.1-0.1
	c1.2-0.7,1-1.3,0-2c0-1,0-1.9,0-2.9c3.7-1.1,4.5,2.8,6.9,4c0,0.7,0,1.4,0,2c0,0.3,0,0.6,0.1,1C325.2,593.1,323.5,598.6,318.9,596.8z
	"/>
<path class="st3" d="M574,432c-2.9,1.9-2.3,5.1-3,7.8c-0.5,1.9-0.6,3.9-3.2,4.2c-0.3-1.3-0.6-2.5-0.9-3.8c0.3-2.1-1.7-4.6,1.7-6.1
	c1.1-0.5-0.7-2.6-0.6-4C570.3,429.8,572.9,428.6,574,432z"/>
<path class="st3" d="M687.7,540.3c3.1-0.7,4.3,2.2,6,3.7c3.8,3.3,8.7,5.4,11,10.3C698.4,550.5,692.5,546.1,687.7,540.3z"/>
<path class="st3" d="M672.8,526c6.6,3,11.9,7.4,14.8,14.3C681.6,536.7,678,530.5,672.8,526z"/>
<path class="st1" d="M329,592c0-0.7,0-1.4,0-2c1.5-2,4.4,1.1,5.8-1.4c0.4,0.5,0.8,1.1,1.2,1.6c0.2,1.4-0.2,2.5-1.6,3.2
	c-3.6,1.6,0.9,1.4,0.6,2.3c-1.8-0.7-4.6,0.5-4.9-2.8C329.7,592.6,329.4,592.3,329,592z"/>
<path class="st3" d="M335,595.7c0.4-0.9-4.2-0.7-0.6-2.3c1.5-0.7,1.8-1.8,1.6-3.2c1.3,0.2,2.6,0.5,4,0.7c1.2,1.1,1.5,2.3-0.3,3
	c-1.3,0.5-2.3,1.1-2.8,2.5C336.2,596.1,335.6,595.9,335,595.7z"/>
<path class="st1" d="M719.5,569.8c-2.4-2.2-6.2-0.8-8.4-3.4C715.2,565.3,717.9,566.4,719.5,569.8z"/>
<path class="st1" d="M548,450.9c0.1-1.5,0.6-2.7,1.9-3.6c1.7,0.9,0.9,2.5,1.1,3.8C550,451,549,451,548,450.9z"/>
<path class="st3" d="M552,430.4c-0.2,1.1,0.6,3-1.2,2.8c-1.4-0.2-0.6-2.1-0.8-3.3C550.7,430.1,551.3,430.3,552,430.4z"/>
<path class="st3" d="M363.4,516.2c-0.5-0.4-1.2-0.8-0.8-1.5c0.6-1,1.7-0.6,2.6-0.7C365,515.1,364.4,515.9,363.4,516.2z"/>
<path class="st3" d="M704.7,554.3c2.3-0.1,2.5,0,2.3,1.8C706,555.7,705.2,555.2,704.7,554.3z"/>
<path class="st1" d="M538,369.1c0.7,0.2,1,0.8,1,1.5C538,370.5,538,369.8,538,369.1z"/>
<path class="st1" d="M540.1,371c0.3,0.2,0.6,0.5,0.9,0.7C540.7,371.5,540.4,371.2,540.1,371z"/>
<path class="st3" d="M329,592c0.3,0.3,0.7,0.6,1,0.9c-0.3,0-0.6,0-1,0.1C329,592.7,329,592.4,329,592z"/>
<path class="st1" d="M735.9,597.8c-0.3,0.4-0.7,0.8-1,1.1C734.9,598.3,735.2,597.9,735.9,597.8z"/>
<path class="st1" d="M414.5,370c-0.8,10.8-4.2,21.1-5.9,31.7c-2.1,12.9-7.3,25-10,37.8c-1.2,5.5-1.9,11.1-2.7,16.7
	c-0.2,1.3-0.8,3.1,1.2,3.9c0,3.2-1,6.5-3.7,7.6c-3.1,1.3-3.6-2.9-4.9-4.5c-4.7-5.9-4.1-12.6-1.4-19.3c1.3-3.4,1.6-6.6-2.9-7.8
	c0.3-2.8,0.4-5.6,0.8-8.4c0.5-3.5-0.1-4.4-3.8-2.9c-24.3,9.9-48.6,19.6-72.9,29.3c-2.1-0.2-3.5-1.2-2.7-3.4c0.5-1.6,0.1-2.8-0.5-4.1
	c22.1-8.3,44.3-16.5,66.4-24.8c3.5-1.3,6.6-3.5,10.8-3.3c3.3,0.2,3.4-2.6,3.7-5.3c1.4-13.5,3.2-26.9,5.8-40.2c3.3,0,6.8-1.6,9.7,1.5
	c1.1,1.1,2.5,0.2,3.4-0.9C407.4,370.6,410.7,369.6,414.5,370z"/>
<path class="st3" d="M577,789c1.1-5.3,3.7-10.1,5.4-15.2c5,3.2,1.9,7.2,1.2,11C582.9,788.7,580.3,789.3,577,789z"/>
<path class="st0" d="M682.9,590.9L682.9,590.9C682.9,591,683,591,682.9,590.9L682.9,590.9z"/>
<path class="st0" d="M440.4,502.5c2.3,2.1,1.2,4.6,0.9,7c-0.5,3.8-0.9,7.6-1.3,11.4c0,0.9-0.1,1.8-0.2,2.7c-0.4-0.1-0.6,0-0.8,0.4
	C438.7,516.8,441.3,509.8,440.4,502.5z"/>
<path class="st1" d="M437,558c-0.1-3.2,1-6,1.9-9c0-2.1-0.8-4.6,2.6-5.7c-1,4.9-1.9,9.3-3,13.8C438.5,557.5,437.6,557.7,437,558z"/>
<path class="st3" d="M439,533c0,4.7,0,4.7-3.7,9.1c-0.7-3.7-0.5-6.8,2.8-9.1C438.4,533,438.7,533,439,533z"/>
<path class="st1" d="M439,533c-0.3,0-0.6,0-0.9,0c-2-3.3-0.6-6.1,0.9-9c0.2-0.4,0.4-0.5,0.8-0.4C440.6,526.9,438.5,529.8,439,533z"
	/>
<path class="st2" d="M598,561c-2.8-2.6-6.7-2-9.9-3.4c-0.9-0.4-2.5-0.7-1.7-1.3c2.3-2,1.7-6.1,4.4-7c2.5-0.8,3.7-1,1.8-3.6
	c-0.5-0.7,0-1.3,0.8-1.4c0.8-0.2,1.1,0.5,1.5,0.9c3,3,4.1,6.6,3.2,10.8c-0.9,3,3.2,3.4,3,6H601c-0.4,0-0.7,0-1.1,0
	c-0.2,0-0.5-0.1-0.7-0.1C598.7,561.6,598.3,561.3,598,561z"/>
<path class="st1" d="M601,562c0.2-2.6-3.9-3-3-6c1.3-0.3,2.6-0.7,3.9-1l0.2,0.1C603.8,558.1,603.4,561.2,601,562z"/>
<path class="st1" d="M596.9,530c1.8,0,3.6,1,2.8,1.6c-2.5,1.6-0.8,5-3.1,6.2c-0.7,0.4-1.7-0.9-1-1.5
	C597.4,534.5,593.2,530.9,596.9,530z"/>
<path class="st1" d="M599.9,541.3c-0.9-0.1-1.1-0.8-1.3-1.4c-0.2-0.7,0.3-0.9,0.8-0.8c0.7,0,1.3,0.4,1.2,1.2
	C600.6,540.7,600.1,541,599.9,541.3z"/>
<path class="st3" d="M584.6,543.7c-0.1,0.3-0.2,0.7-0.4,0.8s-0.7-0.1-0.8-0.3s0.2-0.5,0.3-0.8C584,543.5,584.3,543.6,584.6,543.7z"
	/>
<path class="st1" d="M605.5,564.1c0,0.6,0,1.2,0,1.8c-0.8,0.2-1.3-0.2-1.7-0.9C604.2,564.4,604.7,563.9,605.5,564.1z"/>
<path class="st1" d="M601.9,554.9c0.2-0.4,0.3-0.8,0.5-1.2c0.1,0.1,0.3,0.3,0.3,0.3c-0.2,0.4-0.5,0.7-0.7,1.1
	C602,555,601.9,554.9,601.9,554.9z"/>
<path class="st1" d="M597.6,527.7c0,0.1,0.1,0.2,0.1,0.3c-0.2,0-0.3,0.1-0.5,0.1c0-0.1,0-0.3,0.1-0.4
	C597.3,527.7,597.5,527.7,597.6,527.7z"/>
<path class="st1" d="M599.8,562c0.4,0,0.7,0,1.1,0C600.5,563,600.2,562.5,599.8,562z"/>
<path class="st1" d="M598,561c0.4,0.3,0.8,0.6,1.2,0.9C598.8,561.6,598.3,561.3,598,561z"/>
<path class="st0" d="M566.9,440.2c0.3,1.3,0.6,2.5,0.9,3.8c-0.8,2.1-2.5,1.7-4.4,1.8C563.9,443.4,565.2,441.6,566.9,440.2z"/>
<path class="st1" d="M322.1,588.9c1,0.7,1.2,1.3,0,2C322.1,590.3,322.1,589.6,322.1,588.9z"/>
<path class="st1" d="M322,591c-0.3,0.3-0.6,0.6-0.9,0.9C321.4,591.6,321.7,591.3,322,591z"/>
<path class="st4" d="M587,578.6c-0.2,3.3,0.6,6.7-1.1,9.8C585.2,585,586,581.8,587,578.6z"/>
<path class="st1" d="M602,569c0.2,1.2-2.7,3.3,1.4,3.5c-2.4,0.8-4.4,0.6-7.1,0.2C598.2,570.9,599.1,568.6,602,569L602,569z"/>
<path class="st1" d="M605.5,568c0,0.6,0,1.3,0,1.9c-1.3,0.4-2.4-0.4-3.5-0.9l0,0C602.4,565.8,604.2,567.9,605.5,568z"/>
<path class="st2" d="M540.1,290c-1.8-1.7-1-4.7-4.1-6.8c2.2,3.3,2.9,5.9,2.4,8.9c-6.6-1.6-7.4-1.1-7.3,6c0.1,9,3.1,18.5-3.9,26.5
	c-0.2,0.2-0.1,0.6-0.1,1c0,3.5-1,6.8-1.7,10.2c-0.4,1.8-0.7,3.7,1.5,4.7c-0.6,1.2-1.4,2.2-2.7,2.7c-3.8-0.4-6.2,1.2-7.1,5
	c-3.4,1.8-4.8,4.3-2.9,8c-1.7,1.1-3.1,1.7-4.3-0.9c-1.1-2.4-2.6-4.6-4-6.8c1.9-2.5,1.6-4.8-0.3-7.4c-2.9-3.9-6.6-7.5-7.5-12.6
	c-0.4-2.7-1-5.1-4.2-6c-1.6-0.4-2.1-2.7-0.5-2.6c5.5,0.4,2.3-3.1,2.5-4.9c0.1-1.5-0.9-2.9,0.3-4.7c1.7-2.3,0.3-3.6-2.2-4.1
	c0-1.3,0-2.7,0-4c0-0.3,0-0.6,0-1c0-2,0-4,0-6c2.8-7.9,2.5-16,1-24c2.7,0.2,5.6-0.5,8,1.3c2,4.6,5.9,1.2,8.9,1.9
	c0.8,0.2,1.5-2,0.2-3.2c0.1-1.5-0.4-3.2,1.4-4.5c0.5,1.2,1,2.3,1.5,3.5c0.6,3.2,3,6.5,5.3,6.9c4,0.8,8.4-0.4,10.7-4.8
	c2.7,0,5.3,0,7.9,0c0.3,0.5,0.6,1.3,0.9,1.3c1,0.1,1-0.8,1.1-1.5c0-0.3,0.1-0.6,0.2-1c0.4-0.1,0.8-0.1,1.2-0.2
	c1.4,1.6,2.3,3.3,2.1,5.5c-0.9,1.6-1.4,3.1-0.8,5.1C544.7,285.1,542.7,287.8,540.1,290z"/>
<path class="st4" d="M494,306c2.5,0.5,3.9,1.8,2.2,4.1c-1.3,1.7-0.2,3.1-0.3,4.7c-0.2,1.8,2.9,5.3-2.5,4.9c-1.6-0.1-1.1,2.2,0.5,2.6
	c3.2,0.9,3.8,3.3,4.2,6c0.8,5.2,4.6,8.7,7.5,12.6c1.9,2.5,2.2,4.8,0.3,7.4c-5.4-5.4-10.6-10.9-16.3-16c-4.4-4-3.8-9.4-4.8-14.4
	c1.5,0.4,1.9-0.6,2.4-1.8c2.6-5.1,1.9-10.6,1.6-16c0-2.7,0-5.4,0-8c-0.9,2.8-3.9,4.9-2.6,8.2c-1.1,5.8,0.1,11.8-1.3,17.7
	c-4.5-1.8-2.2-6.1-3.3-9.1c-0.6-1.6,1.6-3,0.2-4.9c-0.7-1,0.7-3.4-2.1-2.9c1-2-0.3-4.4,0.2-5.8c2-6.1,0.4-12.7,3.3-18.6
	c1.2-2.5,2.3-5,4.8-6.4c2.3,0.4,4.7-0.5,6.9,0.9c1.5,8.1,1.8,16.1-1,24c-1.5,2-1.5,4,0,6c0,0.3,0,0.6,0,1
	C492.6,303.4,492.5,304.7,494,306z M492.7,286.5c-0.1,0.3-0.2,0.5-0.4,0.8c0.3,0.1,0.6,0.4,0.8,0.3c0.2-0.1,0.4-0.6,0.3-0.8
	C493.4,286.6,493,286.6,492.7,286.5z M492.7,277.4c-0.1,0.3-0.4,0.6-0.3,0.8c0.1,0.2,0.5,0.3,0.8,0.4c0.1-0.3,0.4-0.6,0.3-0.8
	S493,277.5,492.7,277.4z"/>
<path class="st4" d="M526.8,340.3c-2.2-1-1.9-2.8-1.5-4.7c0.7-3.4,1.8-6.7,1.7-10.2c0-0.3-0.1-0.8,0.1-1c7-8,4-17.4,3.9-26.5
	c-0.1-7,0.7-7.6,7.3-6c1.3,8.3,2.8,16.5,2.3,25c0,0.6,0,1.5,0.4,1.9c3.9,3.4,1.5,6.4-0.8,8.9C535.9,332.2,531.3,336.2,526.8,340.3z"
	/>
<path class="st1" d="M495,271c-2.2-1.3-4.6-0.5-6.9-0.9c1.2-5,2.5-6.2,6.9-6.2c3.8,2.1,7.7,1.3,11.6,0.1c1.6-0.5,1.2-1.6,1-2.7
	l0.5-0.2c2,1.5,3.3-0.3,4.7-1.2c0.7,1.3-0.5,4,1.9,4c6.5-0.3,12.9,1.1,19.4,1.5c3,0.5,5.3,1.9,7,4.4c0,0.5,0.1,0.9,0.1,1.4
	c-0.1,0.3-0.2,0.6-0.2,1c-0.7,0.1-1.3,0.1-2,0.2c-2.7,0-5.3,0-7.9,0c-5.1-2.3-10.8-0.1-16-2.1c-0.5-1.1-1-2.3-1.5-3.5
	c-1.7,1.2-1.3,2.9-1.4,4.5c-3,0.7-6.4-1.2-9.1,1.3C500.6,270.5,497.7,271.2,495,271z"/>
<path class="st1" d="M517,237.1c0,0.7,0,1.3,0,2c-0.7,2.2-3,1.2-4.3,3.1c-0.4-4.4-1-7.9-1-11.5c0-3.3,2.8-6,1.3-9.4
	c-0.4-1.1-0.4-2.8-1.7-2.7c-2,0.1-1.1,2-1.2,3.2c-0.3,3.1,2.3,6.2,0.3,9.6c-2.9-2,0-5.8-2.7-7.6c-0.5-1.9-1.8-2.5-3.4-1.6
	c-1.7,0.9-3.4,1.9-3.7,4.3c-0.4,3.7,1.6,6.4,3,9.6c0.3-1.1,0.5-2,0.7-3h0.4c0.1,1.7,2.1,2.8,1.7,4.7c-1.8,2.2,0.6,2.5,1.6,3.1
	c1.1,0.6,2.2,0.8,1.5,2.4c-1.3,3.1,0.7,5,2.7,6.8c-1.7,1.8-3.9,0.7-5.9,1c-0.9-4.1-3.6-7.3-5.6-10.8c-2.4-4.3-2.6-8.9-2.4-13.5
	c0.1-2.4,1.6-4.6,4-5c5.6-1,6.7-4.5,6-9.3c-0.1-0.7,0.6-1.5,0.9-2.3c2.2-1.7,3.5,0.5,5.1,1.2c-0.1,0.8-0.1,1.6-0.2,2.4
	c2.7,4.4,2.2,9.1,0.9,13.8c-0.2,0.8-0.1,1.6-0.1,2.5C514.1,232.8,512,236,517,237.1z"/>
<path class="st3" d="M515,230c0-0.8-0.1-1.7,0.1-2.5c1.3-4.7,1.8-9.4-0.9-13.8c1.9,0.9,3.5,0.2,3.7-1.7c0.1-1-1.3-2.1-2.1-3.1
	c-0.5,0.8-0.9,1.6-1.4,2.4c-1.6-0.7-2.9-2.9-5.1-1.2c-2.4-2.5-1.8-6,1-7.1c3.9-1.6,2.5-4.9,1.6-7.4c-2.3-6.2,2.3-11.4,1.3-17.3
	c0.7,0,1.4,0.1,2.1,0.1c0,5.8,0.3,11.7-0.1,17.5c-0.2,2.5,0,5,1.5,6.5c4.3,4.4,4,10.3,3.8,15.1c-0.2,3.2-0.7,5.4,0.8,8.7
	c1,2.3-1.8,5.5-3,8.2C517.1,232.9,516,231.4,515,230z"/>
<path class="st3" d="M504.6,233.1h-0.4c-2.6-6.4-2-7.8,3.4-9.3c2.8,1.8-0.2,5.6,2.7,7.6c2-3.4-0.6-6.5-0.3-9.6
	c0.1-1.1-0.8-3.1,1.2-3.2c1.3-0.1,1.3,1.6,1.7,2.7c1.4,3.4-1.3,6.1-1.3,9.4c0,3.7,0.5,7.1,0.9,11.5c1.3-1.9,3.7-0.9,4.3-3.1
	c1-0.1,1.9-0.2,2.8-0.3c1.4,0.8,3.3-1.2,4.6,0.7c-1.4,4.2-7.2,10.2-10.2,10.5c-0.7,0-1.3,0-2-0.1c-2-1.8-4-3.7-2.7-6.8
	c0.7-1.6-0.5-1.8-1.5-2.4c-1-0.6-3.4-0.8-1.6-3.1c1.2-0.3,2.3,1.3,3.4,0.3c-0.6-1.6-1.2-3.1-1.7-4.7
	C507.1,230.3,505.9,232.1,504.6,233.1z M518.1,242.3c-0.6-0.1-1-0.3-1.5-0.2c-0.3,0-1.3,0-0.5,0.7c0.3,0.3,0.9,0.2,1.4,0.1
	C517.8,242.9,517.9,242.6,518.1,242.3z"/>
<path class="st4" d="M540.1,290c2.6-2.3,4.6-5,3.5-8.6c-0.6-2,0-3.5,0.8-5.1c2.8,12,8.6,23.6,2.8,36.5c-2-5-5-9.6-5.4-15.2
	c0.4-1.2,1.1-2.4,1-3.6c-0.2-2.1-1.2-2-2.2-0.4C539.5,292.6,540,291.3,540.1,290z"/>
<path class="st4" d="M512.2,250.1c0.7,0,1.3,0,2,0.1c0,0.3-0.1,0.6-0.1,0.8c0.3,2.9,0.7,5.8,0.9,8.7c0.1,2,1.2,2.5,2.9,2.4
	c5.4,1.2,11.3-0.2,16.2,3.2c-6.5-0.4-12.8-1.8-19.4-1.5c-2.4,0.1-1.3-2.6-1.9-4c-1.5-1.6,1.3-5.6-2.3-5.4c-3,0.2-1.6,3.6-2.1,5.7
	c-0.1,0.3-0.2,0.6-0.3,0.9l-0.5,0.2c-0.6-0.1-1.3-0.3-1.9-0.4c1.2-3.2-1.2-6.7,0.7-9.8C508.3,250.8,510.5,251.8,512.2,250.1z"/>
<path class="st3" d="M514.1,356c-1.9-3.7-0.5-6.2,2.9-8c0.9,0,1.9,0,2.8,0C519.4,351.8,518,354.8,514.1,356z"/>
<path class="st3" d="M517.8,262.1c-1.7,0-2.8-0.4-2.9-2.4c-0.2-2.9-0.6-5.8-0.9-8.7C520.3,253,516.8,258.3,517.8,262.1z"/>
<path class="st2" d="M505.6,260.9c0.6,0.1,1.3,0.3,1.9,0.4c0.3,1.1,0.7,2.2-1,2.7c-3.9,1.2-7.7,2.1-11.6-0.1c2.5-1,5.2-1.3,7.9-1.1
	c1.3,0.4,2,0.1,2-1.4C505,261,505.2,260.9,505.6,260.9z"/>
<path class="st1" d="M524.4,239.6c-1.3-1.9-3.1,0.1-4.6-0.7c0.5-0.9,1.6-1.6,1.5-2.8c2.8,0.1,2-3.2,3.9-4
	C527.2,234.9,526.6,237.3,524.4,239.6z"/>
<path class="st4" d="M525.2,232.1c-1.9,0.7-1.2,4.1-3.9,4c-0.2-2.9,1.2-5.3,2-7.9c0.3-0.9,0.4-2.2,1.7-2c1.8,0.2,1.1,1.7,1.2,2.8
	C526.3,230.1,526,231.2,525.2,232.1z"/>
<path class="st4" d="M515,230c1.1,1.4,2.1,2.9,3.2,4.3c-0.4,0.9-0.8,1.9-1.2,2.9C512,236,514.1,232.8,515,230z"/>
<path class="st4" d="M519.8,348c-0.9,0-1.9,0-2.8,0c0.9-3.7,3.3-5.3,7.1-5C523.5,345.5,520.3,345.6,519.8,348z"/>
<path class="st2" d="M540.6,293.6c1-1.6,2-1.7,2.2,0.4c0.1,1.2-0.7,2.4-1,3.6C540.4,296.6,540.7,295,540.6,293.6z"/>
<path class="st1" d="M504.9,261.4c0,1.5-0.8,1.8-2,1.4C503.4,262,503.8,261.3,504.9,261.4z"/>
<path class="st4" d="M541.2,271.1c0-0.5-0.1-0.9-0.1-1.4c0.7,0.1,1.2,0.5,1.3,1.2C541.9,270.9,541.5,271,541.2,271.1z"/>
<path class="st1" d="M370.3,592.3c0-4.8,3.2-8.5,4.3-13c-0.5,4.6-2.8,8.6-4.4,12.9C370.2,592.2,370.3,592.3,370.3,592.3z"/>
<path class="st1" d="M416,555c0.5-2.6,2.5-4.2,5.2-6.7C419.7,551.7,418.9,554.1,416,555C416,554.9,416,555,416,555z"/>
<path class="st4" d="M515,270.1c5.2,2,10.8-0.2,16,2.1c-2.3,4.5-6.7,5.7-10.7,4.8C518,276.5,515.7,273.3,515,270.1z"/>
<path class="st4" d="M503,272.4c2.8-2.5,6.1-0.6,9.1-1.3c1.3,1.2,0.6,3.4-0.2,3.2C509,273.6,505,277,503,272.4z"/>
<path class="st3" d="M494,301.1c-1.5-2-1.5-4,0-6C494,297.1,494,299.1,494,301.1z"/>
<path class="st3" d="M494,306c-1.5-1.3-1.4-2.6,0-4C494,303.4,494,304.7,494,306z"/>
<path class="st4" d="M538.9,272.2c0.7-0.1,1.3-0.1,2-0.2c-0.1,0.7,0,1.7-1.1,1.5C539.5,273.5,539.2,272.7,538.9,272.2z"/>
<path class="st1" d="M488.9,300.1c-1-1.5-1.8-0.9-2.7,0.2c-1.2-3.3,1.7-5.4,2.7-8.2C488.9,294.8,488.9,297.5,488.9,300.1z"/>
<path class="st3" d="M492.7,286.5c0.3,0.1,0.7,0.2,0.8,0.4c0.1,0.2-0.1,0.7-0.3,0.8c-0.2,0.1-0.5-0.2-0.8-0.3
	C492.5,287,492.6,286.7,492.7,286.5z"/>
<path class="st3" d="M492.7,277.4c0.3,0.1,0.7,0.2,0.8,0.4c0.1,0.2-0.2,0.5-0.3,0.8c-0.3-0.1-0.7-0.2-0.8-0.4
	C492.3,278,492.6,277.7,492.7,277.4z"/>
<path class="st1" d="M518.1,242.3c-0.3,0.3-0.4,0.6-0.6,0.6c-0.5,0-1.1,0.1-1.4-0.1c-0.8-0.7,0.2-0.7,0.5-0.7
	C517.1,242.1,517.6,242.2,518.1,242.3z"/>
<path class="st0" d="M-91.1,425.3L-91.1,425.3C-91.2,425.3-91.2,425.3-91.1,425.3L-91.1,425.3z"/>
<path class="st0" d="M-44.2,397.3C-44.2,397.4-44.2,397.4-44.2,397.3C-44.2,397.4-44.2,397.4-44.2,397.3L-44.2,397.3z"/>
<path class="st0" d="M-38.3,432.2L-38.3,432.2L-38.3,432.2L-38.3,432.2z"/>
<path class="st0" d="M-69.4,388.7L-69.4,388.7L-69.4,388.7L-69.4,388.7z"/>
</svg>
