<?xml version="1.0" encoding="utf-8"?>
<!-- Generator: Adobe Illustrator 24.0.0, SVG Export Plug-In . SVG Version: 6.00 Build 0)  -->
<svg version="1.1" id="Layer_1" xmlns="http://www.w3.org/2000/svg" xmlns:xlink="http://www.w3.org/1999/xlink" x="0px" y="0px"
	 viewBox="0 0 1024 1024" style="enable-background:new 0 0 1024 1024;" xml:space="preserve">
<style type="text/css">
	.st0{fill:#FBFBFA;}
	.st1{fill:#610666;}
	.st2{fill:#370330;}
	.st3{fill:#4F0550;}
	.st4{fill:#450642;}
</style>
<path class="st0" d="M271.19,595.38c-0.08-1.15-0.48-2.84,0.58-3.24c3.93-1.5,5.72-4.72,7.4-8.17c0.41-0.85,1.35-1.13,2.13-0.7
	c1.72,0.94,3.56,2.13,3.64-1.18c0.06-2.36-0.97-4.2-3.84-4.11c-1.82,0.05-3.68,0.2-5.47-0.04c-4.08-0.56-7.31-2.21-7.58-6.99
	c4.4,1.18,9.08,1.78,13.14,3.7c4.69,2.22,5.57,0.25,5.82-3.65c5.89-1.48,9.13-6.6,13.64-9.96c3.71-0.61,7.42-1.21,11.12-1.84
	c4.61-0.78,10.91-3.75,14.24-6.73c12.95-11.58,25.85-23.21,37.42-36.22c1.02-0.39,1.54-1.19,1.82-2.19
	c0.26-0.34,0.53-0.69,0.79-1.03c1.3-1.26,2.79-2.37,3.86-3.79c5.51-7.33,11.53-14.21,17.5-21.16c5.46-6.36,11.3-12.52,14.96-20.31
	c8.93-18.97,13.6-39.6,22.87-58.43c1.37-2.81,2.74-5.62,4.1-8.43c0.49-1.01,0.74-2.04,1.99-2.66c10.22-5.07,20.31-10.43,30.62-15.32
	c5.36-2.54,11.41-3.89,16.01-7.71c2.76-2.29,7.98-1.99,8.16-7.18c2.9,1.19,5.17-1.52,7.91-1.27c0.39,4.13,0.16,8.36,1.95,12.28
	c0.94,3.99,1.85,7.98,2.84,11.95c1.41,5.68,2.88,11.35,4.32,17.03c3.33,17.65,9.53,34.67,11.26,52.68
	c1.9-11.69,1.86-23.55,4.44-35.07c1.92-8.57,4.11-17.07,6.17-25.6c1.99-6.53,3.41-13.18,4.41-19.92c1.33-4.98,2.67-9.96,1.52-15.19
	c3.31-2.63,4.99-0.32,6.62,2.17c-0.38,0.8,0,1.41,0.51,1.99c-0.04,0.73-0.1,1.47,0.97,1.47c0.35,0.15,0.71,0.3,1.06,0.46
	c0.29,0.22,0.59,0.45,0.88,0.67c3.47,1.89,6.84,4.03,10.44,5.64c9.99,4.45,20.31,8.23,30.07,13.13
	c8.19,4.11,15.47,10.03,19.41,18.55c4.24,9.16,7.52,18.78,11.06,28.26c4.18,11.16,7.64,22.6,13.39,33.13
	c1.31,3.44,3.33,6.51,5.73,9.22c13.77,15.62,26.74,31.96,41.78,46.44c5.21,4.46,8.77,10.64,14.8,14.25l0.1,0.03
	c4.72,5.83,10.66,10.18,17.04,13.99l-0.06-0.04c0.48,0.98,1.32,1.47,2.32,1.75c-0.11,2.35-2.24,2.66-3.71,3.55
	c-9.66,5.91-14.85,17.16-12.63,27.52c1.06,4.92,7.28,10.28,12.13,10.45c7.41,3.75,19.87,2.47,25.56-3.38
	c4.71-4.84,9.09-10.07,7.07-17.99c-1.86-7.25-4.64-8.99-11.67-6.25c-1.39,0.54-2.9,2.17-4.29-0.07c-1.62-3.45-4.26-4.52-8.42-3.41
	c-6.6-1.02-11.01,2.12-14.23,7.5c-2.15-1.9-0.29-3.27,0.77-4.5c4.08-4.74,9.61-6.53,15.55-7.75c5.81-1.19,11.2,1.15,16.82,1.32
	c0,0-0.08-0.05-0.08-0.05c0.51,1.48,1.03,0.91,1.54,0.01c3.18,2.93,6.06,6.25,10.15,8.03c0.19,1.46,0.37,2.92,0.58,4.37
	c1.25,8.46-0.01,16.2-6.38,22.5l0.07-0.05c-0.7,0.06-0.98,0.49-1.03,1.13c-3.12,2.51,0.05,4.4,1.06,5.8
	c10.91,15.18,21.23,30.74,31.43,46.39c8.01,14.69,16.01,29.39,22.22,44.97c2.35,8.45,5.11,16.77,6.01,25.6
	c1.41,13.65-1.64,25.86-11.57,35.52c-8.45,8.21-19.31,10.42-30.8,10.29c-14.12-0.15-27.55-3.95-41.06-7.4
	c-3.1-1.16-6.15-2.47-9.31-3.44c-11.27-3.46-21.6-9.25-32.74-13.02c-13.98-7.8-29.03-13.55-42.54-22.3
	c-2.75-1.78-3.3-3.54-2.72-6.43c1.4-6.97,2.61-13.97,3.89-20.96c1.69-8.45,3.3-16.93,5.11-25.36c3.1-14.45,4.06-29.23,6.6-43.77
	c0.56-3.18,2.23-4.6,4.7-5.74c12.49-5.74,24.98-11.51,37.51-17.17c7.81-3.53,7.84-3.47,2.16-9.51c-0.55-0.59-1.24-1.05-1.86-1.56
	l0.09,0.09c-3.66-5.54-9.52-8.53-14.48-12.56c-13.55-11.03-26.96-22.21-40.06-33.76c-8.27-7.29-17.47-13.51-24.82-21.87
	c-1.12-1.28-3.1-1.81-4.69-2.68c-0.76-3.3-2.32-6.38-4.31-8.92c-6.38-8.13-8.75-17.7-10.82-27.46c-0.8-3.76-1.7-7.5-2.56-11.25
	c-0.53,4.16-0.55,8.17-0.53,12.19c0.07,17.45,0.16,34.9,0.24,52.35c-0.48,13.67-0.35,27.33,0.09,41
	c-0.66,5.61,1.14,11.32-0.71,16.88c-7.85,6-15.69,12.01-23.56,17.99c-13.73,10.42-27.5,20.79-41.18,31.28
	c-1.84,1.41-2.8,1.11-4.59-0.24c-21.39-16.1-42.88-32.05-64.35-48.05c-2.02-3.4-2.41-7.19-2.41-11.01c0-5.61,0.16-11.22,0.25-16.84
	c0.2-11.66,0.41-23.31,0.61-34.97c2.95-20.17,1.03-40.38,1.66-60.57c-0.44-0.01-0.88-0.03-1.32-0.04
	c-1.82,7.86-3.64,15.71-5.46,23.57c-4.31,8.28-9.18,16.21-14.45,23.91c-3.84,1.44-5.73,5-8.19,7.83
	c-10.48,12.08-24.81,19.52-36.14,30.74c-12.42,12.3-26.63,22.76-41.3,32.43c-1.32-0.24-2.64-0.47-3.96-0.71
	c-0.41-0.53-0.83-1.07-1.24-1.6c2.21-4.31,1.67-8.85-0.79-12.45c-1.67-2.45-2.69-4.6-2.96-7.46c-0.22-2.36-0.06-5.01-2.5-6.7
	c-2.77-1.92-3.49,1.45-5.31,2.05c-6.39,2.08-13.03,1.82-19.53,2.71c-6.22,0.85-11.65,5.69-12.82,12.23
	c-0.87,3.06-0.71,5.77,1.34,8.58c4.96,6.78,12.06,6.07,19.05,6.05c0.59,1.25-0.28,1.42-1.13,1.4c-2.46-0.05-6.01-0.82-6.75,1.54
	c-0.85,2.73,3.59,2.94,4.68,4.7c2.99,4.82,5.32,0.22,7.85-0.08c2.33-0.28,3.3-1.97,3.01-4.32c4.53,1.74,6.33-3.73,10.15-3.84
	c0.32-0.02,0.64-0.04,0.96-0.06c0.32,3.26,3.13,2.11,4.92,2.79c0.63,0.2,1.26,0.39,1.88,0.59c8.56,5.54,18.26,8.95,26.76,14.77
	c5.35,3.66,12.09,5.33,18.29,7.68c2.86,1.08,4.12,2.78,4.41,5.85c1,10.87,2.36,21.69,4.64,32.38c-0.04,0.66-0.22,1.36-0.09,1.98
	c3.76,17.86,5.86,36.04,10.48,53.72c1.18,4.53,0.37,6.94-3.98,9.39c-13.57,7.67-27.54,14.54-41.42,21.59
	c-8.66,3.68-17.32,7.35-25.98,11.03c-1.12,0.24-2.29,0.34-3.36,0.73c-14.69,5.32-29.55,10.04-45.19,11.57
	c-11.76,1.15-23.4,0.46-33.77-5.87c-14.08-8.59-17.29-22.48-16.49-37.56c0.82-15.47,6.41-29.72,12.87-43.63
	c6.76-13.65,13.98-27.04,21.97-40.01c8.7-12.25,17.46-24.46,26.05-36.79c1.06-1.52,3.46-3.45,0.9-5.56
	c-3.95-3.23-5.88-7.64-7.44-12.6C279.82,587.76,276.43,592.87,271.19,595.38z M550.04,430c-1.78-1.37-3.84-0.52-5.76-0.74
	c-4.39-0.5-6.43,1.24-6.22,5.9c0.2,4.45-0.16,8.93-0.25,13.39c-0.03,1.51-0.14,3.3,2.07,3.15c2.71-0.18,5.58,1.02,8.12-0.8
	c1,0.07,2,0.14,3,0.21c7.69,1.52,15.4-0.95,23.1,0.06c1.18,0.15,1.74-0.68,1.58-1.94c-0.76-5.72,0.56-11.65-1.7-17.22
	c-1.09-3.37-3.69-2.23-5.98-1.99c-5.36-0.59-10.68,0.21-16.02,0.42C551.33,430.29,550.69,430.15,550.04,430z"/>
<path class="st1" d="M537.54,367.08c-1.63-2.49-3.31-4.81-6.62-2.17c-2.1-0.83-2.81-2.81-3.79-4.57c1.27-0.82,1.01-1.73-0.19-2.09
	c-5.42-1.64-3.49-4.01-0.69-6.44c1.13-0.97,2.39-1.79,3.61-2.66c7.92-5.6,16.02-10.96,23.72-16.85
	c13.31-10.17,27.72-18.71,41.31-28.46c2.49,7.16,3.72,14.55,4.06,22.11c-14.72,10.14-30.34,18.8-45.58,28.1
	c-1.48,0.9-3.92,1.33-3.67,3.54c0.23,2.11,2.28,3.1,4.15,3.96c5.34,2.46,10.51,5.43,16.05,7.29c5.21,1.75,8.68,6.2,13.69,7.89
	c4.61,1.56,8.96,3.6,13.1,6.03c5.33,3.12,10.03,6.95,12.37,13.05c1.48,3.85,3.27,7.58,5.02,11.32c0.71,1.51,1.96,3.18,3.66,2.65
	c1.62-0.5,0.44-2.33,0.28-3.49c-0.84-5.91-1.85-11.8-2.74-17.71c-1.29-8.52-4.3-16.71-4.86-25.37c4.12-2.38,5.72,0.78,7.26,3.5
	c2.81,4.94,7.7,6.71,12.85,4.19c1.25-0.61,2.46-0.89,3.79-0.97c3.44,13.69,4.83,27.71,6.25,41.69c0.53,5.21,2.61,7.38,7.36,8.68
	c22.76,6.21,44.94,14.11,66.65,23.32c3.05,1.3,5.99,3.62,9.1,3.85c3.97,0.29,4.05-5.14,7.09-6.79c2.1,1.88,3.05,4.15,1.04,6.47
	c-2.68,3.08-1.71,5.55,1.07,7.46c2.73,1.87,7.47,0.18,8.67-2.97c2.02-5.3,5.62-8,11.36-7.63c-0.63,1.14-1.22,2.32-1.91,3.43
	c-2.08,3.35-8.74,4.82-7.26,8.44c1.19,2.9,7.18,3.83,11.05,5.62c0.28,0.13,0.65,0.07,0.97,0.1c8.03,4.73,16.82,7.87,25.2,11.88
	c13.13,6.29,26.42,12.27,38.8,20.01c0.97,0.61,1.98,1.22,2.79,2.01c0.65,0.64,0.48,1.6-0.07,2.28c-0.54,0.67-1.05,0.51-1.95,0.12
	c-13.6-5.83-27.15-11.77-40.92-17.17c-13.61-5.34-27.27-10.52-40.44-16.88c-3-1.45-4.21,0.65-5.68,2.42
	c-7.98,9.56-15.66,19.38-24.01,28.6c-6.76,7.47-12.7,15.69-20.23,22.45c-2.01,1.81-1.81,3.44-0.08,5
	c7.08,6.38,13.02,13.88,20.52,19.9c6.97,5.6,13.18,12.16,19.65,18.38c0.5,0.48,1.65,1.31,0.64,2.42
	c-5.62-0.16-11.01-2.51-16.82-1.32c-5.94,1.22-11.47,3-15.55,7.75c-1.06,1.23-2.91,2.6-0.76,4.5c-1.81,1.95-2.62,4.12-3,6.92
	c-1.08,7.95,3.34,12.55,8.97,16.67c-4.85-0.16-11.07-5.53-12.13-10.45c-2.22-10.36,2.97-21.61,12.63-27.52
	c1.46-0.9,3.59-1.2,3.71-3.55c0.17-1.72-0.05-1.88-2.32-1.75c0,0,0.06,0.04,0.06,0.04c-2.29-4.89-7.23-7.02-11.03-10.29
	c-1.71-1.47-2.87-4.38-6-3.7c0,0-0.1-0.03-0.1-0.03c-2.9-6.86-8.19-11.24-14.8-14.25c-15.04-14.48-28.01-30.82-41.78-46.44
	c-2.39-2.71-4.41-5.78-5.73-9.22c3.78-2.55,4.39-5.82,2.41-9.84c-1.74-3.53-3.45-7.1-4.91-10.75c-6.38-15.86-10.53-32.52-18.9-47.72
	c-3.66-6.64-7.98-12.21-13.08-17.94c-0.14,5.25-0.95,5.9-5.24,3.51c-2.85-1.59-6.38-2.07-8.49-4.95c-1.63-2.22-4.03-2.25-6.52-2.8
	c-6.53-1.43-13.12-3.13-17.33-9.17C550.54,366.79,541.09,364.66,537.54,367.08z M645.08,425.75c-3.58-0.66-2.88,1.93-2.79,3.66
	c0.54,10.61,1.27,21.21,1.73,31.83c0.1,2.32,1.52,5.08-2.18,6.71c-1.72,0.76-0.94,3.25,0.4,4.78c9.03,10.33,17.85,20.85,27.74,30.4
	c1.92,1.85,3.46,2.64,5.63,0.05c2.54-3.02,5.49-5.7,8.19-8.6c11.74-12.61,22.2-26.39,34.65-38.35c1.66-1.6,1.02-2.45-0.8-3.15
	c-1.39-0.54-2.72-1.23-4.11-1.78c-12.64-5.03-25.23-10.22-37.97-14.99C665.49,432.5,655.21,429.23,645.08,425.75z"/>
<path class="st2" d="M244,679.95c-6.46,13.91-12.05,28.16-12.87,43.63c-0.8,15.09,2.42,28.97,16.49,37.56
	c10.37,6.33,22,7.02,33.77,5.87c15.64-1.53,30.5-6.26,45.19-11.57c1.07-0.39,2.24-0.49,3.36-0.73c1.32,4.05,1.32,9.16,4.67,11.72
	c4.29,3.27,4.41,6.8,3.39,11.17c-16.99,8.11-34.56,14.51-52.74,19.51c-12.77,3.51-25.72,4.91-38.6,3.49
	c-10.45-1.16-20.32-5.16-29.14-11.84c-12.61-9.55-19.59-21.9-22.21-37.22c-2.98-17.4-0.31-34.01,6.29-50.17
	c0.72-1.76,1.2-3.62,1.79-5.43c0.23-0.28,0.47-0.56,0.7-0.84c0.53-2.13,0.93-4.3,2.22-6.15c0.26-0.3,0.51-0.59,0.77-0.89
	c3.74-8.4,8.17-16.42,13.22-24.1c0.26-0.29,0.52-0.57,0.79-0.86c0.72-2.72,2.5-4.84,4.07-7.08c5.22,1.44,9.28,5.19,14.23,7.19
	c1.74,0.71,2.33,2.38,2.77,4.32C243.08,671.64,242.28,675.99,244,679.95z"/>
<path class="st2" d="M707,247.15c19.96-8.43,40.4-14.97,62.36-14.86c21.34,0.11,39.07,8.16,52.23,25.19
	c5.22,6.76,7.77,14.88,9.09,23.21c3.18,20.11,0.85,39.78-7.77,58.16c-7.69,16.38-15.51,32.82-26.75,47.25
	c-8.88-0.74-12.15-3.44-14.16-12.04c-0.75-3.18-1.54-6.14-5.21-7.09c8.84-18.41,17.54-36.86,18.97-57.7
	c1.36-19.81-7.5-34.09-25.47-40.93c-9.45-3.59-19.27-3.02-29.05-2.25c-10,0.78-19.33,4.7-29.11,6.55c-0.86-5.31-1-10.81-7.63-13.06
	c-2.5-0.85-2.01-3.69-0.12-5.34C706.63,252.27,707.26,249.93,707,247.15z"/>
<path class="st2" d="M211.14,355c-3.4-2.5-2.83-6.99-5.06-10.07c-0.23-0.29-0.45-0.58-0.68-0.87c-0.77-2.06-1.54-4.11-2.31-6.17
	c-0.23-0.28-0.46-0.55-0.69-0.83c-0.11-0.7-0.22-1.4-0.33-2.1c-0.22-0.3-0.45-0.6-0.67-0.9c-0.11-0.7-0.22-1.41-0.33-2.11
	c-0.24-0.3-0.47-0.59-0.71-0.89c-0.43-1.36-0.87-2.72-1.3-4.09c-0.23-0.3-0.46-0.61-0.69-0.91c-0.1-1.04-0.2-2.08-0.3-3.12
	c-0.2-0.29-0.4-0.58-0.6-0.86c-0.14-1.36-0.28-2.72-0.42-4.09c-0.22-0.31-0.44-0.61-0.67-0.92c-0.11-1.05-0.21-2.09-0.32-3.14
	c-0.2-0.28-0.39-0.57-0.59-0.85c-2.15-8.77-1.71-17.8-1.09-26.56c0.64-9.16,3.63-18.19,8.24-26.3c4.6-8.09,11.56-14.59,19.18-19.27
	c6.67-4.1,14.66-6.69,22.86-7.7c19.46-2.41,38.01,1.12,56.38,7.38c10.75,3.66,21.38,7.57,31.95,11.67
	c-0.29,3.19,0.51,6.33,1.49,9.21c2.25,6.53,2.43,6.16-4.79,7.72c-3.34,0.72-8.13,0.05-8.87,5.43c-1.28-0.34-2.58-0.62-3.84-1.02
	c-15.7-4.95-31.53-9.27-48.23-7.8c-18.64,1.64-33.71,10.93-36.85,30.17c-1.43,8.73-1.16,17.41,0.59,26.13
	c1.91,9.49,5.26,18.45,8.84,27.37c-6.34,1.11-6.3,5.4-5.36,10.36c0.32,1.69,0.53,3.84-1.57,4.8c-2.08,0.95-3.89-0.13-5.45-1.41
	C223.73,358.96,218.08,355.61,211.14,355z"/>
<path class="st2" d="M712.12,760.12c13.51,3.45,26.94,7.25,41.06,7.4c11.5,0.12,22.35-2.09,30.8-10.29
	c9.94-9.65,12.98-21.86,11.57-35.52c-0.91-8.84-3.67-17.15-6.01-25.6c4.58-2.27,3.91-5.81,2.41-9.64
	c-1.86-4.74-3.73-9.49-5.37-14.31c-0.99-2.89,1.37-8.33,3.46-8.02c3.31,0.49,7.09-0.17,9.83,2.33c2.5,2.28,5.1,2.7,8.12,1.49
	c13.9,22.12,24.29,45.33,24.03,72.23c-0.25,25.28-11.71,43.06-34.23,54.33c-10.14,5.08-20.71,6.24-31.75,6.37
	c-11.93,0.15-23.16-2.75-34.49-6.03c-8.05-2.33-15.67-5.69-23.54-8.41c0.01-1.99-0.22-3.77-1.41-5.61
	c-5.11-7.96-3.78-13.62,4.06-18.85C711.28,761.58,711.64,760.76,712.12,760.12z"/>
<path class="st2" d="M579.57,185.08c0.27,4.06,3.71,6.94,4.05,10.97c-3.43-0.44-6.14,0.63-6.46,4.34c-0.41,4.77-3.39,4.97-6.97,4.67
	c-2.67-0.22-4.34-2.06-6.36-3.49c-2.58-1.83-5.23-5.37-8.87-1.43c-0.76-1.07-1.61-2.08-2.26-3.2
	c-7.31-12.61-16.32-23.66-28.77-31.58c-6.48-4.13-12.85-4.91-20.14-1.33c-9.99,4.91-16.58,13.32-23.94,21.02
	c-8.47,3.07-14.71,8.49-17.67,17.18c-0.54,1.58-0.53,3.17-2.59,3.75c-7.8,2.22-12.84-2.18-11.07-9.87
	c0.94-4.09,0.92-7.86-2.34-11.01c0-2.87,3.71-4.03,3.28-7.1c0.19-0.28,0.38-0.55,0.58-0.83c4.27-9.44,10.44-17.72,15.87-26.46
	c4.95-7.97,11.38-14.47,18.42-20.34c16.56-13.82,40.41-12.87,56.89,0.49c10.25,8.31,17.07,19.11,24.38,29.64
	c4.75,6.84,8.38,14.33,12.36,21.61C577.94,183.42,577.77,184.78,579.57,185.08z"/>
<path class="st2" d="M485.16,901.89c-5.4-2.41-8.66-7.25-12.42-11.39c-1.75-1.93-4.26-3.66-4.71-6.65c-0.08-4.76-1.27-8.87-4.18-13
	c-3.67-5.2-5.97-11.35-8.93-17.05c-1.37-2.65-1.22-5.16,0.52-7.48c1.62-2.15,3.81-1.51,5.89-0.77c1.53,0.55,2.98,0.37,4.29-0.48
	c3.23-2.12,6.82-2.36,10.51-2.19c1.93,1.4,3.15,3.4,4.43,5.33c5.42,8.18,12.16,14.92,21.07,19.27c8.04,3.92,15.84,3.86,23.71-0.87
	c11.88-7.14,20.11-17.55,27.16-29.13c5.86-9.63,9.98-20.21,16.17-29.67c2.29,1.22,4.66,1.5,7.16,0.67c6.47-2.14,7.76-1.06,8.22,5.97
	c0.26,4.02-1.2,7.78-1.14,11.77c0.05,2.76,0.88,4.05,3.7,3.72c-3.6,12.56-9.94,23.81-16.58,34.93c-6,10.05-12.35,19.83-20.11,28.63
	c-5.14,5.83-11.58,9.83-18.38,13.45c-7.9,4.21-16.31,4.97-25.01,4.87c-2.1-0.02-3.49-1.94-5.57-1.37c-0.14-0.32-0.39-0.51-0.75-0.58
	c-0.73-0.12-1.46-0.25-2.19-0.37c-0.12-1.05-0.41-1.86-1.74-1.27c-0.84,0.3-1.74,0.83-2.25-0.47c-0.31-0.29-0.62-0.58-0.92-0.87
	c-1.37-0.65-2.75-1.3-4.12-1.96c0.01-1.79-1.2-2.11-2.62-2.16c0,0-0.29-0.1-0.29-0.1C485.76,902.42,485.46,902.16,485.16,901.89z"/>
<path class="st3" d="M363.02,266.2c8.17,2.67,15.22,7.58,22.71,11.59c7.25,3.88,14.83,7.23,21.48,12.17c2.55,1.9,3.2,0.9,3.71-1.68
	c2.2-11.02,6.1-21.64,8.01-32.75c0.19-1.12,0.57-2.95,2.3-3.43c2.23,0.14,3.49-0.46,4.11-3.06c0.58-2.44,2.67-4.15,5.61-3.99
	c1.34,0.07,2.81-0.02,2.98,1.83c0.49,5.15,3.69,3.25,6.05,2.07c2.69-1.35,4.49-3.64,5.55-6.67c0.94-2.66,1.84-6.06,6.08-4.99
	c-0.76,2.18-1.48,4.38-2.29,6.55c-7,18.78-13.32,37.79-19.17,56.96c-2.32,7.83-5.19,15.54-5.16,23.88
	c-2.07,0.99-1.66,3.11-2.02,4.77c-2.88,13.5-5.65,27.03-8.46,40.54c-3.84-0.36-7.15,0.61-9.71,3.68c-0.89,1.06-2.36,1.97-3.43,0.85
	c-2.96-3.09-6.42-1.45-9.71-1.46c0.09-1.32,0-2.68,0.3-3.95c4.04-17.24,5.85-34.94,10.67-52.01c0.96-3.4-0.01-5.03-3.1-6.57
	c-14.63-7.28-28.57-15.89-43.57-22.46c10.87-8.29,10.87-8.28,7.14-20.38C362.97,267.22,363.04,266.7,363.02,266.2z"/>
<path class="st3" d="M355.92,743.69c13.88-7.05,27.85-13.92,41.42-21.59c4.35-2.46,5.16-4.86,3.98-9.39
	c-4.62-17.68-6.72-35.86-10.48-53.72c-0.13-0.63,0.05-1.32,0.09-1.98c3.04,0.28,2.96-4,5.8-3.97c4.26,0.04,7.52,1.65,9.66,5.59
	c1.87,3.44,3.93,6.92,8.5,7.36c1.35,4.57,1.99,9.31,3.09,13.92c2.11,8.82,1.96,18.16,6.02,26.53c3.52,6.48,4.3,13.76,6.13,20.74
	c-0.69,1.48-0.29,2.94,0.15,4.36c1.92,6.33,4.04,12.6,5.78,18.98c1.87,6.85,4.88,13.35,6.1,20.39c-4.92,0.57-7.18-3.4-10.14-6.07
	c-1.07-0.96-1.61-2.84-3.38-2.44c-1.62,0.36-1.99,2.13-2.45,3.52c-0.51,1.57-1.17,3.24-1.07,4.82c0.29,4.54-1.62,5.67-5.64,4.21
	c-2.14-6.9-4.39-13.77-6.37-20.72c-1.27-4.46-1.85-9.12-3.94-13.34c-0.14-0.26-0.29-0.52-0.43-0.78c-0.3,0.26-0.61,0.52-0.91,0.78
	c-7.74,4.57-15.45,9.18-23.22,13.69c-6.77,3.93-13.34,8.22-20.67,11.12c0.78-5.37-0.47-9.81-5.55-12.65
	c-1.95-1.09-2.76-3.04-2.14-5.11C356.72,746.36,356.69,745.06,355.92,743.69z"/>
<path class="st3" d="M598.95,325.95c-0.34-7.55-1.57-14.95-4.06-22.11c0.89-2.15,0.28-4.21-0.3-6.3c-1.42-5.09-2.79-10.2-4.18-15.3
	c4.6-0.67,7.26-5.08,11.69-6.1c0.32-0.07,0.66-0.78,0.7-1.22c0.45-4.49,3.66-4.87,7.14-4.88c2.8,5.44,3.73,11.51,5.91,17.15
	c0.48,1.24,0.03,4.21,3.13,2.89c5.49-3.29,11.39-5.9,16.44-9.91c11.75-4.84,22.24-12.09,33.66-17.54c1.56-0.74,2.96-1.94,4.87-1.64
	c-0.2,3.29,1.15,6.93-3.38,8.9c-2.58,1.12-7.32,1.46-6.31,5.68c1.09,4.55,5.61,2.19,8.57,2.35c4.35,0.24,6.96,1.78,7.2,6.35
	c-18.42,7.54-35.86,17.02-53.27,26.59c-2.85,1.57-3.64,2.78-2.79,6.47c4,17.41,8.17,34.82,10.35,52.6
	c-1.33,0.08-2.53,0.36-3.79,0.97c-5.15,2.52-10.04,0.76-12.85-4.19c-1.54-2.72-3.15-5.87-7.26-3.5c-2.31-11.49-4.6-22.98-6.95-34.47
	C602.98,326.34,602.48,323.63,598.95,325.95z"/>
<path class="st3" d="M628.71,693.97c-1.29,6.99-2.49,13.99-3.89,20.96c-0.58,2.9-0.04,4.65,2.72,6.43
	c13.51,8.75,28.56,14.5,42.54,22.3c-0.21,2.49-1.69,3.4-4.03,3.3c-2.47-0.11-4.95-0.04-7.4-0.32c-1.17-0.13-2.29-0.67-3.1,0.54
	c-0.79,1.2-0.98,2.78,0.08,3.68c4.07,3.44,5.33,9.27,10.15,11.95c2.77,1.54,3.49,3.74,3.2,6.59c-12.48-4.89-23.71-12.17-35.42-18.52
	c-4.7-2.55-8.73-6.14-13.39-8.84c-3.72-2.15-4.65-0.55-5.27,2.48c-2.29,11.14-5.87,21.92-9.21,32.76c-1.29,4.2-2.98,8.27-3.83,12.61
	c-1.58-2.45-2.54-5.05-1.35-7.92c0.8-1.93,0-3.28-1.38-4.33c-2.83-2.16-3.29-5.01-3.21-8.35c0.14-5.61-1.23-6.39-6.73-4.63
	c-1.06,0.34-2.29,0.16-3.44,0.22c3.46-11.98,6.91-23.96,10.37-35.94c2.05-2.65,0.13-5.08-0.52-7.53c-0.61-2.32-1.55-4.79,1.1-6.21
	c4.09-2.2,4.67-5.69,4.32-9.72c2.79,0.2,2.36-2.2,2.72-3.66c1.05-4.27,1.83-8.61,2.71-12.92c6.92,0.27,14.63-2.95,19.92,4.6
	C626.71,693.97,627.91,693.83,628.71,693.97z"/>
<path class="st1" d="M363.41,516.24c-11.57,13.01-24.46,24.65-37.42,36.22c-3.33,2.97-9.63,5.95-14.24,6.73
	c-3.7,0.62-7.41,1.23-11.12,1.84c1.05-7.98,7.39-11.91,12.86-16.33c8.8-7.1,15.75-16.13,24.57-23.19c2.22-1.78,0.31-3.32-0.89-4.55
	c-7.18-7.36-13.28-15.66-20.39-23.1c-6.16-6.44-11.36-13.8-16.98-20.75c6.65-1.01,8.41-7.86,13.22-11.07
	c2.6,1.25,4.65,3.23,6.43,5.37c10.4,12.52,21.64,24.27,32.5,36.38c1.57,1.75,2.83,1.84,3.95,0.21c3.4-4.98,8.67-8.09,12.32-12.86
	c5.04-6.58,10.58-12.77,15.91-19.12c0.43,3.24,3.82,6.05,2.01,9.51c-2.04,3.9-3.62,8.21-7.21,11.1c-5.67,4.56-7.78,11.8-12.83,16.8
	c-1.26,1.25-0.65,2.38-0.07,3.59c-0.26,0.34-0.53,0.69-0.79,1.03c-0.94,0.05-2.06-0.32-2.65,0.68
	C362.18,515.42,362.89,515.86,363.41,516.24z"/>
<path class="st4" d="M419.5,774.96c4.02,1.45,5.93,0.32,5.64-4.21c-0.1-1.58,0.56-3.26,1.07-4.82c0.46-1.39,0.82-3.16,2.45-3.52
	c1.76-0.4,2.31,1.48,3.38,2.44c2.96,2.67,5.22,6.63,10.14,6.07c0.29,0.59,0.63,1.15,0.86,1.76c5.74,15.5,11.39,31.03,19.5,45.52
	c4.59,8.2,9.07,16.47,13.6,24.71c-3.69-0.17-7.28,0.06-10.51,2.19c-1.31,0.86-2.76,1.03-4.29,0.48c-2.09-0.75-4.28-1.38-5.89,0.77
	c-1.74,2.31-1.89,4.83-0.52,7.48c2.96,5.7,5.26,11.85,8.93,17.05c2.91,4.13,4.1,8.24,4.18,13c-7.73-9.7-14.33-20.04-19.55-31.39
	c-7.6-16.54-14.43-33.37-20.62-50.47C424.64,793.13,421.44,784.23,419.5,774.96z"/>
<path class="st2" d="M686.71,837.12c-1.5,15.75-11.05,24.85-26.19,25.18c-12.74,0.28-24.27-9.82-24.49-26.66
	c-0.2-14.51,11.76-25.33,27.55-24.09C675.34,812.48,686.68,821.33,686.71,837.12z"/>
<path class="st2" d="M173.39,542.92c-0.44-0.18-0.87-0.36-1.31-0.54c-0.39-1.63-1.68-1.42-2.87-1.4c-1.01-0.4-1.73-1.1-2.11-2.13
	c2.22-5.16-1.18-5.64-4.88-5.87c-5.7-8.12-5.91-18.87-0.18-27.44c5.84-8.73,14.29-11.94,24.57-10.9c4.36,0.44,8.1,2.71,12.2,3.9
	c0.48,0.88,1.2,1.48,2.18,1.74c3.14,4.26,6.59,8.49,7.31,13.89c2.43,18.26-7.58,30.58-27.14,30.64c-1.33,0-2.66-0.17-3.99-0.26
	C176.51,542.6,174.87,542.95,173.39,542.92z"/>
<path class="st2" d="M635.97,199.69c1.03-15.08,7.92-24.59,26.9-24.65c9.97-0.03,24.31,8.46,23.87,25
	c-0.35,13.22-11.98,25.02-24.98,25.01C647.06,225.05,635.92,214.09,635.97,199.69z"/>
<path class="st2" d="M842.58,544.76c-14.14,0.78-24.31-12.39-23.63-24.6c0.91-16.48,7.29-25.01,22.8-25.72
	c13.98-0.64,26.58,10.55,27.28,23.82C869.82,533.32,857.01,545.24,842.58,544.76z"/>
<path class="st2" d="M362.94,811.94c14.33-1.34,26.25,11.45,25.78,25.15c-0.48,14.2-9.35,24.9-29.39,24.84
	c-9.75-0.03-21.96-13.89-21.11-25.5C339.17,823.39,345.38,811.94,362.94,811.94z"/>
<path class="st2" d="M363.6,224.06c-18.05,0.1-24.56-11.17-25.12-23.81c-0.69-15.67,10.78-25.7,26.46-25.45
	c11.89,0.19,25.72,13.49,24.51,24.41C387.81,214.01,379.53,224.39,363.6,224.06z"/>
<path class="st4" d="M609.94,270.05c-3.48,0.01-6.69,0.39-7.14,4.88c-0.04,0.44-0.38,1.15-0.7,1.22c-4.43,1.03-7.09,5.44-11.69,6.1
	c-2.36-6.92-4.69-13.84-7.07-20.75c-7.39-21.41-18.3-41.2-28.37-61.37c3.64-3.94,6.28-0.4,8.87,1.43c2.02,1.43,3.68,3.27,6.36,3.49
	c3.58,0.29,6.56,0.09,6.97-4.67c0.32-3.71,3.03-4.78,6.46-4.34c5.53,10.85,9.01,22.51,13.4,33.81c2.73,7.03,5.16,14.19,7.72,21.29
	c-1.22,0.96-0.49,1.52,0.42,2.04c0.28-0.01,0.55,0.06,0.79,0.2c0,0.01,0.04-0.13,0.04-0.13c0.01,1.26,0.02,2.52,0.02,3.79
	c-3.1,3.96-1.47,8.53,3.56,10.04C609.7,268.06,609.82,269.06,609.94,270.05z"/>
<path class="st4" d="M211.14,355c6.94,0.61,12.59,3.96,17.84,8.25c1.56,1.27,3.37,2.35,5.45,1.41c2.1-0.95,1.89-3.11,1.57-4.8
	c-0.94-4.96-0.98-9.25,5.36-10.36c0.37,0.54,0.83,1.04,1.08,1.64c5.79,13.75,13.08,26.68,20.56,39.58
	c3.81,6.58,8.72,12.44,12.02,19.31c-1.19,1.36-2.31,2.78-3.57,4.07c-6.26,6.44-9.15,6.79-15.78,0.83c-2.82-2.54-5.72-4.24-9.36-4.9
	c-12.88-16.68-24.44-34.22-34.51-52.74C211.38,356.51,211.08,355.84,211.14,355z"/>
<path class="st4" d="M451.62,237.29c-4.25-1.08-5.15,2.32-6.08,4.99c-1.06,3.03-2.86,5.33-5.55,6.67c-2.37,1.18-5.56,3.08-6.05-2.07
	c-0.18-1.85-1.64-1.76-2.98-1.83c-2.94-0.15-5.02,1.56-5.61,3.99c-0.62,2.6-1.88,3.19-4.11,3.06c0.84-7.19,4.19-13.62,6.36-20.39
	c3.08-9.66,6.69-19.18,10.69-28.49c2.6-6.05,5.48-11.98,7.9-18.11c3.25,3.15,3.28,6.91,2.34,11.01c-1.77,7.68,3.28,12.08,11.07,9.87
	c2.06-0.59,2.06-2.18,2.59-3.75c2.96-8.69,9.2-14.11,17.67-17.18c-0.47,3.7-3.65,5.79-5.3,8.83
	C466.74,208.26,458.61,222.47,451.62,237.29z"/>
<path class="st3" d="M246.31,410.01c3.63,0.66,6.53,2.36,9.36,4.9c6.63,5.96,9.52,5.62,15.78-0.83c1.25-1.29,2.38-2.71,3.57-4.07
	c8.21,11.54,16.54,23,24.55,34.68c1.6,2.33,3.07,2.62,5.33,1.87c0.53,1.31,0.99,2.5,0.46,4.07c-0.73,2.17,0.65,3.2,2.73,3.4
	c0.7,3.25,3.36,5.29,4.94,8c-4.81,3.21-6.57,10.06-13.22,11.07c-3.02-3.31-6.04-6.61-9.06-9.91c-2.07-3.19-4.71-5.5-8.73-5.71
	c1.27-1.09,2.37-2,0.53-3.74c-2.95-2.8-5.67-5.85-8.48-8.79c-0.26-0.35-0.51-0.69-0.77-1.04c-0.59-1.52-1.54-2.7-3.12-3.28
	c-4.32-5.09-8.87-10.01-12.89-15.33C253.51,420.31,249.13,415.71,246.31,410.01z"/>
<path class="st4" d="M668.98,769.39c0.29-2.85-0.43-5.05-3.2-6.59c-4.81-2.68-6.07-8.51-10.15-11.95c-1.06-0.9-0.87-2.47-0.08-3.68
	c0.8-1.22,1.92-0.68,3.1-0.54c2.45,0.28,4.93,0.22,7.4,0.32c2.34,0.1,3.82-0.81,4.03-3.3c11.14,3.77,21.47,9.56,32.74,13.02
	c3.16,0.97,6.21,2.29,9.31,3.44c-0.48,0.64-0.84,1.46-1.47,1.88c-7.84,5.23-9.18,10.89-4.06,18.85c1.19,1.85,1.42,3.62,1.41,5.61
	C694.87,781.04,681.13,777.03,668.98,769.39z"/>
<path class="st4" d="M807.98,667.96c-3.02,1.21-5.62,0.79-8.12-1.49c-2.74-2.5-6.51-1.84-9.83-2.33c-2.09-0.31-4.44,5.13-3.46,8.02
	c1.64,4.82,3.51,9.56,5.37,14.31c1.5,3.83,2.17,7.37-2.41,9.64c-6.21-15.58-14.21-30.28-22.22-44.97c1.77-0.14,2.59-1.05,2.64-2.87
	c0.05-2.02-0.32-3.86-1.18-5.71c-4.52-9.73-1.42-14.56,9.25-14.58c0.99,0,1.97-0.01,2.96-0.01
	C791.32,640.4,800.49,653.61,807.98,667.96z"/>
<path class="st3" d="M781,627.96c-0.99,0-1.97,0.01-2.96,0.01c-10.67,0.01-13.77,4.85-9.25,14.58c0.86,1.85,1.23,3.69,1.18,5.71
	c-0.05,1.82-0.87,2.73-2.64,2.87c-10.2-15.65-20.53-31.21-31.43-46.39c-1-1.39-4.18-3.28-1.06-5.8c0.34-0.38,0.69-0.76,1.03-1.13
	c0,0-0.07,0.05-0.07,0.05c5.58-0.17,7.05-4.71,9.12-8.61c2.43-0.45,4.18,0.96,5.77,2.37C762.63,602.2,772.08,614.86,781,627.96z"/>
<path class="st3" d="M271.19,595.38c5.24-2.51,8.63-7.62,14.29-10.38c1.56,4.96,3.49,9.37,7.44,12.6c2.57,2.1,0.17,4.04-0.9,5.56
	c-8.6,12.32-17.35,24.54-26.05,36.79c-1.56-0.63-1.64-2.82-2.75-3.33c-3.28-1.51-3.22-8.15-8.91-5.76c-1.49,0.63-3.16,1.97-4.58,0.5
	c-1.5-1.55,0.71-2.98,0.78-4.5c0.08-1.67,3.25-4-0.81-5.01c4.79-7.4,10.22-14.31,16.18-20.8
	C267.64,599.14,269.42,597.27,271.19,595.38z"/>
<path class="st3" d="M752.92,444.01c-5.74-0.37-9.34,2.32-11.36,7.63c-1.2,3.15-5.94,4.84-8.67,2.97c-2.79-1.91-3.76-4.38-1.07-7.46
	c2.01-2.31,1.06-4.59-1.04-6.47c4.72-7.07,9.4-14.17,14.17-21.2c4.22-6.21,8.54-12.35,12.81-18.52c2.44-0.05,4.24,0.66,4.19,3.55
	c-0.03,1.41,0.61,2.35,1.64,3.36c3.91,3.86,8.27,6.26,13.97,5.13c-4.12,7.61-9.91,13.99-15.32,20.64c-1.56,1.92-3.44,3.56-4.44,5.88
	C756.18,441.02,754.55,442.51,752.92,444.01z"/>
<path class="st4" d="M585.76,764.88c1.15-0.06,2.38,0.12,3.44-0.22c5.5-1.76,6.86-0.98,6.73,4.63c-0.08,3.34,0.37,6.19,3.21,8.35
	c1.38,1.05,2.18,2.4,1.38,4.33c-1.19,2.87-0.23,5.47,1.35,7.92c-3.97,10.68-8.74,21.07-11.09,32.33c-0.57,2.75-2.73,5.17-4.15,7.74
	c-2.82,0.33-3.66-0.96-3.7-3.72c-0.07-3.98,1.4-7.74,1.14-11.77c-0.46-7.03-1.75-8.12-8.22-5.97c-2.5,0.83-4.87,0.55-7.16-0.67
	c2.23-6.53,5.14-12.77,8.35-18.88c3.29,0.36,5.88-0.22,6.57-4.16c0.67-3.83,3.79-7.83-1.19-11.02
	C582.76,770.52,584.24,767.69,585.76,764.88z"/>
<path class="st4" d="M249.7,621.84c4.06,1.01,0.89,3.35,0.81,5.01c-0.07,1.51-2.28,2.95-0.78,4.5c1.42,1.47,3.09,0.12,4.58-0.5
	c5.68-2.39,5.63,4.26,8.91,5.76c1.11,0.51,1.18,2.7,2.75,3.33c-7.99,12.97-15.21,26.36-21.97,40.01c-1.72-3.97-0.92-8.31-1.86-12.43
	c-0.44-1.94-1.02-3.61-2.77-4.32c-4.95-2.01-9.01-5.75-14.23-7.19C232.42,643.97,240.07,632.19,249.7,621.84z"/>
<path class="st4" d="M680.04,284.28c-0.24-4.57-2.84-6.11-7.2-6.35c-2.97-0.16-7.48,2.2-8.57-2.35c-1.01-4.22,3.73-4.56,6.31-5.68
	c4.53-1.97,3.18-5.61,3.38-8.9c10.75-5.25,21.52-10.45,33.05-13.84c0.26,2.78-0.37,5.12-2.62,7.08c-1.89,1.65-2.37,4.49,0.12,5.34
	c6.62,2.25,6.76,7.75,7.63,13.06C701.43,276.52,690.74,280.4,680.04,284.28z"/>
<path class="st4" d="M777.57,413c-5.7,1.13-10.06-1.27-13.97-5.13c-1.02-1.01-1.67-1.95-1.64-3.36c0.05-2.89-1.75-3.59-4.19-3.55
	c6-11.52,13.53-22.18,19.02-33.98c3.67,0.95,4.46,3.9,5.21,7.09c2.01,8.6,5.29,11.3,14.16,12.04
	C790.84,395.67,784.68,404.66,777.57,413z"/>
<path class="st4" d="M363.02,266.2c0.03,0.49-0.05,1.02,0.09,1.48c3.72,12.1,3.73,12.1-7.14,20.38
	c-11.71-4.47-23.41-8.94-35.12-13.41c0.73-5.37,5.52-4.7,8.87-5.43c7.22-1.56,7.03-1.19,4.79-7.72c-0.99-2.87-1.78-6.01-1.49-9.21
	C342.99,256.99,353.5,260.52,363.02,266.2z"/>
<path class="st1" d="M282.02,457.49c4.02,0.21,6.66,2.52,8.73,5.71c-23.82,8.77-46.59,20.11-70.38,28.94
	c-5.99,2.23-12.2,3.89-18.31,5.81c-0.56-0.31-1.12-0.62-1.69-0.93c6.19-5.18,13.67-8.13,20.68-11.88c3.3-1.76,7.05-2.59,10.08-4.92
	C248.34,473.18,264.53,463.89,282.02,457.49z"/>
<path class="st4" d="M355.92,743.69c0.77,1.37,0.8,2.67,0.33,4.25c-0.61,2.07,0.2,4.02,2.14,5.11c5.08,2.84,6.34,7.28,5.55,12.65
	c-8.56,4.17-16.72,9.2-25.95,11.91c1.02-4.37,0.9-7.89-3.39-11.17c-3.36-2.56-3.35-7.68-4.67-11.72
	C338.6,751.04,347.26,747.36,355.92,743.69z"/>
<path class="st1" d="M744.93,589.26c-2.07,3.9-3.54,8.43-9.12,8.61c6.37-6.3,7.64-14.04,6.38-22.5c-0.22-1.46-0.39-2.92-0.58-4.37
	c26.49-10.43,53.71-18.92,79.91-30.15c0.22,0.43,0.43,0.86,0.65,1.3c-5.76,3.11-11.53,6.18-17.26,9.34
	c-9.65,5.32-19.89,9.46-29.89,13.94c-8.36,3.75-17.02,6.98-25.32,11c-1.22,0.59-2.32,1.26-3.12,2.35c-3.25,1.73-1.46,4.74-1.83,7.21
	C743.95,587.12,743.88,588.22,744.93,589.26z"/>
<path class="st1" d="M287,570.99c-0.24,3.91-1.12,5.88-5.82,3.65c-4.05-1.92-8.73-2.52-13.14-3.7c-9.1-2.7-17.25-7.89-26.52-10.15
	c-2.95-1.76-5.95-3.41-9.35-4.14c-0.73-1-1.87-0.99-2.93-1.19c-4.62-2.41-9.24-4.8-14.19-6.47c-1.97-2.24-5.1-2.33-7.37-4.01
	c0-0.63,0.01-1.26,0.01-1.89c17.49,5.85,35.02,11.57,52.44,17.59C269.2,563.83,278.66,565.97,287,570.99z"/>
<path class="st0" d="M282.02,457.49c-17.48,6.41-33.68,15.69-50.88,22.74c-0.1-1.5,0.55-2.55,1.89-3.19
	c12.86-6.14,23.38-16.43,37.3-20.8c5.78-1.81,4.25-6.92,3.74-11.28c2.81,2.94,5.53,6,8.48,8.79
	C284.39,455.49,283.28,456.4,282.02,457.49z"/>
<path class="st0" d="M752.92,444.01c1.63-1.49,3.26-2.99,4.89-4.48c0.2,7.43-1.71,14.67-2.03,22.06c-0.33-0.03-0.69,0.03-0.97-0.1
	c-3.87-1.78-9.86-2.72-11.05-5.62c-1.48-3.62,5.18-5.09,7.26-8.44C751.7,446.32,752.29,445.15,752.92,444.01z"/>
<path class="st0" d="M635.42,280.18c-5.05,4.01-10.95,6.62-16.44,9.91c-0.27-2.4,0.42-4,2.94-4.97
	C626.39,283.4,629.8,278.81,635.42,280.18z"/>
<path class="st0" d="M215.05,549c4.95,1.67,9.58,4.06,14.19,6.47c-0.08,0.14-0.13,0.36-0.25,0.42
	C224.89,557.82,216.08,553.46,215.05,549z"/>
<path class="st3" d="M609.57,267.07c-5.04-1.5-6.66-6.07-3.56-10.04C608.35,259.97,608.58,263.65,609.57,267.07z"/>
<path class="st0" d="M232.17,556.66c3.41,0.73,6.4,2.38,9.35,4.14C236.19,562.77,233.85,561.74,232.17,556.66z"/>
<path class="st3" d="M162.22,532.97c3.71,0.23,7.1,0.71,4.88,5.87C163.93,538.17,162.96,535.67,162.22,532.97z"/>
<path class="st0" d="M744.74,585.98c0.36-2.46-1.42-5.47,1.83-7.21C748.66,581.86,749.48,584.63,744.74,585.98z"/>
<path class="st0" d="M270.18,440.64c1.58,0.58,2.53,1.76,3.12,3.28C270.73,444.28,269.77,443.11,270.18,440.64z"/>
<path class="st3" d="M173.39,542.92c1.48,0.04,3.13-0.32,3.79,1.62C175.25,545.55,174.32,544.24,173.39,542.92z"/>
<path class="st0" d="M207.69,543.11c0,0.63-0.01,1.26-0.01,1.89c-1.21-0.19-2.6-0.74-2.22-2.02
	C205.93,541.38,206.95,542.63,207.69,543.11z"/>
<path class="st0" d="M200.38,497.02c0.56,0.31,1.12,0.62,1.69,0.93c-0.36,0.78-0.71,1.55-1.07,2.33c-0.98-0.26-1.7-0.85-2.18-1.74
	C199.06,497.74,199.54,497.2,200.38,497.02z"/>
<path class="st3" d="M169.21,540.98c1.2-0.02,2.48-0.22,2.87,1.4C170.52,543.14,169.68,542.44,169.21,540.98z"/>
<path class="st4" d="M579.57,185.08c-1.8-0.29-1.63-1.66-1.6-2.95C579.17,182.75,580.04,183.55,579.57,185.08z"/>
<path class="st4" d="M486.36,902.79c1.43,0.05,2.63,0.37,2.62,2.16C487.64,904.8,486.62,904.25,486.36,902.79z"/>
<path class="st3" d="M605.16,253.18c-0.9-0.52-1.64-1.08-0.42-2.04C605.86,251.62,605.65,252.37,605.16,253.18z"/>
<path class="st4" d="M496.28,908.25c1.32-0.6,1.62,0.21,1.74,1.27C496.76,910.02,496.3,909.44,496.28,908.25z"/>
<path class="st4" d="M195.49,313.08c0.2,0.28,0.39,0.57,0.59,0.85C195.53,313.89,195.03,313.82,195.49,313.08z"/>
<path class="st4" d="M221.08,663.1c-0.26,0.29-0.52,0.57-0.79,0.86C220.11,663.26,220.46,663.05,221.08,663.1z"/>
<path class="st4" d="M205.4,344.06c0.23,0.29,0.45,0.58,0.68,0.87C205.48,344.92,205.03,344.81,205.4,344.06z"/>
<path class="st4" d="M207.07,688.05c-0.26,0.3-0.51,0.59-0.77,0.89C206.07,688.22,206.45,688.03,207.07,688.05z"/>
<path class="st3" d="M605.99,253.25c0,0-0.04,0.14-0.04,0.13c0-0.01,0.12,0.27,0.12,0.27L605.99,253.25z"/>
<path class="st4" d="M204.08,695.09c-0.23,0.28-0.47,0.56-0.7,0.84C203.06,695.2,203.48,695.06,204.08,695.09z"/>
<path class="st0" d="M407.84,740.89c0.3-0.26,0.61-0.52,0.91-0.78c0.14,0.26,0.29,0.52,0.43,0.78
	C408.74,740.89,408.29,740.89,407.84,740.89z"/>
<path class="st4" d="M202.4,337.06c0.23,0.28,0.46,0.55,0.69,0.83C202.49,337.92,202.07,337.8,202.4,337.06z"/>
<path class="st4" d="M450.04,177.18c-0.19,0.28-0.38,0.55-0.58,0.83C449.03,177.3,449.51,177.23,450.04,177.18z"/>
<path class="st4" d="M201.4,334.06c0.22,0.3,0.45,0.6,0.67,0.9C201.5,334.92,201.03,334.8,201.4,334.06z"/>
<path class="st4" d="M200.36,331.06c0.24,0.3,0.47,0.59,0.71,0.89C200.48,331.93,200.07,331.78,200.36,331.06z"/>
<path class="st4" d="M485.16,901.89c0.3,0.27,0.61,0.53,0.91,0.8C485.36,902.89,485.1,902.58,485.16,901.89z"/>
<path class="st1" d="M731.45,562.96c-0.52,0.9-1.04,1.47-1.54-0.01C730.42,562.54,730.94,562.55,731.45,562.96z"/>
<path class="st4" d="M493.11,906.91c0.31,0.29,0.62,0.58,0.92,0.87C493.34,907.89,493.06,907.57,493.11,906.91z"/>
<path class="st4" d="M197.48,322.07c0.2,0.29,0.4,0.58,0.6,0.86C197.53,322.9,197.03,322.82,197.48,322.07z"/>
<path class="st4" d="M500.21,909.88c0.35,0.06,0.6,0.26,0.75,0.58C500.22,910.89,500.18,910.43,500.21,909.88z"/>
<path class="st4" d="M196.4,317.07c0.22,0.31,0.44,0.61,0.67,0.92C196.49,317.93,196.02,317.81,196.4,317.07z"/>
<path class="st4" d="M198.38,326.06c0.23,0.3,0.46,0.61,0.69,0.91C198.47,326.94,198.01,326.81,198.38,326.06z"/>
<path class="st1" d="M628.71,693.97c-0.8-0.15-2-0.01-2.33-0.48c-5.29-7.55-13-4.33-19.92-4.6c3.59-19.3,7.18-38.59,10.88-58.46
	c-12.38,4.46-23.99,8.78-35.69,12.83c-14.28,4.95-28.66,9.61-43.95,10.28c-3.48,0.15-6.71,0.92-9.86,3.48
	c2.79,1.38,4.01,3.72,6.1,5.37c6.27,4.94,13.46,8.33,19.96,12.84c5.67,3.93,11.24,8.02,17.06,11.71
	c9.95,6.3,19.62,13.05,30.07,18.54c0.35,4.03-0.22,7.52-4.32,9.72c-2.64,1.42-1.71,3.89-1.1,6.21c0.64,2.45,2.57,4.88,0.52,7.53
	c-12.44-8.78-25.11-17.27-37.28-26.43c-14.16-10.65-29.33-19.99-42.31-32.21c-1.93-1.81-4.11-3.16-6.92-0.54
	c-9.67,9.01-20.56,16.51-31.22,24.23c-15.81,11.45-31.46,23.15-48.25,33.19c-1.83-6.98-2.61-14.27-6.13-20.74
	c6.27-2.78,11.79-6.87,17.32-10.76c18.52-13.04,37.86-24.84,56.69-37.94c-2.1-2.05-4.58-3.33-7.39-3.48
	c-8.72-0.46-17.1-2.92-25.26-5.4c-17.95-5.44-35.86-11.14-53.34-18.03c-1-0.39-2.02-1.59-3.11-0.51c-0.84,0.84,0.13,1.86,0.24,2.8
	c1.3,11.06,5.14,21.68,5.75,32.86c-4.57-0.44-6.63-3.92-8.5-7.36c-2.14-3.94-5.4-5.55-9.66-5.59c-2.84-0.03-2.76,4.25-5.8,3.97
	c-2.28-10.69-3.64-21.51-4.64-32.38c-0.28-3.07-1.55-4.77-4.41-5.85c-6.2-2.35-12.95-4.02-18.29-7.68
	c-8.5-5.83-18.2-9.23-26.76-14.77c0.49-1.34,1.51-1.98,2.83-2.47c1.85-0.67,1.49-1.83,0.3-2.95c14.67-9.67,28.88-20.13,41.3-32.43
	c11.33-11.21,25.66-18.66,36.14-30.74c2.46-2.83,4.35-6.39,8.19-7.83c0.52,0.65,3.82-1.14,1.65,1.86c-1.01,1.4-1.17,3.42-3.04,4.2
	c-1.2-0.07-1.62,0.88-2.26,1.64c-5.96,6.98-12.1,13.66-20.64,17.75c-4.34,2.08-4.34,4.73-1.38,8.65c2.8,3.71,6.26,6.69,9.75,10.02
	c2.21-3.13,4.28-6.07,6.35-9.01l-0.05-0.07c0.16,3.85-2.02,6.82-3.87,9.86c-0.53,0.87-1.55,1.4-0.38,2.33
	c2.91,2.31,4.98,5.79,9.01,6.58c1.65,7.33,18.43,21.64,25.98,22.16c21.47,15.99,42.96,31.95,64.35,48.05
	c1.79,1.35,2.74,1.65,4.59,0.24c13.68-10.49,27.45-20.85,41.18-31.28c7.87-5.98,15.71-11.99,23.56-17.99
	c1.72,0.25,3.34,0.08,4.53-1.36c3.12-3.76,7.4-6.1,11.25-8.9c4.56-3.31,7.72-7.44,9.8-12.55c0.48-0.08,1.12,0.02,1.41-0.25
	c6.88-6.43,13.7-12.92,20.57-19.36c2.08-1.95,0.14-2.79-0.98-3.84c-8.36-7.88-17.43-15-25.01-23.7c-0.71-0.81-1.57-1.87-2.96-1.01
	c-0.01-1.27-0.01-2.55-0.02-3.82c1.58,0.88,3.56,1.4,4.69,2.68c7.34,8.37,16.54,14.59,24.82,21.87
	c13.11,11.55,26.52,22.73,40.06,33.76c4.96,4.03,10.82,7.03,14.48,12.57c-4.21-0.33-6.6-3.7-9.62-5.92
	c-9.88-7.29-19.61-14.77-29.34-22.25c-1.57-1.21-3.02-1.91-3.94,0.3c-4.09,9.8-14.62,15.57-16.59,26.69
	c-0.23,1.29-1.54,3.14-2.68,1.83c-4.19-4.83-6.5-0.17-8.64,1.79c-11.64,10.67-24.34,20.02-36.69,29.79
	c-10.8,8.54-21.28,17.59-34.1,24.53c3.04,1.56,5.05,0.35,6.86-0.27c21.98-7.53,44.15-14.55,65.64-23.48
	c3.48-1.45,5.18-3.42,5.88-7.14c1.76-9.28,4.01-18.47,6-27.71c1.72-7.96,6.35-13.78,13.03-18.17c1.52-1,3.07-1.3,4.68-0.39
	c1.41,0.79,1.27,2.14,1.17,3.52c-0.46,6.29-0.82,12.6-1.28,18.89c-0.48,6.47-1.03,12.93-1.62,20.31
	c13.39-6.78,26.03-12.61,38.98-17.73c2.61-1.03,1.92-2.9,2.16-4.66c0.62,0.52,1.31,0.98,1.86,1.56c5.68,6.04,5.64,5.98-2.16,9.51
	c-12.53,5.67-25.01,11.43-37.51,17.17c-2.47,1.14-4.14,2.55-4.7,5.74c-2.54,14.54-3.5,29.32-6.6,43.77
	C632.01,677.05,630.41,685.52,628.71,693.97z M370.31,592.29c0,0-0.08-0.1-0.08-0.1c-1.38,2.99-2.81,5.95-4.1,8.98
	c-0.54,1.28-1.55,2.76,0.51,3.8c5.55,2.79,11.15,5.46,17.58,6.52c0-5.4,0-10.37,0-15.33c0.01-10.3,1.55-20.56,0.93-30.89
	c-0.23-3.76-1.45-4.6-4.48-2.15c-3.49,2.82-6.91,5.71-10.49,8.41c-9.31,7.01-18.69,13.93-28.26,21.05c6.79,3.52,13.3,6.8,19.7,10.28
	c2.17,1.18,2.8,0.2,3.68-1.54C366.84,598.25,367.74,594.8,370.31,592.29z M402.36,585.54c-0.23,11.01,1.58,20.59,3.68,30.14
	c1.15,5.22,4.58,8.95,9.82,10.1c1.28,0.28,2.64,0.32,3.86,0.77c13.89,5.13,27.71,10.44,41.64,15.45c7.36,2.65,14.76,5.27,22.7,6.37
	C455.9,628.7,430.39,605.68,402.36,585.54z"/>
<path class="st1" d="M425,324.68c-0.04-8.34,2.84-16.05,5.16-23.88c2.42,3.68,5.91,6.15,9.52,8.55c9.9,6.61,19.63,13.46,29.6,19.95
	c12.15,7.92,21.77,19.09,34.31,26.48c1.53,0.9,1.98,2.59,2.48,4.18c-3.66,2.91-8.8,3.18-12.07,6.79c-2.75-0.25-5.01,2.46-7.91,1.27
	c-0.18,5.19-5.4,4.89-8.16,7.18c-4.6,3.82-10.65,5.17-16.01,7.71c-10.31,4.88-20.4,10.24-30.62,15.32c-1.24,0.62-1.5,1.65-1.99,2.66
	c-1.36,2.81-2.73,5.62-4.1,8.43c-0.53-0.71-1.12-1.34-1.99-0.51c-4.35,4.19-9.75,4.53-15.34,4.22c2.73-4.92,5.29-9.94,8.27-14.7
	c1.83-2.93,1.66-6.9,4.87-9.08c4.37-2.97,8.68-5.96,13.67-7.95c3.81-1.52,7.71-3.23,10.95-5.68c9.79-7.4,21.31-11,32.55-16.27
	C461.64,346.24,442.88,336.12,425,324.68z"/>
<path class="st4" d="M702.83,597.53c-5.63-4.13-10.05-8.72-8.97-16.67c0.38-2.79,1.18-4.96,3-6.92c3.22-5.38,7.63-8.52,14.23-7.5
	c2.19,2.65,6.04,1.21,8.42,3.41c1.39,2.24,2.9,0.61,4.29,0.07c7.03-2.75,9.82-1,11.67,6.25c2.03,7.91-2.36,13.15-7.07,17.99
	C722.7,600,710.24,601.28,702.83,597.53z"/>
<path class="st3" d="M407.9,413.03c5.58,0.32,10.98-0.02,15.34-4.22c0.87-0.83,1.46-0.2,1.99,0.51
	c-9.27,18.83-13.94,39.46-22.87,58.43c-3.67,7.79-9.51,13.95-14.96,20.31c-5.97,6.95-12,13.83-17.5,21.16
	c-1.07,1.43-2.56,2.54-3.86,3.79c-0.58-1.21-1.18-2.34,0.07-3.59c5.05-5,7.16-12.24,12.83-16.8c3.59-2.89,5.17-7.2,7.21-11.1
	c1.81-3.46-1.58-6.27-2.01-9.51c0.28-2.5-0.19-4.91-0.54-7.38c-1.35-9.54-1.39-19.11,0.41-28.63c4.58,1.24,4.28,4.38,2.94,7.8
	c-2.63,6.69-3.25,13.38,1.44,19.3c1.33,1.67,1.82,5.79,4.93,4.54c2.78-1.12,3.72-4.45,3.74-7.62c1.3-6.11,2.5-12.23,3.92-18.31
	C403.19,432.13,405.58,422.59,407.9,413.03z"/>
<path class="st4" d="M424.21,525.95c1.86-0.78,2.02-2.8,3.04-4.2c2.17-3-1.13-1.2-1.65-1.86c5.27-7.69,10.14-15.63,14.45-23.91
	c2.34,2.06-0.61,4.37,0.32,6.5c0.92,7.27-1.69,14.32-1.39,21.55c-1.5,2.88-2.97,5.77-0.93,9.02c-3.21,2.26-3.42,5.39-2.75,9.08
	c3.73-4.39,3.73-4.39,3.69-9.1c-0.45-3.19,1.61-6.17,0.8-9.39c0.05-0.9,0.11-1.8,0.16-2.7c2.06,0.19,2.22,1.7,2.06,3.21
	c-0.36,3.49,1.23,6.23,3.15,8.88c-0.2,11.66-0.41,23.31-0.61,34.97c-4.01-2.21-6.45-5.6-7.5-10.03c0.55-0.29,1.49-0.48,1.58-0.88
	c1.03-4.47,1.94-8.96,2.95-13.82c-3.44,1.17-2.62,3.61-2.61,5.73c-3.54-0.28-3.87,1.92-4.02,4.73c-0.31,6.07-1.93,6.88-6.9,3.97
	c-1.84-1.08-3.89-1.78-6.1-1.73C422.37,545.95,422.95,535.92,424.21,525.95z"/>
<path class="st3" d="M537.54,367.08c3.55-2.43,13-0.3,15.72,3.62c4.2,6.04,10.8,7.74,17.33,9.17c2.49,0.54,4.9,0.58,6.52,2.8
	c2.11,2.88,5.64,3.36,8.49,4.95c4.29,2.39,5.11,1.74,5.24-3.51c5.11,5.73,9.42,11.3,13.08,17.94c8.38,15.2,12.52,31.86,18.9,47.72
	c1.47,3.65,3.17,7.22,4.91,10.75c1.98,4.02,1.36,7.29-2.41,9.84c-5.75-10.52-9.21-21.97-13.39-33.13
	c-3.54-9.48-6.82-19.09-11.06-28.26c-3.94-8.51-11.22-14.43-19.41-18.55c-9.76-4.9-20.07-8.68-30.07-13.13
	c-3.6-1.6-6.97-3.74-10.44-5.64c-0.29-0.22-0.59-0.45-0.88-0.67c-0.35-0.15-0.71-0.3-1.06-0.46c0.02-0.71-0.23-1.25-0.97-1.47
	C537.55,368.5,537.16,367.89,537.54,367.08z"/>
<path class="st4" d="M581.08,577.99c-0.44-13.67-0.58-27.33-0.09-41c3.21-0.79,4.16-2.89,5.35-6.04c1.53-4.05,2.72-7.9,2.97-12.19
	c0.09-1.46,1.08-2.86,3.01-2.67c1.82,0.18,2.58,1.35,2.61,3.05c0.04,2.25,0.01,4.5,0.01,6.9c1.34-0.35,1.67-3.08,3.19-0.83
	c2.87,0.5,3.63,2.58,4.39,5.1c3.35,11.07,2.87,22.43,2.98,33.75c-0.83-0.13-1.33,0.3-1.7,0.96c-3.48,0.73-6.7-0.88-9.56-2.1
	c-2.76-1.18-5.46-0.34-6.04,0.95c-1.1,2.46-4,4.86-3.04,7.52C586.76,575.89,585.21,577.51,581.08,577.99z M600.93,562l0.06-0.05
	c2.38-0.72,2.85-3.84,1.05-6.92c0.23-0.36,0.47-0.72,0.69-1.09c0.01-0.02-0.22-0.18-0.34-0.27c-0.16,0.41-0.33,0.83-0.49,1.24
	c-1.3,0.35-2.61,0.69-3.91,1.04c0.99-4.19-0.15-7.74-3.15-10.78c-0.48-0.48-0.8-1.08-1.55-0.93c-0.78,0.15-1.23,0.78-0.75,1.42
	c1.9,2.58,0.71,2.78-1.81,3.62c-2.73,0.91-2.18,4.97-4.44,6.98c-0.74,0.65,0.88,0.94,1.74,1.32c3.22,1.45,7.15,0.81,9.94,3.42
	c0.39,0.31,0.78,0.61,1.18,0.92c0.23,0.01,0.45,0.03,0.68,0.07C600.18,562.5,600.55,562.97,600.93,562z M596.88,530
	c-3.71,0.87,0.56,4.47-1.38,6.23c-0.68,0.62,0.3,1.91,1.02,1.54c2.36-1.2,0.59-4.59,3.12-6.2
	C600.48,531.03,598.68,530.01,596.88,530z M599.89,541.35c0.24-0.31,0.69-0.66,0.76-1.06c0.13-0.79-0.45-1.15-1.18-1.16
	c-0.52-0.01-1.02,0.16-0.85,0.85C598.78,540.58,598.95,541.23,599.89,541.35z M584.56,543.72c-0.28-0.12-0.56-0.24-0.83-0.36
	c-0.12,0.28-0.39,0.62-0.31,0.82c0.07,0.2,0.57,0.41,0.77,0.33C584.38,544.43,584.44,544,584.56,543.72z M597.61,527.7
	c-0.11,0.02-0.26,0.01-0.31,0.08c-0.07,0.1-0.06,0.25-0.08,0.37c0.17-0.03,0.35-0.07,0.52-0.1
	C597.7,527.93,597.66,527.81,597.61,527.7z"/>
<path class="st2" d="M494.01,366.75c3.26-3.61,8.41-3.88,12.07-6.79c4.19-3.32,8.76-1.76,13.25-1.03c2.61,0.42,5.2,0.93,7.8,1.4
	c0.98,1.76,1.69,3.74,3.79,4.57c1.15,5.23-0.19,10.21-1.52,15.19c-1.95-0.09-3.39,1.06-4.98,1.95c-6.5,3.62-12.51,1.11-14.23-5.92
	c-0.55-2.26-0.82-4.6-2.12-6.75c-1.42,1.22-1.33,2.61-0.99,3.52c1.78,4.75-1.24,8.93-1.43,13.43c-0.05,1.27-0.76,3.35-2.57,3.09
	c-1.74-0.25-0.93-2.17-1.06-3.37c-0.49-4.48-0.9-8.97-1.38-13.82c-3.35,1.61-1.06,6.14-4.68,6.8
	C494.17,375.12,494.4,370.89,494.01,366.75z"/>
<path class="st4" d="M573.98,432.01c2.26,5.58,0.94,11.5,1.7,17.22c0.17,1.26-0.4,2.09-1.58,1.94c-7.7-1.01-15.41,1.46-23.1-0.06
	c-0.17-1.29,0.61-2.85-1.06-3.77c-1.38,0.84-1.87,2.08-1.94,3.56c-2.55,1.82-5.41,0.62-8.12,0.8c-2.21,0.15-2.1-1.64-2.07-3.15
	c0.09-4.46,0.46-8.94,0.25-13.39c-0.21-4.65,1.83-6.39,6.22-5.9c1.92,0.22,3.98-0.63,5.76,0.74c0.17,1.16-0.64,3.11,0.77,3.26
	c1.74,0.2,0.94-1.77,1.17-2.84c5.34-0.21,10.66-1,16.02-0.42c-0.12,1.46,1.72,3.52,0.59,4.05c-3.34,1.58-1.35,4.07-1.66,6.14
	c-1.78,1.4-2.99,3.13-3.5,5.54c1.88-0.08,3.65,0.32,4.41-1.78c2.57-0.26,2.67-2.28,3.17-4.19
	C571.72,437.1,571.08,433.86,573.98,432.01z"/>
<path class="st2" d="M437.04,557.97c1.06,4.42,3.49,7.81,7.5,10.03c-0.09,5.61-0.25,11.22-0.25,16.84c0,3.82,0.39,7.61,2.41,11.01
	c-7.55-0.52-24.32-14.83-25.98-22.16c0.28-5.91-0.1-11.87,1.23-17.7c2.21-0.06,4.26,0.65,6.1,1.73c4.97,2.91,6.59,2.1,6.9-3.97
	c0.14-2.81,0.47-5.01,4.02-4.73C438,551.92,436.92,554.82,437.04,557.97z"/>
<path class="st4" d="M495.96,379.03c3.61-0.66,1.32-5.19,4.68-6.8c0.48,4.85,0.9,9.34,1.38,13.82c0.13,1.21-0.68,3.12,1.06,3.37
	c1.81,0.26,2.52-1.81,2.57-3.09c0.19-4.51,3.22-8.69,1.43-13.43c-0.34-0.91-0.43-2.29,0.99-3.52c1.3,2.15,1.57,4.49,2.12,6.75
	c1.72,7.03,7.72,9.53,14.23,5.92c1.59-0.89,3.03-2.04,4.98-1.95c-1,6.75-2.42,13.4-4.41,19.92c-3.03,0.32-4.88,4.81-8.85,2.14
	c-3.6-2.41-6.61-1.23-8.33,2.7c-0.94,2.15-2.04,3.71-4.69,3.15c-1.44-5.68-2.91-11.35-4.32-17.03
	C497.81,387.01,496.9,383.02,495.96,379.03z"/>
<path class="st3" d="M503.12,408.01c2.65,0.56,3.75-1,4.69-3.15c1.72-3.92,4.73-5.11,8.33-2.7c3.97,2.67,5.83-1.82,8.85-2.14
	c-2.07,8.53-4.25,17.04-6.17,25.6c-2.58,11.52-2.54,23.39-4.44,35.07C512.65,442.68,506.44,425.66,503.12,408.01z"/>
<path class="st4" d="M311.25,593.59c-6.99,0.02-14.09,0.72-19.05-6.05c-2.05-2.81-2.21-5.52-1.34-8.58
	c2.13-0.41,2.68,2.22,4.74,2.52c0.2-0.86,0.35-1.64,0.57-2.39c2.53-8.61,9.17-10.72,16.31-5.22c1.43,1.1,2.87,2.36,4.52,3.01
	c4.31,1.7,5.41,4.97,5.05,9.14c0.01,0.97,0.01,1.94,0.02,2.91c0.01,0.67,0.01,1.34,0.02,2.01l-0.09,0.11
	c-0.3,0.3-0.59,0.6-0.89,0.89l-0.07,0.13C317.77,592.57,314.51,593.08,311.25,593.59z"/>
<path class="st3" d="M322.04,586.01c0.36-4.17-0.74-7.44-5.05-9.14c-1.65-0.65-3.08-1.9-4.52-3.01c-7.14-5.5-13.78-3.4-16.31,5.22
	c-0.22,0.76-0.37,1.53-0.57,2.39c-2.06-0.3-2.6-2.93-4.74-2.52c1.18-6.54,6.6-11.39,12.82-12.23c6.5-0.88,13.13-0.62,19.53-2.71
	c1.82-0.59,2.54-3.96,5.31-2.05c2.44,1.69,2.28,4.33,2.5,6.7c0.27,2.87,1.29,5.02,2.96,7.46c2.45,3.6,3,8.14,0.79,12.45
	c-1.42,2.55-4.24-0.63-5.79,1.42C326.57,588.85,325.74,584.93,322.04,586.01z"/>
<path class="st3" d="M598.13,525.22c-1.52-2.25-1.85,0.48-3.19,0.83c0-2.4,0.03-4.65-0.01-6.9c-0.03-1.7-0.79-2.88-2.61-3.05
	c-1.93-0.19-2.93,1.21-3.01,2.67c-0.25,4.29-1.45,8.14-2.97,12.19c-1.18,3.15-2.13,5.24-5.35,6.04c-0.08-17.45-0.16-34.9-0.24-52.35
	c-0.02-4.02,0-8.03,0.53-12.19c0.86,3.75,1.77,7.49,2.56,11.25c2.06,9.76,4.43,19.33,10.82,27.46c1.99,2.53,3.54,5.62,4.31,8.92
	c0.01,1.27,0.01,2.55,0.02,3.82C599.06,524.58,598.82,525.05,598.13,525.22z"/>
<path class="st2" d="M581.08,577.99c4.13-0.48,5.68-2.1,4.07-6.58c-0.96-2.66,1.94-5.06,3.04-7.52c0.58-1.3,3.29-2.13,6.04-0.95
	c2.86,1.22,6.08,2.83,9.56,2.1c0.38,0.64,0.87,1.09,1.69,0.88c0,0.71-0.01,1.43-0.01,2.14c-1.3-0.18-3.11-2.29-3.49,0.94
	c-2.85-0.4-3.76,1.91-5.73,3.7c2.64,0.47,4.65,0.59,7.08-0.16c-4.09-0.3-1.15-2.34-1.36-3.55c1.11,0.52,2.16,1.3,3.51,0.94
	c0.15,0.71,0.31,1.43,0.46,2.14c-2.07,5.11-5.24,9.24-9.8,12.55c-3.85,2.8-8.13,5.15-11.25,8.9c-1.2,1.44-2.81,1.61-4.53,1.36
	C582.21,589.31,580.41,583.6,581.08,577.99z M586.96,578.59c-0.97,3.19-1.8,6.4-1.1,9.77C587.58,585.25,586.73,581.86,586.96,578.59
	z"/>
<path class="st1" d="M445.16,533.04c-1.92-2.65-3.51-5.39-3.15-8.88c0.15-1.52,0-3.03-2.06-3.21c0.43-3.8,0.83-7.61,1.31-11.41
	c0.31-2.44,1.45-4.95-0.88-7.04c-0.93-2.13,2.01-4.44-0.32-6.5c1.82-7.86,3.64-15.71,5.46-23.57c0.44,0.01,0.88,0.03,1.32,0.04
	C446.19,492.65,448.11,512.86,445.16,533.04z"/>
<path class="st1" d="M311.25,593.59c3.26-0.51,6.52-1.02,9.79-1.52c-0.46,2.45-3.55,1.33-4.46,3.25c0.8,0.52,1.57,1.02,2.34,1.52
	c0.29,2.34-0.69,4.04-3.01,4.32c-2.53,0.31-4.87,4.9-7.85,0.08c-1.09-1.75-5.53-1.97-4.68-4.7c0.74-2.36,4.29-1.6,6.75-1.54
	C310.96,595.01,311.84,594.84,311.25,593.59z"/>
<path class="st2" d="M318.92,596.83c-0.77-0.5-1.54-1-2.34-1.52c0.91-1.91,4-0.8,4.46-3.25c0,0,0.07-0.13,0.07-0.13
	c0.3-0.3,0.6-0.6,0.89-0.89c0,0,0.09-0.11,0.09-0.11c1.16-0.68,0.99-1.35-0.02-2.01c-0.01-0.97-0.01-1.94-0.02-2.91
	c3.7-1.08,4.52,2.83,6.94,3.99c0.01,0.68,0.02,1.36,0.02,2.05c-0.01,0.32,0.01,0.63,0.07,0.95
	C325.24,593.11,323.45,598.58,318.92,596.83z"/>
<path class="st3" d="M573.98,432.01c-2.9,1.86-2.26,5.1-2.97,7.78c-0.5,1.9-0.6,3.93-3.17,4.19c-0.3-1.25-0.61-2.51-0.91-3.76
	c0.3-2.07-1.68-4.56,1.66-6.14c1.13-0.54-0.71-2.6-0.59-4.05C570.29,429.77,572.89,428.63,573.98,432.01z"/>
<path class="st3" d="M687.73,540.31c3.14-0.67,4.3,2.23,6,3.7c3.8,3.27,8.74,5.4,11.03,10.29
	C698.39,550.49,692.45,546.14,687.73,540.31z"/>
<path class="st3" d="M672.84,526.03c6.61,3.01,11.9,7.39,14.8,14.25C681.61,536.66,678.05,530.49,672.84,526.03z"/>
<path class="st1" d="M329,592.05c-0.01-0.68-0.01-1.37-0.02-2.05c1.54-2.05,4.37,1.13,5.79-1.42c0.41,0.53,0.83,1.07,1.24,1.6
	c0.2,1.44-0.16,2.54-1.62,3.2c-3.61,1.64,0.91,1.43,0.56,2.34c-1.78-0.67-4.6,0.47-4.92-2.79
	C329.69,592.64,329.35,592.34,329,592.05z"/>
<path class="st3" d="M334.95,595.72c0.36-0.92-4.17-0.7-0.56-2.34c1.46-0.67,1.82-1.76,1.62-3.2c1.32,0.24,2.64,0.47,3.96,0.71
	c1.19,1.12,1.55,2.28-0.3,2.95c-1.33,0.48-2.34,1.12-2.83,2.47C336.21,596.12,335.58,595.92,334.95,595.72z"/>
<path class="st1" d="M719.5,569.85c-2.38-2.19-6.23-0.75-8.42-3.41C715.23,565.33,717.88,566.4,719.5,569.85z"/>
<path class="st1" d="M548,450.9c0.07-1.48,0.56-2.72,1.94-3.56c1.68,0.91,0.9,2.48,1.06,3.77C550,451.04,549,450.97,548,450.9z"/>
<path class="st3" d="M551.98,430.43c-0.23,1.06,0.57,3.03-1.17,2.84c-1.41-0.16-0.6-2.11-0.77-3.26
	C550.69,430.15,551.33,430.29,551.98,430.43z"/>
<path class="st3" d="M363.41,516.24c-0.52-0.38-1.23-0.83-0.83-1.51c0.59-1,1.71-0.62,2.65-0.68
	C364.96,515.06,364.43,515.86,363.41,516.24z"/>
<path class="st3" d="M704.71,554.26c2.27-0.13,2.49,0.03,2.32,1.75C706.03,555.73,705.19,555.24,704.71,554.26z"/>
<path class="st1" d="M538.05,369.07c0.73,0.22,0.98,0.76,0.97,1.47C537.95,370.55,538.02,369.8,538.05,369.07z"/>
<path class="st1" d="M540.08,371c0.29,0.22,0.59,0.45,0.88,0.67C540.67,371.45,540.38,371.22,540.08,371z"/>
<path class="st3" d="M329,592.05c0.34,0.3,0.69,0.59,1.03,0.89c-0.32,0.02-0.64,0.04-0.96,0.06
	C329.02,592.68,328.99,592.36,329,592.05z"/>
<path class="st1" d="M735.87,597.81c-0.34,0.38-0.69,0.76-1.03,1.13C734.89,598.31,735.17,597.87,735.87,597.81z"/>
<path class="st0" d="M776.78,366.98c-5.49,11.8-13.02,22.46-19.02,33.98c-4.28,6.17-8.6,12.31-12.81,18.52
	c-4.78,7.03-9.45,14.13-14.17,21.2c-3.04,1.66-3.12,7.08-7.09,6.8c-3.11-0.23-6.05-2.55-9.1-3.85
	c-21.71-9.21-43.89-17.11-66.65-23.32c-4.74-1.29-6.83-3.47-7.36-8.68c-1.41-13.98-2.8-28-6.25-41.69
	c-2.18-17.78-6.35-35.19-10.35-52.6c-0.85-3.69-0.06-4.91,2.79-6.47c17.41-9.57,34.85-19.04,53.27-26.59
	c10.7-3.88,21.4-7.76,32.09-11.64c9.78-1.84,19.11-5.77,29.11-6.55c9.78-0.76,19.6-1.34,29.05,2.25
	c17.96,6.84,26.83,21.12,25.47,40.93C794.33,330.12,785.63,348.57,776.78,366.98z"/>
<path class="st0" d="M527.13,360.34c-2.6-0.47-5.19-0.98-7.8-1.4c-4.49-0.73-9.07-2.3-13.25,1.03c-0.5-1.59-0.96-3.28-2.48-4.18
	c-12.54-7.39-22.16-18.57-34.31-26.48c-9.97-6.49-19.71-13.34-29.6-19.95c-3.6-2.4-7.09-4.87-9.52-8.55
	c5.84-19.17,12.17-38.18,19.17-56.96c0.81-2.17,1.53-4.36,2.29-6.55c6.99-14.82,15.12-29.04,22.94-43.42
	c1.65-3.04,4.83-5.12,5.3-8.83c7.36-7.71,13.95-16.12,23.94-21.02c7.29-3.58,13.66-2.8,20.14,1.33
	c12.45,7.93,21.46,18.97,28.77,31.58c0.65,1.13,1.5,2.14,2.26,3.2c10.07,20.17,20.97,39.96,28.37,61.37
	c2.39,6.91,4.72,13.83,7.07,20.75c1.39,5.1,2.76,10.2,4.18,15.3c0.58,2.09,1.19,4.15,0.3,6.3c-13.59,9.75-28,18.29-41.31,28.46
	c-7.7,5.89-15.8,11.24-23.72,16.85c-1.22,0.86-2.48,1.68-3.61,2.66c-2.8,2.42-4.73,4.79,0.69,6.44
	C528.14,358.62,528.4,359.52,527.13,360.34z M525.22,232.13c0.78-0.94,1.09-2.06,0.99-3.24c-0.09-1.02,0.6-2.53-1.17-2.75
	c-1.36-0.17-1.48,1.16-1.74,2.01c-0.79,2.61-2.19,5.08-2.02,7.94c0.09,1.24-0.94,1.89-1.48,2.79c-0.95,0.08-1.9,0.17-2.85,0.25
	c0-0.66,0.01-1.32,0.02-1.98c0.4-0.95,0.79-1.9,1.19-2.85c1.26-2.73,4.06-5.92,3.01-8.23c-1.46-3.23-0.92-5.51-0.77-8.68
	c0.23-4.8,0.44-10.71-3.82-15.07c-1.5-1.54-1.68-4.01-1.51-6.53c0.4-5.8,0.13-11.65,0.13-17.48c-0.71-0.02-1.42-0.05-2.12-0.07
	c1.02,5.94-3.62,11.09-1.28,17.32c0.94,2.51,2.32,5.82-1.59,7.42c-2.78,1.14-3.36,4.61-0.96,7.12c-0.33,0.76-1.02,1.57-0.93,2.27
	c0.64,4.88-0.38,8.37-6.03,9.34c-2.36,0.41-3.83,2.6-3.99,5.01c-0.3,4.66-0.07,9.28,2.35,13.54c2,3.52,4.74,6.67,5.65,10.77
	c-1.93,3.16,0.5,6.63-0.69,9.84c-0.38-0.01-0.62,0.17-0.7,0.54c-1.08-0.12-1.55,0.63-2,1.41c-2.71-0.18-5.35,0.09-7.88,1.13
	c-4.4,0-5.74,1.2-6.93,6.24c-2.57,1.43-3.61,3.92-4.84,6.42c-2.9,5.88-1.32,12.51-3.33,18.59c-0.46,1.39,0.8,3.84-0.19,5.82
	c2.83-0.49,1.43,1.96,2.13,2.92c1.39,1.88-0.78,3.34-0.22,4.91c1.09,3.05-1.25,7.35,3.29,9.15l-0.12-0.12
	c0.93,5.02,0.38,10.4,4.77,14.44c5.6,5.14,10.85,10.66,16.25,16.02c1.35,2.27,2.91,4.44,3.98,6.83c1.16,2.57,2.58,1.97,4.3,0.88
	c3.91-1.24,5.28-4.28,5.7-8.01c0.5-2.45,3.71-2.57,4.27-4.96c1.31-0.51,2.13-1.5,2.71-2.73c4.46-4.16,9.09-8.15,13.31-12.53
	c2.38-2.47,4.77-5.49,0.85-8.89c-0.38-0.33-0.41-1.23-0.37-1.85c0.49-8.44-1.02-16.69-2.27-24.97c0.54-2.91-0.23-5.58-2.39-8.85
	c3.17,2.08,2.35,5.13,4.12,6.8c-0.04,1.23-0.59,2.54,0.56,3.59c0.11,1.41-0.2,2.95,1.2,3.96c0.37,5.58,3.41,10.16,5.39,15.21
	c5.79-12.8-0.07-24.49-2.83-36.45c0.23-2.18-0.68-3.92-2.06-5.49c-0.13-0.72-0.58-1.1-1.29-1.21c-1.72-2.45-4.08-3.89-7.02-4.37
	c-4.93-3.41-10.83-1.99-16.19-3.23c-1.01-3.79,2.47-9.09-3.74-11.14c0.03-0.27,0.07-0.55,0.11-0.82c2.96-0.27,8.76-6.26,10.17-10.5
	C526.64,237.34,527.18,234.88,525.22,232.13z"/>
<path class="st0" d="M645.08,425.75c10.13,3.48,20.41,6.75,30.5,10.54c12.74,4.78,25.32,9.97,37.97,14.99
	c1.39,0.55,2.72,1.25,4.11,1.78c1.81,0.7,2.46,1.56,0.8,3.15c-12.45,11.96-22.9,25.74-34.65,38.35c-2.7,2.9-5.65,5.58-8.19,8.6
	c-2.17,2.59-3.71,1.8-5.63-0.05c-9.9-9.54-18.71-20.07-27.74-30.4c-1.34-1.53-2.12-4.02-0.4-4.78c3.69-1.63,2.28-4.39,2.18-6.71
	c-0.47-10.61-1.2-21.22-1.73-31.83C642.2,427.68,641.5,425.09,645.08,425.75z"/>
<path class="st0" d="M598.95,325.95c3.53-2.33,4.03,0.38,4.53,2.81c2.35,11.48,4.64,22.98,6.95,34.47
	c0.55,8.66,3.57,16.85,4.86,25.37c0.89,5.91,1.91,11.79,2.74,17.71c0.16,1.16,1.34,2.99-0.28,3.49c-1.71,0.52-2.96-1.14-3.66-2.65
	c-1.75-3.74-3.55-7.47-5.02-11.32c-2.34-6.1-7.04-9.93-12.37-13.05c-4.15-2.42-8.49-4.47-13.1-6.03c-5.01-1.69-8.48-6.14-13.69-7.89
	c-5.54-1.86-10.7-4.84-16.05-7.29c-1.87-0.86-3.91-1.84-4.15-3.96c-0.25-2.22,2.19-2.64,3.67-3.54
	C568.61,344.76,584.23,336.1,598.95,325.95z"/>
<path class="st0" d="M320.85,274.65c11.71,4.47,23.41,8.94,35.12,13.41c15,6.58,28.94,15.19,43.57,22.46
	c3.09,1.54,4.06,3.16,3.1,6.57c-4.82,17.07-6.62,34.77-10.67,52.01c-0.3,1.27-0.21,2.63-0.3,3.95c-2.66,13.29-4.4,26.73-5.84,40.19
	c-0.29,2.7-0.44,5.44-3.72,5.26c-4.13-0.22-7.27,1.99-10.78,3.3c-22.15,8.24-44.29,16.5-66.43,24.76c-2.26,0.74-3.73,0.45-5.33-1.87
	c-8.02-11.68-16.34-23.14-24.55-34.68c-3.3-6.86-8.21-12.72-12.02-19.31c-7.47-12.9-14.77-25.83-20.56-39.58
	c-0.25-0.59-0.72-1.09-1.08-1.64c-3.57-8.92-6.93-17.88-8.83-27.37c-1.75-8.72-2.02-17.4-0.59-26.13
	c3.14-19.24,18.21-28.53,36.85-30.17c16.7-1.47,32.53,2.85,48.23,7.8C318.27,274.03,319.57,274.31,320.85,274.65z"/>
<path class="st0" d="M430.14,727.18c16.79-10.04,32.44-21.75,48.25-33.19c10.67-7.72,21.56-15.22,31.22-24.23
	c2.81-2.62,5-1.27,6.92,0.54c12.98,12.22,28.15,21.56,42.31,32.21c12.17,9.15,24.83,17.64,37.28,26.43
	c-3.46,11.98-6.91,23.96-10.37,35.94c-1.52,2.82-3,5.65-3.37,8.9c-1.63,5.11-4.3,9.86-5.38,15.17c-3.2,6.11-6.11,12.34-8.35,18.88
	c-6.18,9.46-10.31,20.04-16.17,29.67c-7.04,11.58-15.28,21.99-27.16,29.13c-7.87,4.73-15.67,4.79-23.71,0.87
	c-8.91-4.35-15.65-11.09-21.07-19.27c-1.28-1.94-2.5-3.93-4.43-5.33c-4.53-8.24-9.01-16.5-13.6-24.71
	c-8.12-14.49-13.77-30.02-19.5-45.52c-0.23-0.61-0.57-1.17-0.86-1.76c-1.22-7.04-4.23-13.54-6.1-20.39
	c-1.74-6.38-3.86-12.65-5.78-18.98C429.86,730.11,429.45,728.66,430.14,727.18z"/>
<path class="st0" d="M407.9,413.03c-2.32,9.56-4.7,19.1-6.94,28.68c-1.42,6.08-2.62,12.21-3.92,18.31
	c-1.99-0.78-1.38-2.53-1.19-3.86c0.79-5.57,1.52-11.17,2.7-16.67c2.74-12.75,7.98-24.85,10.04-37.79
	c1.7-10.63,5.16-20.92,5.94-31.72c2.8-13.52,5.57-27.04,8.46-40.54c0.35-1.66-0.06-3.78,2.02-4.77
	c17.87,11.45,36.64,21.56,53.2,34.67c-11.24,5.27-22.77,8.88-32.55,16.27c-3.24,2.45-7.14,4.16-10.95,5.68
	c-4.99,1.99-9.3,4.98-13.67,7.95c-3.21,2.18-3.03,6.14-4.87,9.08C413.19,403.09,410.63,408.11,407.9,413.03z"/>
<path class="st1" d="M414.53,369.99c-0.77,10.8-4.24,21.09-5.94,31.72c-2.06,12.94-7.3,25.04-10.04,37.79
	c-1.18,5.5-1.92,11.1-2.7,16.67c-0.19,1.33-0.8,3.07,1.19,3.86c-0.02,3.17-0.96,6.5-3.74,7.62c-3.11,1.25-3.6-2.86-4.93-4.54
	c-4.69-5.92-4.07-12.6-1.44-19.3c1.34-3.42,1.64-6.56-2.94-7.8c0.27-2.79,0.41-5.6,0.84-8.36c0.55-3.51-0.15-4.42-3.82-2.93
	c-24.27,9.88-48.61,19.57-72.93,29.32c-2.09-0.2-3.46-1.23-2.73-3.4c0.53-1.57,0.07-2.76-0.46-4.07
	c22.14-8.26,44.28-16.52,66.43-24.76c3.52-1.31,6.65-3.53,10.78-3.3c3.28,0.18,3.43-2.56,3.72-5.26c1.44-13.47,3.18-26.9,5.84-40.19
	c3.3,0.01,6.76-1.63,9.71,1.46c1.08,1.12,2.55,0.22,3.43-0.85C407.38,370.6,410.69,369.64,414.53,369.99z"/>
<path class="st0" d="M414.9,665.99c-0.62-11.18-4.45-21.8-5.75-32.86c-0.11-0.95-1.08-1.97-0.24-2.8c1.09-1.09,2.11,0.11,3.11,0.51
	c17.48,6.9,35.39,12.59,53.34,18.03c8.16,2.47,16.55,4.93,25.26,5.4c2.81,0.15,5.29,1.43,7.39,3.48
	c-18.83,13.1-38.17,24.89-56.69,37.94c-5.53,3.89-11.05,7.98-17.32,10.76c-4.06-8.37-3.91-17.71-6.02-26.53
	C416.89,675.3,416.24,670.56,414.9,665.99z"/>
<path class="st0" d="M601.02,705.48c-10.45-5.49-20.13-12.23-30.07-18.54c-5.82-3.69-11.39-7.78-17.06-11.71
	c-6.49-4.51-13.69-7.9-19.96-12.84c-2.09-1.65-3.31-3.99-6.1-5.37c3.15-2.55,6.37-3.32,9.86-3.48c15.29-0.67,29.67-5.33,43.95-10.28
	c11.7-4.06,23.31-8.37,35.69-12.83c-3.7,19.87-7.29,39.16-10.88,58.46c-0.89,4.31-1.67,8.65-2.71,12.92
	C603.39,703.28,603.81,705.68,601.02,705.48z"/>
<path class="st0" d="M308.08,454.04c24.32-9.75,48.66-19.44,72.93-29.32c3.67-1.49,4.36-0.59,3.82,2.93
	c-0.43,2.76-0.57,5.57-0.84,8.36c-1.8,9.52-1.75,19.09-0.41,28.63c0.35,2.48,0.83,4.89,0.54,7.38
	c-5.33,6.36-10.88,12.54-15.91,19.12c-3.65,4.77-8.92,7.88-12.32,12.86c-1.11,1.63-2.37,1.54-3.95-0.21
	c-10.86-12.1-22.1-23.86-32.5-36.38c-1.78-2.14-3.83-4.13-6.43-5.37C311.45,459.33,308.78,457.29,308.08,454.04z"/>
<path class="st3" d="M577.01,788.95c1.08-5.31,3.74-10.06,5.38-15.17c4.98,3.19,1.86,7.19,1.19,11.02
	C582.89,788.73,580.3,789.31,577.01,788.95z"/>
<path class="st0" d="M682.92,590.87c-0.24,1.76,0.45,3.63-2.16,4.66c-12.95,5.12-25.6,10.96-38.98,17.73
	c0.59-7.38,1.14-13.84,1.62-20.31c0.46-6.29,0.82-12.59,1.28-18.89c0.1-1.38,0.23-2.73-1.17-3.52c-1.61-0.9-3.16-0.6-4.68,0.39
	c-6.68,4.39-11.31,10.21-13.03,18.17c-1.99,9.24-4.24,18.43-6,27.71c-0.71,3.73-2.4,5.7-5.88,7.14
	c-21.49,8.92-43.66,15.94-65.64,23.48c-1.81,0.62-3.82,1.83-6.86,0.27c12.82-6.94,23.29-15.99,34.1-24.53
	c12.35-9.77,25.05-19.12,36.69-29.79c2.14-1.96,4.45-6.62,8.64-1.79c1.14,1.31,2.45-0.54,2.68-1.83
	c1.96-11.12,12.5-16.89,16.59-26.69c0.92-2.2,2.37-1.51,3.94-0.3c9.73,7.48,19.47,14.96,29.34,22.25c3.01,2.22,5.41,5.6,9.62,5.92
	C683.01,590.96,682.92,590.87,682.92,590.87z"/>
<path class="st0" d="M402.36,585.54c28.03,20.14,53.53,43.15,81.7,62.83c-7.94-1.1-15.34-3.72-22.7-6.37
	c-13.93-5.01-27.75-10.32-41.64-15.45c-1.21-0.45-2.58-0.49-3.86-0.77c-5.25-1.15-8.67-4.88-9.82-10.1
	C403.94,606.13,402.13,596.55,402.36,585.54z"/>
<path class="st0" d="M370.31,592.29c-2.56,2.51-3.46,5.96-5.02,9.03c-0.88,1.74-1.51,2.72-3.68,1.54
	c-6.4-3.48-12.91-6.76-19.7-10.28c9.58-7.12,18.95-14.04,28.26-21.05c3.58-2.69,7-5.59,10.49-8.41c3.03-2.45,4.25-1.6,4.48,2.15
	c0.62,10.33-0.92,20.58-0.93,30.89c0,4.97,0,9.94,0,15.33c-6.43-1.06-12.03-3.73-17.58-6.52c-2.06-1.03-1.05-2.52-0.51-3.8
	c1.29-3.03,2.72-5.99,4.09-8.99c1.54-4.27,3.8-8.29,4.35-12.87C373.51,583.76,370.26,587.5,370.31,592.29z"/>
<path class="st0" d="M421.96,555.98c-1.33,5.84-0.95,11.79-1.23,17.7c-4.03-0.79-6.1-4.26-9.01-6.58c-1.17-0.93-0.15-1.46,0.38-2.33
	c1.85-3.04,4.03-6.01,3.87-9.86c2.89-0.81,3.78-3.17,5.26-6.58c-2.73,2.46-4.66,4.03-5.21,6.65c-2.07,2.94-4.14,5.88-6.35,9.01
	c-3.49-3.32-6.95-6.31-9.75-10.02c-2.96-3.92-2.95-6.57,1.38-8.65c8.54-4.09,14.68-10.78,20.64-17.75c0.65-0.76,1.06-1.7,2.26-1.64
	C422.95,535.92,422.37,545.95,421.96,555.98z"/>
<path class="st0" d="M605.95,572.06c-0.15-0.71-0.31-1.43-0.46-2.14c0-0.62-0.01-1.25-0.01-1.87c0-0.71,0.01-1.43,0.01-2.14
	c0-0.61,0.01-1.23,0.01-1.84c-0.12-11.33,0.37-22.69-2.98-33.75c-0.76-2.52-1.52-4.6-4.39-5.1c0.7-0.17,0.94-0.64,0.86-1.32
	c1.39-0.86,2.25,0.2,2.96,1.01c7.58,8.7,16.65,15.82,25.01,23.7c1.11,1.05,3.05,1.89,0.98,3.84c-6.87,6.44-13.69,12.93-20.57,19.36
	C607.07,572.08,606.43,571.98,605.95,572.06z"/>
<path class="st0" d="M440.37,502.49c2.33,2.1,1.19,4.61,0.88,7.04c-0.48,3.8-0.88,7.61-1.31,11.41c-0.05,0.9-0.11,1.8-0.16,2.69
	c-0.38-0.09-0.65,0.04-0.8,0.4C438.68,516.8,441.29,509.76,440.37,502.49z"/>
<path class="st1" d="M437.04,557.97c-0.12-3.15,0.95-6.05,1.93-8.97c-0.02-2.11-0.83-4.56,2.61-5.73
	c-1.02,4.86-1.92,9.35-2.95,13.82C438.53,557.49,437.59,557.69,437.04,557.97z"/>
<path class="st3" d="M438.98,533.03c0.04,4.71,0.04,4.71-3.69,9.1c-0.66-3.69-0.46-6.82,2.75-9.08
	C438.36,533.05,438.67,533.04,438.98,533.03z"/>
<path class="st1" d="M438.98,533.03c-0.31,0.01-0.63,0.02-0.94,0.02c-2.04-3.25-0.56-6.13,0.93-9.02c0.16-0.36,0.42-0.49,0.8-0.4
	C440.6,526.86,438.53,529.84,438.98,533.03z"/>
<path class="st2" d="M597.96,561.01c-2.79-2.61-6.72-1.97-9.94-3.42c-0.86-0.39-2.48-0.67-1.74-1.32c2.26-2.01,1.72-6.07,4.44-6.98
	c2.52-0.84,3.71-1.04,1.81-3.62c-0.48-0.65-0.03-1.27,0.75-1.42c0.76-0.15,1.08,0.45,1.55,0.93c3,3.05,4.14,6.59,3.15,10.78
	c-0.91,2.96,3.22,3.4,3.01,6c0,0-0.06,0.05-0.06,0.05c-0.37,0-0.74-0.01-1.12-0.01c-0.22-0.04-0.45-0.06-0.68-0.07
	C598.74,561.62,598.35,561.31,597.96,561.01z"/>
<path class="st1" d="M600.99,561.95c0.2-2.61-3.92-3.04-3.01-6c1.3-0.35,2.61-0.69,3.91-1.04l0.15,0.13
	C603.84,558.11,603.37,561.23,600.99,561.95z"/>
<path class="st1" d="M596.88,530c1.8,0.01,3.6,1.03,2.76,1.57c-2.52,1.61-0.76,5.01-3.12,6.2c-0.72,0.37-1.7-0.93-1.02-1.54
	C597.44,534.47,593.17,530.87,596.88,530z"/>
<path class="st1" d="M599.89,541.35c-0.94-0.12-1.11-0.77-1.27-1.38c-0.17-0.69,0.33-0.86,0.85-0.85c0.72,0.02,1.31,0.37,1.18,1.16
	C600.58,540.7,600.13,541.04,599.89,541.35z"/>
<path class="st3" d="M584.56,543.72c-0.12,0.28-0.18,0.71-0.38,0.79c-0.2,0.08-0.7-0.14-0.77-0.33c-0.08-0.21,0.19-0.54,0.31-0.82
	C584,543.48,584.28,543.6,584.56,543.72z"/>
<path class="st1" d="M605.5,564.07c0,0.62-0.01,1.23-0.01,1.84c-0.82,0.21-1.31-0.24-1.69-0.88
	C604.17,564.38,604.67,563.94,605.5,564.07z"/>
<path class="st1" d="M601.89,554.91c0.16-0.41,0.33-0.83,0.49-1.24c0.12,0.09,0.35,0.25,0.34,0.27c-0.21,0.37-0.45,0.73-0.69,1.09
	C602.04,555.03,601.89,554.91,601.89,554.91z"/>
<path class="st1" d="M597.61,527.7c0.05,0.12,0.09,0.23,0.14,0.35c-0.17,0.03-0.35,0.07-0.52,0.1c0.02-0.13,0.01-0.28,0.08-0.37
	C597.35,527.71,597.51,527.72,597.61,527.7z"/>
<path class="st1" d="M599.82,561.99c0.37,0,0.74,0.01,1.12,0.01C600.55,562.97,600.18,562.5,599.82,561.99z"/>
<path class="st1" d="M597.96,561.01c0.39,0.31,0.78,0.61,1.17,0.92C598.75,561.62,598.35,561.31,597.96,561.01z"/>
<path class="st0" d="M566.93,440.21c0.3,1.25,0.61,2.51,0.91,3.76c-0.76,2.1-2.53,1.7-4.41,1.77
	C563.94,443.35,565.15,441.61,566.93,440.21z"/>
<path class="st1" d="M322.06,588.93c1.01,0.66,1.18,1.33,0.02,2.01C322.08,590.27,322.07,589.6,322.06,588.93z"/>
<path class="st1" d="M321.99,591.05c-0.3,0.3-0.6,0.6-0.89,0.89C321.4,591.64,321.7,591.34,321.99,591.05z"/>
<path class="st4" d="M586.96,578.59c-0.22,3.27,0.62,6.66-1.1,9.77C585.16,584.99,585.99,581.78,586.96,578.59z"/>
<path class="st1" d="M601.98,568.98c0.21,1.21-2.73,3.25,1.36,3.55c-2.43,0.75-4.44,0.63-7.08,0.16c1.97-1.79,2.88-4.1,5.73-3.7
	L601.98,568.98z"/>
<path class="st1" d="M605.48,568.05c0,0.62,0.01,1.25,0.01,1.87c-1.35,0.36-2.4-0.42-3.51-0.94l0.01,0.01
	C602.36,565.76,604.18,567.87,605.48,568.05z"/>
<path class="st2" d="M540.06,290.05c-1.77-1.67-0.95-4.72-4.12-6.8c2.16,3.27,2.93,5.93,2.39,8.85c-6.61-1.63-7.38-1.07-7.3,5.96
	c0.1,9.04,3.07,18.48-3.91,26.48c-0.17,0.2-0.1,0.64-0.1,0.97c0.03,3.5-1,6.81-1.74,10.18c-0.4,1.81-0.71,3.66,1.52,4.66
	c-0.58,1.23-1.4,2.23-2.71,2.73c-3.77-0.36-6.18,1.23-7.1,4.95c-3.37,1.81-4.75,4.33-2.87,8.01c-1.71,1.09-3.14,1.69-4.3-0.88
	c-1.07-2.39-2.63-4.56-3.98-6.83c1.89-2.55,1.56-4.83-0.32-7.37c-2.91-3.94-6.65-7.45-7.49-12.63c-0.43-2.69-1.01-5.13-4.21-5.99
	c-1.59-0.43-2.07-2.74-0.45-2.63c5.45,0.37,2.34-3.14,2.5-4.93c0.14-1.53-0.93-2.94,0.32-4.66c1.68-2.3,0.31-3.65-2.17-4.1
	c-0.01-1.33-0.02-2.66-0.03-3.99c0.02-0.32,0.02-0.64,0-0.96c0-2,0.01-4,0.01-6c2.77-7.91,2.46-15.95,0.98-24.04
	c2.72,0.18,5.59-0.52,8.03,1.34c2.02,4.62,5.94,1.2,8.89,1.9c0.83,0.2,1.47-1.95,0.22-3.18c0.07-1.54-0.39-3.23,1.36-4.47
	c0.53,1.19,1.03,2.33,1.54,3.46c0.62,3.21,3.01,6.45,5.26,6.92c4,0.84,8.43-0.37,10.71-4.83c2.65,0.02,5.3,0.03,7.94,0.05
	c0.3,0.47,0.56,1.3,0.92,1.34c1.05,0.14,1-0.82,1.09-1.54c0.05-0.32,0.12-0.64,0.21-0.95c0.39-0.07,0.78-0.13,1.17-0.2
	c1.38,1.57,2.29,3.32,2.06,5.5c-0.87,1.6-1.43,3.08-0.82,5.09C544.67,285.08,542.67,287.76,540.06,290.05z"/>
<path class="st4" d="M494.03,306.01c2.48,0.45,3.85,1.8,2.17,4.1c-1.26,1.72-0.18,3.14-0.32,4.66c-0.16,1.79,2.94,5.3-2.5,4.93
	c-1.62-0.11-1.14,2.2,0.45,2.63c3.2,0.86,3.78,3.3,4.21,5.99c0.84,5.18,4.58,8.69,7.49,12.63c1.88,2.54,2.21,4.83,0.32,7.37
	c-5.4-5.36-10.65-10.88-16.25-16.02c-4.4-4.04-3.84-9.42-4.77-14.44c1.5,0.35,1.86-0.62,2.44-1.75c2.63-5.14,1.92-10.57,1.62-15.98
	c0-2.68,0-5.36,0-8.03c-0.94,2.81-3.9,4.94-2.65,8.22c-1.09,5.84,0.07,11.84-1.28,17.67c-4.54-1.8-2.2-6.1-3.29-9.15
	c-0.56-1.57,1.61-3.03,0.22-4.91c-0.71-0.96,0.7-3.41-2.13-2.92c0.99-1.98-0.27-4.43,0.19-5.82c2.01-6.08,0.43-12.71,3.33-18.59
	c1.23-2.5,2.27-4.99,4.83-6.42c2.29,0.36,4.73-0.49,6.91,0.85c1.49,8.09,1.79,16.12-0.98,24.04c-1.55,2-1.5,4-0.01,6
	c0.02,0.32,0.02,0.64,0,0.96C492.63,303.36,492.55,304.69,494.03,306.01z M492.73,286.47c-0.12,0.27-0.24,0.55-0.35,0.82
	c0.27,0.12,0.61,0.39,0.81,0.31c0.2-0.08,0.41-0.56,0.33-0.76C493.44,286.64,493.01,286.58,492.73,286.47z M492.73,277.43
	c-0.12,0.27-0.39,0.61-0.31,0.81c0.08,0.2,0.51,0.26,0.78,0.38c0.12-0.27,0.39-0.61,0.32-0.8
	C493.43,277.61,493.01,277.55,492.73,277.43z"/>
<path class="st4" d="M526.8,340.34c-2.22-0.99-1.91-2.84-1.52-4.66c0.73-3.37,1.77-6.68,1.74-10.18c0-0.33-0.08-0.77,0.1-0.97
	c6.98-8,4.01-17.44,3.91-26.48c-0.08-7.03,0.69-7.59,7.3-5.96c1.25,8.28,2.76,16.53,2.27,24.97c-0.04,0.62-0.01,1.52,0.37,1.85
	c3.92,3.39,1.53,6.42-0.85,8.89C535.89,332.19,531.26,336.19,526.8,340.34z"/>
<path class="st1" d="M494.99,271.02c-2.18-1.34-4.62-0.49-6.91-0.85c1.2-5.04,2.54-6.24,6.94-6.24c3.84,2.14,7.69,1.27,11.56,0.06
	c1.61-0.5,1.24-1.61,0.95-2.74l0.45-0.18c2.05,1.45,3.29-0.31,4.75-1.2c0.67,1.34-0.5,4.05,1.92,3.95
	c6.54-0.29,12.9,1.06,19.36,1.46c2.95,0.48,5.3,1.92,7.02,4.37c0.04,0.47,0.08,0.94,0.12,1.4c-0.09,0.31-0.15,0.63-0.21,0.95
	c-0.67,0.07-1.34,0.13-2.01,0.2c-2.65-0.02-5.3-0.03-7.94-0.05c-5.11-2.3-10.81-0.13-15.97-2.09c-0.51-1.14-1.01-2.27-1.54-3.46
	c-1.74,1.24-1.29,2.93-1.36,4.47c-3,0.69-6.36-1.2-9.11,1.28C500.58,270.5,497.71,271.2,494.99,271.02z"/>
<path class="st1" d="M516.96,237.15c0,0.66-0.01,1.32-0.01,1.98c-0.65,2.22-3.03,1.22-4.31,3.14c-0.44-4.37-0.96-7.85-0.95-11.51
	c0.01-3.3,2.75-6.03,1.33-9.41c-0.44-1.05-0.38-2.75-1.71-2.69c-2.04,0.09-1.13,2.01-1.23,3.16c-0.28,3.14,2.25,6.21,0.29,9.63
	c-2.89-2,0.04-5.84-2.72-7.64c-0.51-1.85-1.79-2.46-3.39-1.64c-1.74,0.89-3.43,1.86-3.69,4.29c-0.39,3.66,1.65,6.44,2.97,9.62
	c0.26-1.07,0.5-2.02,0.74-2.98l0.37-0.02c0.15,1.71,2.09,2.79,1.68,4.7c-1.82,2.22,0.65,2.47,1.61,3.05
	c1.06,0.63,2.22,0.81,1.54,2.43c-1.31,3.14,0.7,4.98,2.72,6.8c-1.73,1.78-3.92,0.74-5.91,0.96c-0.91-4.1-3.65-7.25-5.65-10.77
	c-2.42-4.26-2.65-8.88-2.35-13.54c0.15-2.41,1.62-4.6,3.99-5.01c5.65-0.97,6.67-4.46,6.03-9.34c-0.09-0.7,0.6-1.51,0.93-2.27
	c2.19-1.69,3.47,0.5,5.09,1.2c-0.06,0.81-0.13,1.61-0.19,2.42c2.73,4.45,2.17,9.09,0.9,13.8c-0.21,0.77-0.06,1.64-0.08,2.46
	C514.12,232.78,511.97,235.96,516.96,237.15z"/>
<path class="st3" d="M514.96,229.97c0.02-0.82-0.13-1.69,0.08-2.46c1.27-4.72,1.83-9.36-0.9-13.8c1.92,0.87,3.47,0.21,3.65-1.73
	c0.09-0.96-1.35-2.06-2.1-3.09c-0.45,0.8-0.91,1.6-1.36,2.41c-1.63-0.7-2.91-2.89-5.09-1.2c-2.4-2.5-1.83-5.98,0.96-7.12
	c3.92-1.6,2.53-4.91,1.59-7.42c-2.34-6.23,2.29-11.39,1.28-17.32c0.71,0.02,1.42,0.05,2.12,0.07c0,5.83,0.27,11.67-0.13,17.48
	c-0.17,2.52,0.01,5,1.51,6.53c4.27,4.36,4.05,10.27,3.82,15.07c-0.15,3.18-0.69,5.45,0.77,8.68c1.05,2.31-1.75,5.5-3.02,8.23
	C517.09,232.85,516.02,231.41,514.96,229.97z"/>
<path class="st3" d="M504.64,233.08c0,0-0.37,0.02-0.37,0.02c-2.57-6.35-2.04-7.81,3.38-9.29c2.76,1.8-0.17,5.64,2.72,7.64
	c1.96-3.42-0.57-6.5-0.29-9.63c0.1-1.15-0.82-3.07,1.23-3.16c1.32-0.06,1.27,1.64,1.71,2.69c1.42,3.39-1.32,6.12-1.33,9.41
	c-0.02,3.66,0.51,7.14,0.95,11.51c1.28-1.92,3.66-0.92,4.31-3.14c0.95-0.08,1.9-0.17,2.85-0.25c1.43,0.8,3.32-1.22,4.57,0.73
	c-1.41,4.23-7.22,10.23-10.17,10.5c-0.66-0.02-1.33-0.03-1.99-0.05c-2.02-1.82-4.03-3.66-2.72-6.8c0.68-1.62-0.49-1.8-1.54-2.43
	c-0.96-0.57-3.44-0.83-1.61-3.05c1.17-0.34,2.27,1.32,3.44,0.26c-0.61-1.65-1.23-3.15-1.71-4.7
	C507.11,230.28,505.86,232.1,504.64,233.08z M518.14,242.31c-0.56-0.09-1.02-0.25-1.46-0.21c-0.32,0.03-1.25,0.02-0.49,0.73
	c0.27,0.25,0.92,0.16,1.39,0.11C517.75,242.93,517.89,242.61,518.14,242.31z"/>
<path class="st4" d="M540.06,290.05c2.61-2.29,4.6-4.97,3.5-8.6c-0.61-2.01-0.05-3.49,0.82-5.09c2.76,11.96,8.62,23.65,2.83,36.45
	c-1.98-5.04-5.02-9.63-5.39-15.21c0.37-1.2,1.1-2.42,1.02-3.59c-0.16-2.09-1.17-1.99-2.22-0.38
	C539.47,292.59,540.02,291.28,540.06,290.05z"/>
<path class="st4" d="M512.2,250.06c0.66,0.02,1.33,0.03,1.99,0.05c-0.04,0.27-0.07,0.55-0.11,0.82c0.3,2.9,0.72,5.8,0.87,8.7
	c0.1,2.01,1.18,2.48,2.86,2.43c5.36,1.24,11.26-0.18,16.19,3.23c-6.46-0.4-12.82-1.75-19.36-1.46c-2.42,0.11-1.25-2.61-1.92-3.95
	c-1.45-1.58,1.33-5.6-2.33-5.39c-2.97,0.17-1.62,3.63-2.13,5.65c-0.08,0.32-0.2,0.63-0.3,0.94c0,0-0.45,0.18-0.45,0.18
	c-0.64-0.13-1.29-0.27-1.93-0.4c1.19-3.21-1.23-6.68,0.69-9.84C508.28,250.79,510.47,251.84,512.2,250.06z"/>
<path class="st3" d="M514.12,356.04c-1.88-3.69-0.5-6.21,2.87-8.01c0.94,0,1.88,0.01,2.83,0.01
	C519.4,351.76,518.03,354.8,514.12,356.04z"/>
<path class="st3" d="M517.82,262.06c-1.68,0.05-2.76-0.43-2.86-2.43c-0.15-2.91-0.57-5.8-0.87-8.7
	C520.29,252.97,516.81,258.27,517.82,262.06z"/>
<path class="st2" d="M505.6,260.86c0.64,0.13,1.29,0.27,1.93,0.4c0.3,1.12,0.66,2.24-0.95,2.74c-3.87,1.21-7.72,2.08-11.56-0.06
	c2.53-1.05,5.17-1.31,7.88-1.13c1.25,0.36,2.05,0.08,2-1.41C504.99,261.03,505.22,260.85,505.6,260.86z"/>
<path class="st1" d="M524.37,239.61c-1.25-1.95-3.14,0.07-4.57-0.73c0.54-0.91,1.57-1.56,1.49-2.8c2.79,0.15,2.04-3.22,3.94-3.96
	C527.18,234.88,526.64,237.34,524.37,239.61z"/>
<path class="st4" d="M525.22,232.13c-1.9,0.74-1.15,4.11-3.94,3.96c-0.17-2.86,1.23-5.33,2.02-7.94c0.26-0.85,0.38-2.18,1.74-2.01
	c1.77,0.22,1.08,1.73,1.17,2.75C526.31,230.06,526,231.18,525.22,232.13z"/>
<path class="st4" d="M514.96,229.97c1.06,1.44,2.13,2.88,3.19,4.33c-0.4,0.95-0.79,1.9-1.19,2.86
	C511.97,235.96,514.12,232.78,514.96,229.97z"/>
<path class="st4" d="M519.82,348.03c-0.94,0-1.88-0.01-2.83-0.01c0.92-3.72,3.34-5.31,7.1-4.95
	C523.53,345.47,520.32,345.58,519.82,348.03z"/>
<path class="st2" d="M540.62,293.64c1.05-1.61,2.05-1.72,2.22,0.38c0.09,1.16-0.65,2.39-1.02,3.59
	C540.42,296.59,540.73,295.05,540.62,293.64z"/>
<path class="st1" d="M504.9,261.4c0.05,1.49-0.75,1.77-2,1.41C503.35,262.02,503.82,261.27,504.9,261.4z"/>
<path class="st4" d="M541.15,271.06c-0.04-0.47-0.08-0.94-0.12-1.4c0.7,0.11,1.16,0.49,1.29,1.21
	C541.93,270.93,541.54,271,541.15,271.06z"/>
<path class="st1" d="M370.31,592.29c-0.05-4.79,3.21-8.54,4.26-12.98c-0.55,4.58-2.81,8.61-4.35,12.87
	C370.23,592.2,370.31,592.29,370.31,592.29z"/>
<path class="st1" d="M416.02,554.99c0.55-2.62,2.48-4.19,5.21-6.65c-1.48,3.41-2.37,5.77-5.26,6.58
	C415.97,554.92,416.02,554.99,416.02,554.99z"/>
<path class="st4" d="M515.03,270.07c5.16,1.96,10.85-0.21,15.97,2.09c-2.28,4.46-6.71,5.67-10.71,4.83
	C518.04,276.52,515.65,273.28,515.03,270.07z"/>
<path class="st4" d="M503.02,272.36c2.75-2.48,6.11-0.59,9.11-1.28c1.25,1.23,0.61,3.38-0.22,3.18
	C508.97,273.56,505.05,276.98,503.02,272.36z"/>
<path class="st3" d="M494,301.06c-1.49-2-1.54-4.01,0.01-6C494.01,297.06,494.01,299.06,494,301.06z"/>
<path class="st3" d="M494.03,306.01c-1.48-1.32-1.4-2.65-0.03-3.99C494.01,303.35,494.02,304.68,494.03,306.01z"/>
<path class="st4" d="M538.94,272.21c0.67-0.07,1.34-0.13,2.01-0.2c-0.09,0.72-0.04,1.68-1.09,1.54
	C539.5,273.51,539.24,272.68,538.94,272.21z"/>
<path class="st0" d="M484.94,317.99c1.36-5.82,0.19-11.83,1.28-17.66c0.81-1.08,1.66-1.73,2.66-0.19c0.3,5.41,1.01,10.84-1.62,15.98
	c-0.58,1.13-0.94,2.1-2.44,1.75C484.82,317.86,484.94,317.99,484.94,317.99z"/>
<path class="st1" d="M488.87,300.14c-1-1.54-1.84-0.89-2.66,0.19c-1.24-3.28,1.72-5.41,2.66-8.22
	C488.87,294.78,488.87,297.46,488.87,300.14z"/>
<path class="st3" d="M492.73,286.47c0.27,0.12,0.7,0.18,0.78,0.37c0.08,0.2-0.13,0.68-0.33,0.76c-0.2,0.08-0.53-0.19-0.81-0.31
	C492.5,287.01,492.61,286.74,492.73,286.47z"/>
<path class="st3" d="M492.73,277.43c0.28,0.12,0.7,0.18,0.78,0.38c0.08,0.19-0.2,0.53-0.32,0.8c-0.27-0.12-0.7-0.18-0.78-0.38
	C492.34,278.04,492.61,277.7,492.73,277.43z"/>
<path class="st0" d="M507.98,261.08c0.1-0.31,0.22-0.62,0.3-0.94c0.51-2.02-0.85-5.49,2.13-5.65c3.66-0.2,0.88,3.81,2.33,5.39
	C511.27,260.77,510.03,262.52,507.98,261.08z"/>
<path class="st0" d="M507.65,223.81c-5.42,1.48-5.95,2.94-3.38,9.29c-0.24,0.96-0.47,1.92-0.74,2.98c-1.31-3.17-3.35-5.95-2.97-9.62
	c0.26-2.43,1.95-3.4,3.69-4.29C505.86,221.35,507.14,221.97,507.65,223.81z"/>
<path class="st0" d="M504.64,233.08c1.22-0.98,2.47-2.8,3.41,0.26c0.48,1.55,1.1,3.05,1.71,4.7c-1.17,1.06-2.28-0.6-3.44-0.26
	C506.73,235.87,504.79,234.79,504.64,233.08z"/>
<path class="st0" d="M514.33,211.29c0.45-0.8,0.91-1.6,1.36-2.41c0.75,1.04,2.19,2.14,2.1,3.09c-0.18,1.93-1.73,2.6-3.65,1.73
	C514.2,212.9,514.27,212.09,514.33,211.29z"/>
<path class="st1" d="M518.14,242.31c-0.25,0.29-0.39,0.62-0.56,0.64c-0.47,0.04-1.12,0.14-1.39-0.11c-0.76-0.71,0.17-0.7,0.49-0.73
	C517.12,242.06,517.58,242.22,518.14,242.31z"/>
</svg>
